STARTFONT 2.3
FONT -FontForge-Roboto-Book-I-Normal--36-360-72-72-P-197-ISO10646-1
SIZE 36 72 72  2
FONTBOUNDINGBOX 68 47 -26 -9
COMMENT "Generated by fontforge, http://fontforge.sourceforge.net"
COMMENT "Copyright 2011 Google Inc. All Rights Reserved."
STARTPROPERTIES 43
FOUNDRY "FontForge"
FAMILY_NAME "Roboto"
WEIGHT_NAME "Book"
SLANT "I"
SETWIDTH_NAME "Normal"
ADD_STYLE_NAME ""
PIXEL_SIZE 36
POINT_SIZE 360
RESOLUTION_X 72
RESOLUTION_Y 72
SPACING "P"
AVERAGE_WIDTH 197
CHARSET_REGISTRY "ISO10646"
CHARSET_ENCODING "1"
FONTNAME_REGISTRY ""
CHARSET_COLLECTIONS "ISO8859-2 ISO8859-5 ISO8859-7 ISO8859-9 ISO8859-4 ISO10646-1"
BITS_PER_PIXEL 2
FONT_NAME "Roboto-Italic"
FACE_NAME "Roboto Italic"
COPYRIGHT "Copyright 2011 Google Inc. All Rights Reserved."
FONT_VERSION "2.137; 2017"
FONT_ASCENT 27
FONT_DESCENT 9
UNDERLINE_POSITION -4
UNDERLINE_THICKNESS 2
X_HEIGHT 18
CAP_HEIGHT 25
DEFAULT_CHAR 1
RAW_ASCENT 750
RAW_DESCENT 250
ITALIC_ANGLE 4992
NORM_SPACE 9
RELATIVE_WEIGHT 40
RELATIVE_SETWIDTH 50
SUPERSCRIPT_X 0
SUPERSCRIPT_Y 17
SUPERSCRIPT_SIZE 23
SUBSCRIPT_X 0
SUBSCRIPT_Y 5
SUBSCRIPT_SIZE 23
FIGURE_WIDTH 20
AVG_LOWERCASE_WIDTH 192
AVG_UPPERCASE_WIDTH 231
ENDPROPERTIES
CHARS 1296
STARTCHAR glyph1.dup1
ENCODING 0
SWIDTH 0 0
DWIDTH 0 0
BBX 1 1 0 0
BITMAP
00
ENDCHAR
STARTCHAR uni0002
ENCODING 2
SWIDTH 0 0
DWIDTH 0 0
BBX 1 1 0 0
BITMAP
00
ENDCHAR
STARTCHAR uni000D
ENCODING 13
SWIDTH 245 0
DWIDTH 9 0
BBX 1 1 0 0
BITMAP
00
ENDCHAR
STARTCHAR space
ENCODING 32
SWIDTH 245 0
DWIDTH 9 0
BBX 1 1 0 0
BITMAP
00
ENDCHAR
STARTCHAR exclam
ENCODING 33
SWIDTH 254 0
DWIDTH 9 0
BBX 8 26 1 0
BITMAP
00BE
00BE
00FD
00FC
01FC
01F8
02F8
02F4
03F4
03F0
07E0
07E0
0BD0
0BD0
0FC0
0FC0
1F80
1F40
0000
0000
0000
0000
2900
BE00
BF00
7D00
ENDCHAR
STARTCHAR quotedbl
ENCODING 34
SWIDTH 314 0
DWIDTH 11 0
BBX 9 9 3 18
BITMAP
0F4B80
1F0B80
1F0F80
2E0F40
2D1F00
3D1F00
3C1E00
782D00
782D00
ENDCHAR
STARTCHAR numbersign
ENCODING 35
SWIDTH 602 0
DWIDTH 22 0
BBX 22 26 1 0
BITMAP
000003E00F40
000007C01F00
00000B803E00
00001F407D00
00002F00BC00
00003E00F800
00007D01F000
01FFFFFFFFD0
02FFFFFFFFC0
0156F55BD540
0002E00B8000
0003D01F4000
0007C02F0000
000B803E0000
000F407D0000
001F00BC0000
7FFFFFFFF800
7FFFFFFFF400
55BD56F55000
00F803E00000
01F407D00000
02F00BC00000
03E00F800000
07D01F400000
0BC02F000000
0F803E000000
ENDCHAR
STARTCHAR dollar
ENCODING 36
SWIDTH 549 0
DWIDTH 20 0
BBX 18 34 1 -4
BITMAP
000003D000
000007D000
000007D000
00000BC000
0001AFE400
000BFFFE00
002FFAFF80
00BF802FD0
00FD000FE0
01F8000BE0
02F80007E0
02F40007E0
02F8000140
01FC000000
00FF400000
007FE40000
001FFF4000
0002FFE000
00006FF800
000002FE00
000000BF00
0000003F40
6A00003F40
7E00003F40
7F00007F00
3F4000FE00
2FD007FC00
1FFEBFF400
07FFFFD000
00BFF90000
000F800000
000F400000
001F400000
0015000000
ENDCHAR
STARTCHAR percent
ENCODING 37
SWIDTH 715 0
DWIDTH 26 0
BBX 21 26 3 0
BITMAP
01BE40000000
0BFFD0000000
1F96F4000000
3E00F8006000
7D00B800F800
7C00B803E000
B800B80BC000
BC00F41F4000
7C02F07D0000
3E5BE0F80000
1FFF82F00000
06F90BD00000
00001F400000
00007E000000
0000F82FE000
0002F0FFFD00
000BD3F57E00
001F47D01F40
003E0B800F40
00B80F800F40
02F00F401F40
07D00F401F00
0F800B803E00
060007E5BD00
000002FFF400
0000007F9000
ENDCHAR
STARTCHAR ampersand
ENCODING 38
SWIDTH 607 0
DWIDTH 22 0
BBX 20 26 1 0
BITMAP
0000BFA000
0007FFFC00
001FFAFE00
003F807F40
007F002F40
00BE002F40
00BD003F40
00BE00BE00
007F02FD00
003F5FF400
002FFF8000
000FFE0000
002FF40000
01FFFC0000
07FDFE00BD
1FE07F40BC
3F802FC0FC
7F000FE2F8
BE0007F7F0
BD0002FFE0
BE0000FFC0
7F0000BF40
3F8007FF80
1FFABFFFD0
07FFFF87F0
00AFE903F8
ENDCHAR
STARTCHAR quotesingle
ENCODING 39
SWIDTH 173 0
DWIDTH 6 0
BBX 4 8 3 19
BITMAP
2E
3E
3D
7D
7C
B8
B8
F4
ENDCHAR
STARTCHAR parenleft
ENCODING 40
SWIDTH 336 0
DWIDTH 12 0
BBX 12 37 2 -8
BITMAP
000006
00002E
0001FE
0007F4
000FD0
002F80
007E00
00FD00
02F800
03F000
07E000
0BD000
0FC000
1F8000
2F4000
3F0000
7F0000
7E0000
BE0000
BD0000
FD0000
FD0000
FC0000
FC0000
FC0000
BD0000
BD0000
BD0000
7E0000
3E0000
2F0000
1F4000
0B8000
07D000
02F400
00B800
002400
ENDCHAR
STARTCHAR parenright
ENCODING 41
SWIDTH 342 0
DWIDTH 12 0
BBX 12 37 -2 -8
BITMAP
001800
002E00
001F80
000BD0
0003E0
0001F4
0000F8
0000BC
0000BD
00007D
00007E
00007E
00007E
00007F
00007F
00007F
00007E
00007E
0000BE
0000BD
0000FD
0001FC
0001F8
0002F4
0003F0
0007E0
000BD0
001FC0
002F40
007F00
00BD00
02F800
07F000
1FC000
7F4000
F80000
900000
ENDCHAR
STARTCHAR asterisk
ENCODING 42
SWIDTH 422 0
DWIDTH 15 0
BBX 14 15 2 11
BITMAP
0007D000
0007D000
0007C000
000B8000
200B8060
7E4F5BE0
FFFFFFF0
1BFFFE40
00BF9000
01FFC000
07E7D000
0FC2F000
3F41F800
2D00F800
04005000
ENDCHAR
STARTCHAR plus
ENCODING 43
SWIDTH 554 0
DWIDTH 20 0
BBX 18 20 1 2
BITMAP
0000150000
00003F0000
00007F0000
00007E0000
0000BE0000
0000BD0000
0000FD0000
0000FC0000
7FFFFFFFF0
7FFFFFFFE0
BFFFFFFFD0
0002F40000
0003F40000
0003F00000
0007F00000
000BE00000
000BE00000
000FD00000
000FD00000
0005400000
ENDCHAR
STARTCHAR comma
ENCODING 44
SWIDTH 195 0
DWIDTH 7 0
BBX 6 9 -2 -5
BITMAP
03F0
07F0
07E0
0BD0
0FD0
2F80
3F40
BD00
2400
ENDCHAR
STARTCHAR hyphen
ENCODING 45
SWIDTH 272 0
DWIDTH 10 0
BBX 10 3 0 9
BITMAP
7FFFD0
7FFFC0
6AAA80
ENDCHAR
STARTCHAR period
ENCODING 46
SWIDTH 260 0
DWIDTH 9 0
BBX 4 4 1 0
BITMAP
79
FE
FE
79
ENDCHAR
STARTCHAR slash
ENCODING 47
SWIDTH 404 0
DWIDTH 15 0
BBX 18 28 -2 -2
BITMAP
00000003E0
0000000BD0
0000000F80
0000002F40
0000007E00
000000BC00
000001F800
000003F000
000007D000
00000FC000
00001F4000
00003E0000
0000BD0000
0000F80000
0002F40000
0007E00000
000BC00000
001F800000
002F000000
007D000000
00FC000000
01F4000000
03F0000000
0BD0000000
0F80000000
2F40000000
7E00000000
BD00000000
ENDCHAR
STARTCHAR zero
ENCODING 48
SWIDTH 549 0
DWIDTH 20 0
BBX 17 26 2 0
BITMAP
0006FF9000
002FFFF400
00BFEBFD00
02FD00BF00
07F4003F40
0BD0002F40
0FC0001F80
1F80001F80
2F40001F80
3F40002F80
7F00002F40
7F00002F40
7E00003F40
BE00003F00
BD00007F00
FD00007E00
FC0000BE00
FC0000BD00
FC0000FC00
FC0001F800
BD0003F400
BE000BE000
7F402FD000
2FEAFF4000
0BFFFD0000
01BF900000
ENDCHAR
STARTCHAR one
ENCODING 49
SWIDTH 549 0
DWIDTH 20 0
BBX 11 26 4 0
BITMAP
00006C
001BF8
16FFF8
7FFFF4
7F93F4
A403F0
0007F0
0007E0
000BE0
000BD0
000FD0
000FC0
001FC0
001F80
002F80
002F40
003F40
003F00
007F00
007E00
00BE00
00BD00
00FD00
00FC00
01FC00
01F800
ENDCHAR
STARTCHAR two
ENCODING 50
SWIDTH 549 0
DWIDTH 20 0
BBX 19 26 0 0
BITMAP
00006FE800
0007FFFF40
002FFABFD0
00BF800FF0
00FD0007F4
02F80002F4
03F40002F4
03F00003F4
00000003F0
0000000BE0
0000001FD0
0000003F80
000000FE00
000003FC00
00000FF000
00003FC000
0000FF0000
0003F80000
000FE00000
007F800000
01FE000000
07F8000000
1FE0000000
3FEAAAAA80
7FFFFFFFC0
BFFFFFFF80
ENDCHAR
STARTCHAR three
ENCODING 51
SWIDTH 549 0
DWIDTH 20 0
BBX 18 26 1 0
BITMAP
0001BF9000
001FFFFD00
00BFEAFF40
01FE002F80
03F8001FC0
07F0000FD0
0BE0000FD0
0000000FD0
0000001FC0
0000007F40
000006FD00
000BFFE400
000FFFC000
000AAFF400
000002FC00
000000FD00
0000007E00
0000007E00
0000007E00
FD0000BE00
FD0000FD00
BE0002FC00
7F800BF400
2FFABFE000
07FFFF4000
00AFE40000
ENDCHAR
STARTCHAR four
ENCODING 52
SWIDTH 549 0
DWIDTH 20 0
BBX 19 26 0 0
BITMAP
0000000FF0
0000002FE0
0000007FE0
000001FFD0
000003FFD0
00000FDFC0
00002F9FC0
00007E1F80
0001FC2F80
0003F42F40
000FD03F40
002F803F00
007E007F00
01FC00BE00
03F400BD00
0FD000FD00
2F8000FC00
7FFFFFFFF4
BFFFFFFFF4
AAAAABFEA0
000002F400
000003F400
000003F000
000007F000
000007E000
00000BE000
ENDCHAR
STARTCHAR five
ENCODING 53
SWIDTH 549 0
DWIDTH 20 0
BBX 18 26 2 0
BITMAP
003FFFFFE0
007FFFFFE0
00BFFFFFD0
00BD000000
00FC000000
01F8000000
02F4000000
02F0000000
03F0000000
07E6FE4000
0BFFFFE000
0BFFFFF800
0FE407FC00
014001FD00
000000BE00
0000007F00
0000007F00
0000007E00
000000BE00
FC0000BD00
BD0001FC00
BE0003F800
3F801FF000
1FFAFFD000
07FFFF4000
00BFE40000
ENDCHAR
STARTCHAR six
ENCODING 54
SWIDTH 549 0
DWIDTH 20 0
BBX 16 26 2 0
BITMAP
000006F8
0001BFF8
0007FFE4
002FF400
00BF8000
01FD0000
03F40000
0BE00000
0FD00000
1F86FE40
2F7FFFD0
3FFFAFF4
7FE403FC
7F8001FD
BF0000BE
BD0000BE
FD00007E
FD0000BE
FD0000BD
BD0000FD
BE0001FC
7F0007F4
2FC01FE0
0FFAFFC0
07FFFE00
006FE400
ENDCHAR
STARTCHAR seven
ENCODING 55
SWIDTH 549 0
DWIDTH 20 0
BBX 18 26 3 0
BITMAP
7FFFFFFFD0
BFFFFFFFD0
6AAAAABFC0
0000003F40
0000007E00
000000FC00
000002F800
000007F000
00000FD000
00001F8000
00003F4000
0000BE0000
0001FC0000
0002F40000
0007F00000
000FD00000
002F800000
007F400000
00BE000000
01FC000000
03F4000000
0BE0000000
1FD0000000
2F80000000
7F00000000
FE00000000
ENDCHAR
STARTCHAR eight
ENCODING 56
SWIDTH 549 0
DWIDTH 20 0
BBX 18 26 1 0
BITMAP
0001BFE400
000BFFFE00
003FFAFF80
00BF402FD0
01FD000FE0
02F8000BE0
03F4000BE0
03F4000BE0
02F4000FD0
02F8002F80
00FE41FE00
007FFFF800
002FFFD000
02FFAFF400
0BF401FD00
1FC000BE00
3F40003F00
7F00003F00
BE00003F00
BE00007F00
BE0000BE00
7F0001FD00
3F8007F800
1FFABFE000
07FFFF8000
006FE80000
ENDCHAR
STARTCHAR nine
ENCODING 57
SWIDTH 549 0
DWIDTH 20 0
BBX 17 26 2 0
BITMAP
0006FE4000
007FFFE000
01FFAFF800
07F802FD00
0FE000BE00
1FC0007F00
2F40003F00
3F00003F40
3F00003F40
7F00003F40
7F00003F00
3F40007F00
2F8001FF00
1FD00BFE00
0FFEBFFD00
03FFFDFD00
00BF91FC00
000002F400
000007F000
00000BE000
00002FC000
0000BF4000
001BFD0000
0AFFF40000
0FFF800000
1FA4000000
ENDCHAR
STARTCHAR colon
ENCODING 58
SWIDTH 239 0
DWIDTH 9 0
BBX 7 19 1 0
BITMAP
02E0
07F4
07F4
02D0
0000
0000
0000
0000
0000
0000
0000
0000
0000
0000
0000
7800
FE00
FE00
B800
ENDCHAR
STARTCHAR semicolon
ENCODING 59
SWIDTH 209 0
DWIDTH 8 0
BBX 9 24 -2 -5
BITMAP
001F40
003FC0
003F80
001E40
000000
000000
000000
000000
000000
000000
000000
000000
000000
000000
000000
02F400
03F000
07F000
07E000
0BD000
1FC000
3F4000
BE0000
280000
ENDCHAR
STARTCHAR less
ENCODING 60
SWIDTH 498 0
DWIDTH 18 0
BBX 16 16 1 3
BITMAP
00000006
000000BD
00001BFD
0001BFFC
001FFF90
02FFF400
2FFE4000
BFD00000
BF400000
7FF40000
0BFF8000
00BFF900
000BFF90
0000BFD0
00001BD0
00000180
ENDCHAR
STARTCHAR equal
ENCODING 61
SWIDTH 537 0
DWIDTH 19 0
BBX 16 10 2 7
BITMAP
1FFFFFFF
2FFFFFFE
2AAAAAA9
00000000
00000000
00000000
00000000
BFFFFFF8
BFFFFFF4
AAAAAAA4
ENDCHAR
STARTCHAR greater
ENCODING 62
SWIDTH 511 0
DWIDTH 18 0
BBX 16 16 1 3
BITMAP
06000000
07E00000
0BFE0000
06FFE000
006FFE00
0002FFE4
00001FFE
000001BF
000006FF
0001BFF9
001BFF90
06FFF800
7FFE4000
BFE40000
BE000000
90000000
ENDCHAR
STARTCHAR question
ENCODING 63
SWIDTH 462 0
DWIDTH 17 0
BBX 14 26 3 0
BITMAP
006FE400
07FFFE00
1FFFFF80
3F902FD0
BF000FD0
FD000BE0
54000BE0
00000FD0
00001FC0
00003F80
0000BF00
0002FD00
000FF400
003FD000
00BF4000
01FD0000
02F80000
03F00000
07F00000
00000000
00000000
00000000
0A400000
1FC00000
2FC00000
0F400000
ENDCHAR
STARTCHAR at
ENCODING 64
SWIDTH 875 0
DWIDTH 32 0
BBX 29 33 1 -8
BITMAP
0000001AFF900000
000002FFFFFE0000
00002FFA55BFC000
0000BF400007F000
0007F8000001F800
000FD00000007D00
002F400000002E00
00BD000000000F00
01F8001BF9000F40
02F000BFFF900B80
07D002FD5BD00B80
0B8007E007C00780
1F400F800B800780
2F002F000F800B80
3E003E001F400B80
3D00BD002F000B40
7D00FC002E000F40
BC00F8003E001F00
BC01F8007D002E00
B801F400BC003D00
B801F401FC00BC00
B801F807FC01F400
B800FEAFBE0BD000
BC007FFC3FFF4000
7C001FD00BF80000
3D00000000000000
2F00000000000000
1F40000000000000
0BD0000000000000
03F8000050000000
00FF955BD0000000
002FFFFFD0000000
0001BFF900000000
ENDCHAR
STARTCHAR A
ENCODING 65
SWIDTH 637 0
DWIDTH 23 0
BBX 22 26 -1 0
BITMAP
0000002F4000
0000007F8000
000000FFC000
000001FFC000
000003FBD000
000007E7D000
00000FD7E000
00002F83F000
00003F03F000
0000BE02F400
0000FC02F400
0002F401F800
0007F000F800
000BD000FC00
001FC000BD00
002F4000BD00
007FFFFFFE00
00FFFFFFFE00
01FEAAAABF00
03F400003F40
07E000002F40
0FD000002F80
2F8000001F80
3F4000001FC0
BE0000000FC0
FD0000000FD0
ENDCHAR
STARTCHAR B
ENCODING 66
SWIDTH 608 0
DWIDTH 22 0
BBX 20 26 1 0
BITMAP
00BFFFFA00
00BFFFFFD0
00FEAABFF4
00FD0006FC
01FC0000FD
01F80000BE
02F80000BE
02F40000FD
03F40001FC
03F00007F8
07F0006FE0
07FFFFFF40
0BFFFFFD00
0FEAAAFF80
0FD0001FD0
1FC00007F0
1FC00003F0
2F800003F4
2F800003F4
3F400007F0
3F40000BE0
7F00002FD0
7F0001BF80
BFAAAFFE00
BFFFFFF800
FFFFFE4000
ENDCHAR
STARTCHAR C
ENCODING 67
SWIDTH 636 0
DWIDTH 23 0
BBX 21 26 2 0
BITMAP
00006FF90000
0007FFFFD000
002FFEBFF400
00BF9007FC00
01FD0000FE00
07F80000BF00
0BE000007F00
1FD000003F40
2F8000001A40
3F4000000000
3F4000000000
7F0000000000
BE0000000000
BE0000000000
BE0000000000
BD0000000000
FD0000000000
FD0000015400
BE000003F400
BE000007F000
7F00000FE000
3F80002FC000
1FE001FF4000
0BFFAFFD0000
01FFFFE00000
002BFA400000
ENDCHAR
STARTCHAR D
ENCODING 68
SWIDTH 641 0
DWIDTH 23 0
BBX 21 26 1 0
BITMAP
00BFFFE40000
00BFFFFF4000
00FEAAFFE000
00FD001BF400
01FC0002FC00
01F80000FE00
02F800007F00
02F400003F00
03F400003F40
03F000003F40
07F000003F40
07E000003F40
0BE000003F40
0FD000003F40
0FD000007F00
1FC00000BE00
1FC00000BE00
2F800001FC00
2F800002F800
3F400007F400
3F40001FE000
7F00007F8000
7F0006FE0000
BFAAFFF80000
BFFFFF900000
FFFFE9000000
ENDCHAR
STARTCHAR E
ENCODING 69
SWIDTH 556 0
DWIDTH 20 0
BBX 20 26 1 0
BITMAP
00BFFFFFFF
00BFFFFFFF
00FFAAAAAA
00FD000000
01FC000000
01F8000000
02F8000000
02F4000000
03F4000000
03F0000000
07F0000000
07FFFFFF80
0BFFFFFF40
0BFAAAAA40
0FD0000000
1FC0000000
1FC0000000
2F80000000
2F80000000
3F40000000
3F40000000
7F00000000
7F00000000
BFAAAAAA40
BFFFFFFF00
FFFFFFFF00
ENDCHAR
STARTCHAR F
ENCODING 70
SWIDTH 541 0
DWIDTH 19 0
BBX 20 26 1 0
BITMAP
00BFFFFFFE
00BFFFFFFE
00FFAAAAA9
00FD000000
01FC000000
01FC000000
02F8000000
02F8000000
03F4000000
03F4000000
07F0000000
07F0000000
0BFFFFFF00
0BFFFFFF00
0FFAAAAA00
1FD0000000
1FC0000000
2F80000000
2F80000000
3F40000000
3F40000000
7F00000000
7F00000000
BE00000000
BE00000000
FD00000000
ENDCHAR
STARTCHAR G
ENCODING 71
SWIDTH 665 0
DWIDTH 24 0
BBX 21 26 2 0
BITMAP
00006FF90000
0007FFFFD000
002FFFBFF800
00BF9006FD00
01FE0000BE00
03F800007F00
0BE000003F40
0FD000002A40
1FC000000000
2F8000000000
3F4000000000
7F0000000000
7F0000000000
BE0007FFFE00
BE000BFFFD00
BE000AAAFD00
BE000001FC00
BE000001FC00
BE000002F800
7F000002F800
3F400003F400
2FD00007F400
0FF4006FF000
07FFAFFFC000
00FFFFFE0000
001BFE900000
ENDCHAR
STARTCHAR H
ENCODING 72
SWIDTH 696 0
DWIDTH 25 0
BBX 24 26 1 0
BITMAP
00BE000000BE
00BE000000FD
00FD000001FC
00FD000001FC
01FC000002F8
01FC000002F8
02F8000003F4
02F4000003F4
03F4000007F0
03F0000007F0
07F000000BE0
07FFFFFFFFE0
0BFFFFFFFFD0
0BFAAAAAAFD0
0FD000001FC0
1FC000001FC0
1FC000002F80
2F8000002F80
2F8000003F40
3F4000003F40
3F4000007F00
7F0000007F00
7F000000BE00
BE000000BE00
BE000000FD00
FD000000FD00
ENDCHAR
STARTCHAR I
ENCODING 73
SWIDTH 268 0
DWIDTH 10 0
BBX 8 26 1 0
BITMAP
007F
00BE
00BE
00FD
00FD
01FC
01FC
02F8
02F8
03F4
03F4
07F0
07F0
0BE0
0BE0
0FD0
0FD0
1FC0
1FC0
2F80
2F80
3F40
3F40
7F00
7F00
BE00
ENDCHAR
STARTCHAR J
ENCODING 74
SWIDTH 540 0
DWIDTH 19 0
BBX 20 26 0 0
BITMAP
00000000FD
00000001FC
00000001FC
00000002F8
00000002F8
00000003F4
00000003F4
00000007F0
00000007F0
0000000BE0
0000000BE0
0000000FD0
0000000FD0
0000001FC0
0000001FC0
0000002F80
0000002F40
0000003F40
5500007F00
BE00007F00
BE0000FE00
7F4002FD00
3FD01BF800
1FFEFFE000
07FFFF4000
00AFE80000
ENDCHAR
STARTCHAR K
ENCODING 75
SWIDTH 612 0
DWIDTH 22 0
BBX 23 26 1 0
BITMAP
00BE00000BF4
00BE00002FD0
00FD0000BF40
00FD0003FD00
01FC000FF400
01FC003FD000
02F800FF4000
02F807FD0000
03F41FF40000
03F07FD00000
07F1FF400000
07E7FD000000
0BFFFD000000
0BFFFF000000
0FFF7F800000
1FF82FC00000
1FE00FE00000
2F8007F40000
2F8003F80000
3F4001FD0000
3F4000BF0000
7F00007F4000
7F00002FC000
BE00000FE000
BE00000BF000
FD000003F800
ENDCHAR
STARTCHAR L
ENCODING 76
SWIDTH 526 0
DWIDTH 19 0
BBX 16 26 1 0
BITMAP
00BE0000
00BE0000
00FD0000
00FD0000
01FC0000
01FC0000
02F80000
02F80000
03F40000
03F40000
07F00000
07F00000
0BE00000
0BD00000
0FD00000
1FC00000
1FC00000
2F800000
2F800000
3F400000
3F400000
7F000000
7F000000
BFAAAAA9
BFFFFFFD
FFFFFFFD
ENDCHAR
STARTCHAR M
ENCODING 77
SWIDTH 851 0
DWIDTH 31 0
BBX 29 26 1 0
BITMAP
00BF800000007FC0
00BFC0000000FFC0
00FFD0000002FF80
00FFD0000003FF80
01FFE000000BFF40
01FBE000001FFF40
02F7F000002FBF00
02F6F400007F7F00
03F2F40000BE7E00
03F1F80001FCBE00
07E0FC0003F4BD00
07E0FC000BE0FD00
0BE0BD000FD0FC00
0BD0BE002F81FC00
0FD07E007F42F800
1FC03F00BE02F800
1FC03F01FC03F400
2F802F42F403F400
2F801F87F007F000
3F401F8FD007F000
3F400FEF800BE000
7F000BFF400BE000
7F000BFE000FD000
BE0007FC000FD000
BE0003F8001FC000
FD0003F0001FC000
ENDCHAR
STARTCHAR N
ENCODING 78
SWIDTH 696 0
DWIDTH 25 0
BBX 24 26 1 0
BITMAP
00BF000000BE
00BF400000FD
00FF800000FC
00FFD00001FC
01FFE00001F8
01FFF40002F8
02FBF80002F4
02F9FC0003F4
03F4FE0003F0
03F4BF0007F0
07F03F4007E0
07F02FC00BE0
0BE01FD00BD0
0BD00BE00FD0
0FD007F41FC0
1FC002F81FC0
1FC001FC2F80
2F8000FE2F80
2F80007F3F40
3F40003FBF40
3F40002FFF00
7F00000FFF00
7F00000BFE00
BE000007FE00
BE000002FD00
FD000001FD00
ENDCHAR
STARTCHAR O
ENCODING 79
SWIDTH 671 0
DWIDTH 24 0
BBX 21 26 2 0
BITMAP
00006FF90000
0007FFFFD000
001FFFFFF400
00BFD007FC00
01FE0001FE00
03F800007F00
0BF000003F40
0FD000002F40
1FC000002F80
2F4000002F80
3F4000002F80
7F0000002F80
7E0000002F40
BE0000003F40
BE0000003F00
BD0000007F00
BD000000BE00
BE000000FD00
BE000001FC00
7F000003F400
3F40000BF000
2FC0002FD000
0FF401FF4000
07FFFFFD0000
01FFFFE40000
001BFA400000
ENDCHAR
STARTCHAR P
ENCODING 80
SWIDTH 616 0
DWIDTH 22 0
BBX 21 26 1 0
BITMAP
00BFFFFE4000
00BFFFFFF400
00FFAAAFFD00
00FD0001FF00
01FC00003F80
01FC00002FC0
02F800001FC0
02F400001FC0
03F400001FC0
03F000002F80
07F000007F40
07E00001FE00
0BE0001BFD00
0BFFFFFFF400
0FFFFFFF8000
1FEAAAA40000
1FC000000000
2F8000000000
2F8000000000
3F4000000000
3F4000000000
7F0000000000
7F0000000000
BE0000000000
BE0000000000
FD0000000000
ENDCHAR
STARTCHAR Q
ENCODING 81
SWIDTH 671 0
DWIDTH 24 0
BBX 21 30 2 -4
BITMAP
00006FF90000
0007FFFF8000
002FFFFFF400
00BF9007FC00
01FD0001FD00
07F40000BE00
0BE000007F00
1FD000003F40
2F8000002F40
3F4000002F40
7F0000002F40
7E0000003F40
BE0000003F40
BE0000003F40
FD0000007F00
FD000000BF00
FD000000BE00
FD000000FD00
BE000002FC00
BE000003F400
7F40000BE000
2F80002FC000
1FE401FF4000
0BFFFFFD0000
01FFFFF40000
002BFBFD0000
000001FF4000
0000007FD000
0000001FD000
000000060000
ENDCHAR
STARTCHAR R
ENCODING 82
SWIDTH 602 0
DWIDTH 22 0
BBX 20 26 1 0
BITMAP
00BFFFF900
00BFFFFFD0
00FFAABFF8
00FD0006FD
01FC0000FE
01FC00007F
02F800007F
02F800007F
03F400007F
03F40000BE
07F00001FD
0BF00007F8
0BE0006FF0
0FFFFFFF80
0FFFFFFD00
1FEAABF400
1FC002F800
2FC001FC00
2F8000FD00
3F4000BF00
3F40007F40
7F00003F80
7F00002FC0
BE00001FD0
BE00000FE0
FD00000BF0
ENDCHAR
STARTCHAR S
ENCODING 83
SWIDTH 580 0
DWIDTH 21 0
BBX 20 26 1 0
BITMAP
00006FE900
000BFFFF80
003FFEFFF0
00FF8007F8
02FD0001FD
03F40000BE
07F00000BE
07F000006A
07F4000000
03F8000000
01FF400000
00BFF90000
001FFFD000
0002FFFD00
00001BFF40
000000BFC0
0000001FD0
0000000BE0
A800000BE0
FD00000BE0
FD00000FD0
BF00002FC0
3FD001FF40
1FFEBFFD00
02FFFFF400
006BFA4000
ENDCHAR
STARTCHAR T
ENCODING 84
SWIDTH 583 0
DWIDTH 21 0
BBX 20 26 3 0
BITMAP
BFFFFFFFFE
BFFFFFFFFD
AAAAFEAAA9
0001FC0000
0001FC0000
0002F80000
0002F80000
0003F40000
0003F40000
0007F00000
0007F00000
000BE00000
000BE00000
000FD00000
000FD00000
001FC00000
001FC00000
002F800000
002F800000
003F400000
003F400000
007F000000
007F000000
00BE000000
00BE000000
00FD000000
ENDCHAR
STARTCHAR U
ENCODING 85
SWIDTH 633 0
DWIDTH 23 0
BBX 21 26 2 0
BITMAP
03F400001FC0
07F000002F80
07F000002F80
0BE000003F40
0BE000003F40
0FD000007F00
0FD000007F00
1FC00000BE00
1FC00000BE00
2F800000FD00
2F800000FD00
3F400001FC00
3F400001FC00
7F000002F800
7F000002F800
BE000003F400
BE000003F400
FD000007F000
FD000007F000
FD00000FE000
BE00001FC000
7F40007F8000
3FD002FE0000
1FFFBFF80000
07FFFFD00000
006FF9000000
ENDCHAR
STARTCHAR V
ENCODING 86
SWIDTH 622 0
DWIDTH 22 0
BBX 21 26 3 0
BITMAP
FD0000002FC0
BE0000007F40
BE000000BF00
7F000001FD00
7F000002FC00
3F400007F400
2F40000BF000
2F80000FD000
1F80002FC000
1FC0003F4000
0FD000BF0000
0BD000FD0000
0BE002FC0000
07E003F40000
07F00BE00000
03F00FD00000
02F42F800000
02F43F400000
01F87E000000
01F8FD000000
00FDF8000000
00FFF4000000
00BFE0000000
007FD0000000
007F80000000
003F40000000
ENDCHAR
STARTCHAR W
ENCODING 87
SWIDTH 865 0
DWIDTH 31 0
BBX 30 26 3 0
BITMAP
BE00002F40000FD0
7E00003F80001FC0
7E00007F80002F80
7F0000FF80003F40
7F0001FFC0007F00
3F0002FFC000BE00
3F0003FBC000FC00
3F000BDBD002F800
3F400FC7D003F400
3F401F87D007F000
2F403F07E00BE000
2F407E03E00FD000
2F40BD03E01F8000
2F80FC02F02F4000
1F82F402F03F0000
1F83F002F07E0000
1F87E001F4FD0000
1F8BC001F5FC0000
0F9F8001F6F80000
0FAF4000F7F00000
0FBE0000FBE00000
0FFD0000FFD00000
0FFC0000BFC00000
0BF80000BF800000
0BF00000BF400000
0BE000007E000000
ENDCHAR
STARTCHAR X
ENCODING 88
SWIDTH 612 0
DWIDTH 22 0
BBX 24 26 -1 0
BITMAP
007F400001FE
002FC00003FC
001FD0000BF4
000BE0001FE0
0007F4007F80
0003F800FF00
0001FC02FD00
0000FE07F800
0000BF1FE000
00003FBFC000
00002FFF4000
00000FFD0000
00000BF80000
00001FF40000
00003FFC0000
0000BFFD0000
0001FEBF0000
0007F87F4000
000FF02F8000
002FD01FD000
00BF400FE000
01FE0007F400
03FC0003F800
0BF40002FC00
2FD00000FE00
7F800000BF00
ENDCHAR
STARTCHAR Y
ENCODING 89
SWIDTH 587 0
DWIDTH 21 0
BBX 20 26 3 0
BITMAP
FE000000FF
BF000002FD
3F400007F8
2F80000FF0
1FC0002FD0
0FD0007F80
0BE000FE00
07F002FD00
03F407F400
02F80FE000
01FC2FC000
00FD7F4000
00BEFE0000
007FFC0000
003FF40000
002FE00000
001FC00000
002F800000
002F800000
003F400000
003F400000
007F000000
007F000000
00BE000000
00BE000000
00FD000000
ENDCHAR
STARTCHAR Z
ENCODING 90
SWIDTH 585 0
DWIDTH 21 0
BBX 23 26 -1 0
BITMAP
002FFFFFFFF8
003FFFFFFFF4
002AAAAAAFF0
000000002FD0
000000007F80
00000001FE00
00000003FC00
0000000BF400
0000002FD000
0000007F4000
000001FE0000
000007F80000
00000FF00000
00002FD00000
0000BF400000
0001FE000000
0007F8000000
000FE0000000
003FC0000000
00BF40000000
02FD00000000
07F800000000
1FE000000000
3FEAAAAAA800
3FFFFFFFFC00
7FFFFFFFF800
ENDCHAR
STARTCHAR bracketleft
ENCODING 91
SWIDTH 262 0
DWIDTH 9 0
BBX 12 34 0 -5
BITMAP
002FFE
003FFE
003FA9
007F00
007F00
007E00
00BE00
00BD00
00FD00
00FC00
01FC00
01F800
02F800
02F400
03F400
03F000
07F000
07E000
0BE000
0BD000
0FD000
0FC000
1FC000
1FC000
2F8000
2F8000
2F4000
3F4000
3F0000
7F0000
7E0000
BFA800
BFF800
FFF800
ENDCHAR
STARTCHAR backslash
ENCODING 92
SWIDTH 402 0
DWIDTH 15 0
BBX 9 28 3 -2
BITMAP
BD0000
7E0000
3E0000
3F0000
2F0000
2F4000
1F8000
0F8000
0FC000
0BC000
0BD000
07E000
03E000
03F000
02F000
02F400
01F800
01F800
00FC00
00BC00
00BD00
007D00
007E00
003F00
002F00
002F40
001F40
001F80
ENDCHAR
STARTCHAR bracketright
ENCODING 93
SWIDTH 262 0
DWIDTH 9 0
BBX 13 34 -3 -5
BITMAP
000FFF40
001FFF40
001ABF00
00007F00
00007E00
0000BE00
0000BE00
0000FD00
0000FD00
0000FC00
0001FC00
0001F800
0002F800
0002F400
0003F400
0003F000
0007F000
0007E000
000BE000
000BD000
000FD000
000FC000
001FC000
001F8000
002F8000
002F4000
003F4000
003F0000
007F0000
007E0000
00BE0000
2AFE0000
3FFD0000
7FFD0000
ENDCHAR
STARTCHAR asciicircum
ENCODING 94
SWIDTH 410 0
DWIDTH 15 0
BBX 13 13 1 13
BITMAP
0002F000
0003F400
000BF400
001FF800
002FFC00
007EBC00
00FC7D00
02F43E00
03F03E00
0BD02F00
1FC02F40
2F401F40
7E000F80
ENDCHAR
STARTCHAR underscore
ENCODING 95
SWIDTH 442 0
DWIDTH 16 0
BBX 16 3 -2 -3
BITMAP
FFFFFFFE
FFFFFFFE
AAAAAAA9
ENDCHAR
STARTCHAR grave
ENCODING 96
SWIDTH 304 0
DWIDTH 11 0
BBX 6 5 4 22
BITMAP
FE00
7F00
2F80
0BD0
0390
ENDCHAR
STARTCHAR a
ENCODING 97
SWIDTH 532 0
DWIDTH 19 0
BBX 16 19 1 0
BITMAP
0006FE40
007FFFF4
02FFABFC
07F801FE
0BE000BE
0A90007F
0000007E
0000007E
006BFFFD
07FFFFFD
1FF955FC
7F8000FC
BE0001F8
FD0002F8
FD0007F4
BF406FF4
7FFFFFF4
2FFFF7F4
06FE43F4
ENDCHAR
STARTCHAR b
ENCODING 98
SWIDTH 549 0
DWIDTH 20 0
BBX 18 27 0 0
BITMAP
003F400000
003F000000
007F000000
007E000000
00BE000000
00BD000000
00FD000000
00FC000000
01FC2FE400
01F9FFFE00
02FFFAFF80
02FF402FD0
03FC000FE0
03F40007E0
07F00007F0
07E00007F0
0BE00007F0
0BD00007E0
0FD0000BE0
0FC0000FD0
1FC0001FC0
2F80002F80
2FD0007F40
3FF402FE00
3FFFAFF800
7F3FFFE000
7E06FE4000
ENDCHAR
STARTCHAR c
ENCODING 99
SWIDTH 512 0
DWIDTH 18 0
BBX 17 19 1 0
BITMAP
0006FE8000
007FFFF400
01FFABFD00
07F800BE00
0FE0003F40
1FC0002F40
2F40001A40
3F00000000
7E00000000
7E00000000
BE00000000
BE00000000
7E00000000
7F0000BD00
3F4001FC00
2FD00BF400
0BFABFE000
02FFFF4000
006FE40000
ENDCHAR
STARTCHAR d
ENCODING 100
SWIDTH 551 0
DWIDTH 20 0
BBX 19 27 1 0
BITMAP
00000001FC
00000001F8
00000002F8
00000002F4
00000003F4
00000003F0
00000007F0
00000007E0
000BFE0BE0
007FFFDBD0
02FFEFFFD0
07F900BFC0
0FE0003FC0
1FC0001F80
2F80002F80
3F00002F40
7F00003F40
BE00003F00
BE00007F00
BE0000BE00
BE0000BE00
7E0000FD00
7F4002FC00
2FD01BFC00
1FFEFFF800
07FFF9F800
01BF91F400
ENDCHAR
STARTCHAR e
ENCODING 101
SWIDTH 518 0
DWIDTH 19 0
BBX 17 19 1 0
BITMAP
0006FE4000
002FFFF400
01FFABFC00
03F900FE00
0BE0007F00
1FD0002F40
2F80002F40
3F40002F40
7FFFFFFF40
7FFFFFFF40
7FAAAAAA00
7E00000000
7E00000000
7F00000000
3F40006000
1FD002F800
0BFEAFF400
02FFFF8000
006FF90000
ENDCHAR
STARTCHAR f
ENCODING 102
SWIDTH 341 0
DWIDTH 12 0
BBX 13 27 2 0
BITMAP
0001BF80
000BFF80
003FFB80
00BF4000
00FE0000
01FC0000
01F80000
02F80000
BFFFF400
BFFFF400
6BFAA000
07F00000
07E00000
0BE00000
0BD00000
0FD00000
0FC00000
1FC00000
1F800000
2F800000
2F400000
3F400000
3F000000
7F000000
7E000000
BE000000
BD000000
ENDCHAR
STARTCHAR g
ENCODING 103
SWIDTH 549 0
DWIDTH 20 0
BBX 19 26 0 -7
BITMAP
0002FF81F8
001FFFF6F4
00BFFBFFF4
01FE406FF0
03F8000FF0
07F00007E0
0BE0000BE0
0FC0000BD0
1FC0000FD0
2F80000FC0
2F80001FC0
2F80002F80
2F80002F80
1F80003F40
1FD000BF40
0FF406FF00
07FFBFFF00
01FFFEBE00
006FE4BD00
000000FD00
000001FC00
240007F400
BE001FF000
7FEAFFC000
1FFFFE0000
01BFE40000
ENDCHAR
STARTCHAR h
ENCODING 104
SWIDTH 539 0
DWIDTH 19 0
BBX 18 27 0 0
BITMAP
003F400000
003F000000
007F000000
007E000000
00BE000000
00BD000000
00FD000000
00FC000000
01FC1BF800
01F9FFFE00
02FFFAFF80
02FF402FC0
03FD001FC0
03F4000FD0
07F0000FC0
07E0000FC0
0BE0001FC0
0BD0001F80
0FD0002F80
0FC0002F40
1FC0003F40
2F80003F00
2F80007F00
3F40007E00
3F4000BE00
7F0000FD00
7E0000FC00
ENDCHAR
STARTCHAR i
ENCODING 105
SWIDTH 240 0
DWIDTH 9 0
BBX 8 26 1 0
BITMAP
0068
00FD
01FD
00B8
0000
0000
0000
03F4
03F0
07F0
07E0
0BE0
0FD0
0FC0
1FC0
1F80
2F80
2F40
3F40
3F00
7F00
7E00
BE00
BD00
FD00
FC00
ENDCHAR
STARTCHAR j
ENCODING 106
SWIDTH 236 0
DWIDTH 9 0
BBX 12 33 -4 -7
BITMAP
000029
00007F
00007F
00002E
000000
000000
000000
0000FC
0001FC
0001F8
0002F8
0003F4
0003F4
0007F0
0007E0
000BE0
000BD0
000FD0
000FC0
001FC0
001F80
002F80
002F40
003F40
003F00
007F00
007E00
00BE00
00FD00
02FC00
EFF800
FFE000
BE4000
ENDCHAR
STARTCHAR k
ENCODING 107
SWIDTH 496 0
DWIDTH 18 0
BBX 18 27 0 0
BITMAP
003F400000
003F400000
007F000000
007E000000
00BE000000
00BD000000
00FD000000
00FC000000
01FC001FE0
01F8007F80
02F801FE00
02F407F800
03F42FE000
03F0BF8000
07F2FD0000
07EBF40000
0BFFF00000
0BFFF40000
0FFEFC0000
0FF0FE0000
1FC07F0000
1F802F8000
2F801FD000
3F400BE000
3F4003F400
7F0002FC00
7F0000FD00
ENDCHAR
STARTCHAR l
ENCODING 108
SWIDTH 240 0
DWIDTH 9 0
BBX 8 27 1 0
BITMAP
00BE
00BD
00FD
00FC
01FC
01F8
02F8
02F4
03F4
03F0
07F0
07E0
0BE0
0FD0
0FC0
1FC0
1F80
2F80
2F40
3F40
3F00
7F00
7E00
BE00
BD00
FD00
FC00
ENDCHAR
STARTCHAR m
ENCODING 109
SWIDTH 854 0
DWIDTH 31 0
BBX 29 19 0 0
BITMAP
01F82BE8006FE000
01F9FFFF07FFFD00
02FFFBFF9FEBFF00
02FF407FFD00BF40
03F8001FF4003F40
03F0000FE0002F80
07F0000FD0002F80
07E0000FC0002F40
0BE0001FC0003F40
0BD0002F80003F00
0FD0002F80007F00
1FC0003F40007E00
1FC0003F4000BE00
2F80007F0000BD00
2F80007F0000FD00
3F4000BE0000FC00
3F0000BE0001FC00
7F0000FD0001F800
7E0000FC0002F800
ENDCHAR
STARTCHAR n
ENCODING 110
SWIDTH 540 0
DWIDTH 19 0
BBX 18 19 0 0
BITMAP
01F81BE800
01F9FFFE00
02FBFAFF80
02FF402FC0
03FD001FC0
03F4000FD0
07F0000FC0
07E0000FC0
0BE0001FC0
0BD0001F80
0FD0002F80
0FC0002F40
1FC0003F40
2F80003F00
2F80007F00
3F40007E00
3F4000BE00
7F0000FD00
7E0000FC00
ENDCHAR
STARTCHAR o
ENCODING 111
SWIDTH 558 0
DWIDTH 20 0
BBX 18 19 1 0
BITMAP
0006FF9000
006FFFF400
01FFEBFD00
07F900BF00
0BE0002F80
1FC0001FC0
2F80000FD0
3F00000FD0
7F00000FD0
BE00000FD0
BE00000FC0
BE00001F80
7E00002F80
7F00007F00
3F4000FE00
1FD007F800
0BFEBFE000
02FFFF8000
006FF90000
ENDCHAR
STARTCHAR p
ENCODING 112
SWIDTH 549 0
DWIDTH 20 0
BBX 19 26 -1 -7
BITMAP
007E1BF900
007EBFFF80
00BFFEBFE0
00BFD00BF4
00FE0003F8
00FC0002F8
01FC0001FC
01F80001FC
02F80001FC
02F40001F8
03F40002F8
07F00003F4
07E00007F0
0BE0000BE0
0BF0002FD0
0FF800BF80
0FFFABFE00
1FDFFFF800
1FC1BF9000
2F80000000
2F40000000
3F40000000
3F00000000
7F00000000
7E00000000
BE00000000
ENDCHAR
STARTCHAR q
ENCODING 113
SWIDTH 556 0
DWIDTH 20 0
BBX 18 26 1 -7
BITMAP
000AFE47E0
007FFFDBD0
01FFEBFFD0
07F900BFC0
0FE0002FC0
1FC0001F80
2F80002F80
3F40002F40
7F00003F40
7E00003F00
BE00007F00
BE00007E00
BE0000BE00
7E0000FD00
7F4002FC00
2FC00BFC00
1FFABFF800
07FFFAF800
01BF92F400
000002F400
000003F000
000007F000
000007E000
00000BE000
00000BD000
00000FD000
ENDCHAR
STARTCHAR r
ENCODING 114
SWIDTH 333 0
DWIDTH 12 0
BBX 13 19 0 0
BITMAP
01F86F80
01FAFF80
02FFFF40
02FF9500
03FD0000
03F40000
07F00000
07E00000
0BE00000
0BD00000
0FD00000
0FC00000
1FC00000
2F800000
2F800000
3F400000
3F400000
7F000000
7E000000
ENDCHAR
STARTCHAR s
ENCODING 115
SWIDTH 504 0
DWIDTH 18 0
BBX 16 19 1 0
BITMAP
001BFE40
00BFFFE0
03FFAFF8
0BF402FD
0FD000BE
0FC00069
0FD00000
0BF90000
03FFE400
00BFFF40
0006FFE0
00001BF0
000003F4
FC0002F4
FD0003F4
BF401BF0
3FFAFFD0
0BFFFF40
01BFE400
ENDCHAR
STARTCHAR t
ENCODING 116
SWIDTH 321 0
DWIDTH 12 0
BBX 11 24 1 0
BITMAP
007F00
007E00
00BE00
00BD00
00FD00
7FFFF8
BFFFF4
6AFEA0
02F800
02F400
03F400
03F000
07F000
07E000
0BE000
0BD000
0FD000
0FC000
1F8000
1F8000
1FC000
1FFA00
0BFE00
02FD00
ENDCHAR
STARTCHAR u
ENCODING 117
SWIDTH 539 0
DWIDTH 19 0
BBX 17 19 2 0
BITMAP
0FC0002F40
1FC0003F40
1F80003F00
2F80007F00
2F40007E00
3F4000BE00
3F0000BD00
7F0000FD00
7E0000FC00
BE0001FC00
BD0002F800
FD0002F800
FC0003F400
FC0003F400
FD000BF000
BE007FE000
7FEBFFE000
2FFFFBD000
06FE4BD000
ENDCHAR
STARTCHAR v
ENCODING 118
SWIDTH 474 0
DWIDTH 17 0
BBX 16 19 2 0
BITMAP
FC0000FD
BD0001FC
BD0003F4
7E0007F0
7E000BD0
3F001FC0
2F002F40
2F407F00
1F40BD00
1F81FC00
0F82F400
0BC3F000
0BCBD000
07DFC000
07FF4000
03FF0000
03FD0000
02FC0000
01F40000
ENDCHAR
STARTCHAR w
ENCODING 119
SWIDTH 733 0
DWIDTH 26 0
BBX 25 19 2 0
BITMAP
BD0003E0002F80
BD000BF0003F40
7D000FF0007E00
7E001FF400BD00
7E003FF401FC00
3E007DF402F400
3E00FCF803F000
3F01F4F807E000
2F03F0BC0FC000
2F07D0BC1F8000
2F0BC07C2F4000
2F5F407D3E0000
1F6F007DBD0000
1FBE003EF80000
1FFC003FF40000
0FF8002FF00000
0FF0002FD00000
0FE0001FC00000
0BC0001F800000
ENDCHAR
STARTCHAR x
ENCODING 120
SWIDTH 485 0
DWIDTH 17 0
BBX 19 19 -1 0
BITMAP
01FC0007F4
00FD001FE0
007F003F80
003F40BF00
002F81FD00
000FC7F400
000BEFE000
0003FF8000
0002FF0000
0001FD0000
0007FE0000
000FFF0000
002FAF8000
00BF0FC000
01FD0BE000
07F407F000
0FE002F800
2FC001FC00
BF4000FE00
ENDCHAR
STARTCHAR y
ENCODING 121
SWIDTH 463 0
DWIDTH 17 0
BBX 20 26 -2 -7
BITMAP
00FD0000FD
00BD0002FC
00BE0003F4
007E000BE0
007F000FD0
003F002F80
003F403F40
002F40BE00
002F80FD00
001F82F800
001FC3F000
000FCBE000
000BDFC000
000BEF8000
0007FF0000
0007FE0000
0003FC0000
0003F40000
0003F00000
000BD00000
001FC00000
002F400000
01BE000000
7FFC000000
7FF4000000
7F80000000
ENDCHAR
STARTCHAR z
ENCODING 122
SWIDTH 485 0
DWIDTH 17 0
BBX 18 19 -1 0
BITMAP
00FFFFFFF0
00FFFFFFF0
01AAAABFE0
0000007F80
000000FE00
000003FC00
00000BF000
00002FD000
0000BF4000
0002FD0000
000BF40000
001FE00000
007F800000
01FE000000
07F8000000
0FE0000000
2FEAAAA900
3FFFFFFE00
7FFFFFFD00
ENDCHAR
STARTCHAR braceleft
ENCODING 123
SWIDTH 333 0
DWIDTH 12 0
BBX 13 34 1 -6
BITMAP
00000640
00006F80
0001FE00
0007F400
000FE000
001FC000
002F8000
003F4000
003F4000
003F0000
007F0000
00BE0000
00BD0000
01FC0000
1BF40000
BFD00000
FF400000
BFC00000
0BE00000
07F00000
03F00000
03F00000
07F00000
07E00000
0BE00000
0BE00000
0BD00000
0BD00000
0BE00000
07E00000
03F40000
01FD0000
007F0000
000A0000
ENDCHAR
STARTCHAR bar
ENCODING 124
SWIDTH 241 0
DWIDTH 9 0
BBX 8 31 0 -5
BITMAP
002E
003E
003E
007D
007D
00BC
00BC
00B8
00F8
00F4
01F4
01F0
02F0
02E0
03E0
03E0
07D0
07D0
0BC0
0BC0
0B80
0F80
0F40
1F40
1F00
2F00
2E00
3E00
3E00
7D00
7D00
ENDCHAR
STARTCHAR braceright
ENCODING 125
SWIDTH 333 0
DWIDTH 12 0
BBX 13 34 -2 -6
BITMAP
00280000
003F4000
001FD000
0007F000
0002F400
0002F400
0002F800
0002F400
0002F400
0003F400
0003F000
0003F000
0003F000
0003F400
0002FD00
0000BF80
00007F80
0002FE40
000BE000
001FC000
002F8000
003F4000
003F0000
007F0000
007F0000
007E0000
00BE0000
00FD0000
01FC0000
03F40000
0BE00000
7FC00000
FE000000
A4000000
ENDCHAR
STARTCHAR asciitilde
ENCODING 126
SWIDTH 664 0
DWIDTH 24 0
BBX 20 7 2 7
BITMAP
01BE400019
0BFFE0003E
2FFFFC007D
7F41FF41FC
BD007FFFF4
F8000BFFD0
500001AA00
ENDCHAR
STARTCHAR uni00A0
ENCODING 160
SWIDTH 245 0
DWIDTH 9 0
BBX 1 1 0 0
BITMAP
00
ENDCHAR
STARTCHAR exclamdown
ENCODING 161
SWIDTH 241 0
DWIDTH 9 0
BBX 9 25 -1 -6
BITMAP
002E00
007F40
007F00
002900
000000
000000
000000
00FC00
00F800
01F800
02F400
02F400
03F000
03F000
07E000
07E000
0BD000
0FD000
0FC000
1FC000
1F8000
2F8000
2F4000
3F4000
7F0000
ENDCHAR
STARTCHAR cent
ENCODING 162
SWIDTH 535 0
DWIDTH 19 0
BBX 17 27 1 -4
BITMAP
00002F8000
00002F4000
00003F4000
00007F0000
0006FF9000
002FFFF800
01FFAAFE00
03F8007F00
0BE0002F40
1FC0001F80
2F80001A80
3F40000000
3F00000000
7F00000000
7E00000000
7E00000000
7E00001400
7F0000BD00
3F4001FC00
2FC007F400
0FFABFE000
07FFFF4000
00BFE40000
002F800000
002F400000
003F400000
003F000000
ENDCHAR
STARTCHAR sterling
ENCODING 163
SWIDTH 568 0
DWIDTH 20 0
BBX 21 26 0 0
BITMAP
000006FE8000
00007FFFF400
0001FFEFFD00
0003FD01FE00
000BF0007F00
000FD0003F40
001FC0003F40
002F80000000
002F80000000
003F40000000
003F40000000
003F40000000
0FFFFFD00000
0FFFFFD00000
1AFFAA800000
00BE00000000
00BE00000000
00FD00000000
00FD00000000
01FC00000000
01F800000000
03F400000000
0BF000000000
AFFAAAAAA000
FFFFFFFFE000
FFFFFFFFD000
ENDCHAR
STARTCHAR currency
ENCODING 164
SWIDTH 696 0
DWIDTH 25 0
BBX 25 23 0 0
BITMAP
00100000000000
007806FF901E00
01FD7FFFFD7F80
00FFFFFFFFFF40
007FF901BFFD00
002FD0001FF400
007F400007F400
00FD000003F400
02F8000002F800
03F0000001F800
07E0000001F800
07E0000001F800
0BD0000001F800
0BD0000002F400
0BD0000003F000
0BE000000BE000
07F000001FC000
03F800007F4000
07FD0001FF0000
1FFF901BFF8000
7FFFFFFFFFE000
3F4BFFFF4FD000
1801BFE4034000
ENDCHAR
STARTCHAR yen
ENCODING 165
SWIDTH 514 0
DWIDTH 19 0
BBX 20 26 1 0
BITMAP
0FE00001FD
0BF00003F8
07F0000BF4
03F4001FE0
02F8002FC0
01FC007F40
00FD00FE00
00BE02FC00
007E07F400
003F0FE000
002F5FC000
001FBF4000
000FFE0000
2FFFFFFE00
2FFFFFFD00
155BE55400
000BE00000
000FD00000
BFFFFFF800
BFFFFFF800
156FD55000
002F800000
002F800000
003F400000
003F400000
007F000000
ENDCHAR
STARTCHAR brokenbar
ENCODING 166
SWIDTH 237 0
DWIDTH 9 0
BBX 9 31 0 -5
BITMAP
003F40
003F00
007F00
007E00
00BE00
00BD00
00FD00
00FC00
01FC00
01F800
02F800
02F400
03F400
03F000
000000
000000
000000
0BD000
0FD000
1FC000
1FC000
2F8000
2F8000
3F4000
3F4000
7F0000
7E0000
BE0000
BD0000
FD0000
FC0000
ENDCHAR
STARTCHAR section
ENCODING 167
SWIDTH 599 0
DWIDTH 22 0
BBX 22 35 -1 -9
BITMAP
000006FF9000
0000BFFFFD00
0003FFABFF40
000FF4007F80
001FD0001FD0
002F80000BD0
003F40000BE0
003F40000690
003F80000000
002FE0000000
001FFE400000
000BFFF40000
007FFFFF8000
01FE46FFF400
02F8001FFC00
07F00002FE00
07E00000BF00
07E000003F00
07F000003F00
03FD00007F00
01FF9000FD00
007FFE47F800
001BFFFFE000
0001BFFF4000
000006FF8000
0000006FD000
0000000FE000
6900000BE000
7E00000BE000
7F00000FD000
3F80002FC000
2FE001BF8000
0BFEAFFE0000
02FFFFF40000
006BFE400000
ENDCHAR
STARTCHAR dieresis
ENCODING 168
SWIDTH 410 0
DWIDTH 15 0
BBX 11 4 4 22
BITMAP
6800A0
FD02F8
FD02F8
B801F4
ENDCHAR
STARTCHAR copyright
ENCODING 169
SWIDTH 767 0
DWIDTH 28 0
BBX 25 26 2 0
BITMAP
00001AFF900000
0001BFFFFD0000
000BF941BF8000
002F800007E000
00FD000001F400
02F00BF9007C00
07C07FFF802D00
0F41FE5BD01E00
2E02F003E00F00
3C07D002F00B40
780BC001A00B40
B40B8000000B40
B40F8000000B40
F00F8000000B40
F00F4000000F00
F00F4006801E00
F40F800BC02D00
B40BC00F807C00
7807F57F40F400
3D01FFFD02E000
2E006FE40BD000
0F8000002F4000
07E00001FD0000
01FE506FF40000
002FFFFF400000
0006BFA4000000
ENDCHAR
STARTCHAR ordfeminine
ENCODING 170
SWIDTH 438 0
DWIDTH 16 0
BBX 12 14 3 12
BITMAP
006F90
03FFF8
0BFAFD
0F807E
00003E
00007E
02BFFD
1FFFFD
3F90BD
7E00BC
7D01FC
7F5BF8
2FFFF8
0BF8F8
ENDCHAR
STARTCHAR guillemotleft
ENCODING 171
SWIDTH 459 0
DWIDTH 17 0
BBX 15 14 1 3
BITMAP
000BC1F8
002F43E0
00BD0FC0
01F82F40
07E0BD00
1FC2F800
3F47E000
7E0BD000
2F43E000
0F81F400
0BC0F800
03E07D00
01F02E00
00B41F00
ENDCHAR
STARTCHAR logicalnot
ENCODING 172
SWIDTH 541 0
DWIDTH 20 0
BBX 15 7 2 7
BITMAP
7FFFFFFC
7FFFFFF8
AAAAABF8
000003F4
000003F0
000007F0
000007E0
ENDCHAR
STARTCHAR uni00AD
ENCODING 173
SWIDTH 272 0
DWIDTH 10 0
BBX 10 3 0 9
BITMAP
7FFFD0
7FFFC0
6AAA80
ENDCHAR
STARTCHAR registered
ENCODING 174
SWIDTH 767 0
DWIDTH 28 0
BBX 25 26 2 0
BITMAP
00001AFF900000
0001BFFFFD0000
000BF945BF8000
002F80000BE000
00FD000001F400
02F0BFF9007C00
07C0BFFFC02D00
0F40F95BE01E00
2E00F402F00F00
3C01F401F00B40
7801F002E00B40
B402F01BD00B40
B402FFFF400B40
F003FFFE000B40
F003E56F400F00
F003D00B801E00
F407C00B802D00
B407C00B807C00
780B800F80F400
3D0B800F82E000
2E0000000BC000
0F8000002F4000
07E00001FD0000
01FE506FE40000
002FFFFF400000
0006BFA4000000
ENDCHAR
STARTCHAR macron
ENCODING 175
SWIDTH 449 0
DWIDTH 16 0
BBX 12 3 4 22
BITMAP
7FFFFF
7FFFFF
6AAAA9
ENDCHAR
STARTCHAR degree
ENCODING 176
SWIDTH 367 0
DWIDTH 13 0
BBX 9 10 4 16
BITMAP
06F800
1FFE00
7E5F40
B80B80
B40780
B40B80
BC2F40
3FFE00
1FF800
014000
ENDCHAR
STARTCHAR plusminus
ENCODING 177
SWIDTH 522 0
DWIDTH 19 0
BBX 18 23 0 0
BITMAP
0000054000
00000F8000
00001F8000
00001F4000
00002F4000
00002F4000
00003F0000
00003F0000
0BFFFFFFF0
0FFFFFFFE0
0AAAFEAA90
0000BD0000
0000BC0000
0000FC0000
0000F80000
0001F80000
0001F40000
0002F40000
0000000000
0000000000
2AAAAAA900
3FFFFFFC00
7FFFFFFC00
ENDCHAR
STARTCHAR uni00B2
ENCODING 178
SWIDTH 360 0
DWIDTH 13 0
BBX 12 14 1 12
BITMAP
006FE0
02FFFD
07F5BE
0BD03F
0A403F
0000BE
0002FC
000BF0
002F80
01FE00
07F400
1FD554
3FFFFC
7FFFFC
ENDCHAR
STARTCHAR uni00B3
ENCODING 179
SWIDTH 360 0
DWIDTH 13 0
BBX 11 14 2 12
BITMAP
01BF90
0BFFF4
2F95FC
1500BC
0002F8
00FFD0
00FF80
0007F0
0001F0
0001F4
F802F0
BE5BE0
7FFF80
0BF900
ENDCHAR
STARTCHAR acute
ENCODING 180
SWIDTH 309 0
DWIDTH 11 0
BBX 8 5 4 22
BITMAP
02FD
0BF4
1FD0
7F40
AD00
ENDCHAR
STARTCHAR mu
ENCODING 181
SWIDTH 554 0
DWIDTH 20 0
BBX 20 26 -1 -7
BITMAP
003F4000BE
007F0000BD
007F0000FD
00BE0001FC
00BE0001FC
00FD0002F8
00FD0002F8
01FC0003F4
01FC0003F4
02F80007F0
02F80007E0
03F4000BE0
03F4000BD0
07F4000FD0
07F8002FC0
0BFD00BFC0
0BFFABFF80
0FFFFFEF80
0FC6FE1F40
1FC0000000
2F80000000
2F80000000
3F40000000
3F00000000
7F00000000
7E00000000
ENDCHAR
STARTCHAR paragraph
ENCODING 182
SWIDTH 479 0
DWIDTH 17 0
BBX 15 26 2 0
BITMAP
0006FFFC
007FFFF8
02FFFFF8
07FFFFF4
1FFFFFF4
2FFFFFF0
3FFFFFF0
7FFFFFE0
7FFFFFE0
BFFFFFD0
7FFFFFD0
7FFFFFC0
3FFFFFC0
1FFFFF80
0BFFFF80
02FFFF40
001ABF00
00007F00
00007E00
0000BE00
0000BD00
0000FD00
0000FC00
0001FC00
0001F800
0002F800
ENDCHAR
STARTCHAR periodcentered
ENCODING 183
SWIDTH 257 0
DWIDTH 9 0
BBX 4 4 3 11
BITMAP
7D
FE
FE
78
ENDCHAR
STARTCHAR cedilla
ENCODING 184
SWIDTH 245 0
DWIDTH 9 0
BBX 6 7 -1 -7
BITMAP
2E00
3F80
17E0
02E0
0BE0
FF80
F900
ENDCHAR
STARTCHAR uni00B9
ENCODING 185
SWIDTH 360 0
DWIDTH 13 0
BBX 7 14 4 12
BITMAP
0068
1BF8
BFF8
FAF4
41F4
02F0
02F0
03E0
03E0
07D0
07D0
0BC0
0BC0
0F80
ENDCHAR
STARTCHAR ordmasculine
ENCODING 186
SWIDTH 445 0
DWIDTH 16 0
BBX 13 14 3 12
BITMAP
006FD000
02FFF800
0BFAFE00
1F803F00
2F002F40
3E001F40
7E001F40
7D001F40
7D002F00
7E003F00
3F00BD00
2FE6F800
0BFFE000
01BE4000
ENDCHAR
STARTCHAR guillemotright
ENCODING 187
SWIDTH 459 0
DWIDTH 17 0
BBX 15 14 0 3
BITMAP
03D03D00
01F01F00
00F80F80
007D0BC0
003E03E0
002F42F4
000FC1F8
002F82F8
007E07E0
00FC1FC0
03F03F00
0BD0BD00
2F42F400
7D07D000
ENDCHAR
STARTCHAR onequarter
ENCODING 188
SWIDTH 715 0
DWIDTH 26 0
BBX 21 26 3 0
BITMAP
006D00000000
1BFC00000000
7FFC00000000
BAF800006000
40F80001F400
01F40003E000
01F4000BC000
02F0002F4000
02F0007D0000
03E000F80000
03E003E00000
07D00BC00000
07D01F407F00
0BC07D00FE00
0000F803FE00
0002F00BFD00
000BC02F7D00
001F407D7C00
007E01F4BC00
00F807E0F800
02F00F80F800
0BD02FFFFF40
1F402FFFFF00
06001556F500
00000002F000
00000003E000
ENDCHAR
STARTCHAR onehalf
ENCODING 189
SWIDTH 757 0
DWIDTH 27 0
BBX 22 26 3 0
BITMAP
006C00000000
1BFC00000000
BFF800000000
BAF800018000
40F40003E000
01F4000BC000
02F0002F4000
02F0007D0000
03E000F80000
03E002E00000
07D00BC00000
07D01F400000
0BC07D06F900
0BC0F82FFF80
0002F0BE5BD0
000BD1F807E0
001F41A407D0
007E00000FC0
00F800002F80
02F00001FE00
07D00007F800
1F40001FD000
3E0000BE0000
180002F95540
00000BFFFF80
00000BFFFF80
ENDCHAR
STARTCHAR threequarters
ENCODING 190
SWIDTH 759 0
DWIDTH 27 0
BBX 23 26 2 0
BITMAP
006FA0000000
02FFFC000000
0BE5BE000000
0BC03F000180
00003E0003E0
0001BD000BC0
007FF4002F00
007FE0007D00
0001F801F800
0000BC03E000
7E00BC0BC000
3F96F82F4000
1FFFE07D02F8
06FE40F80BF4
000002E01FF4
00000BC07FF0
00001F40FAF0
00007D03E3E0
0000F80BC3E0
0002F02F07D0
000BD07D07D0
001F40FFFFFC
003E01FFFFF8
001800555F90
000000001F80
000000001F40
ENDCHAR
STARTCHAR questiondown
ENCODING 191
SWIDTH 463 0
DWIDTH 17 0
BBX 14 26 -1 -7
BITMAP
00002E00
00003F40
00003F40
00001900
00000000
00000000
00000000
0000FD00
0001FC00
0002F800
0007F400
001FE000
007F8000
01FE0000
07F80000
0FE00000
2FC00000
3F400000
7F000000
BE000150
BE0007F0
7F000BE0
3F802FD0
2FFFFF80
0BFFFE00
01BFA000
ENDCHAR
STARTCHAR Agrave
ENCODING 192
SWIDTH 637 0
DWIDTH 23 0
BBX 22 32 -1 0
BITMAP
000002FC0000
000000FD0000
0000007F0000
0000001F8000
0000000A8000
000000000000
0000002F4000
0000007F8000
000000FFC000
000001FFC000
000003FBD000
000007E7D000
00000FD7E000
00002F83F000
00003F03F000
0000BE02F400
0000FC02F400
0002F401F800
0007F000F800
000BD000FC00
001FC000BD00
002F4000BD00
007FFFFFFE00
00FFFFFFFE00
01FEAAAABF00
03F400003F40
07E000002F40
0FD000002F80
2F8000001F80
3F4000001FC0
BE0000000FC0
FD0000000FD0
ENDCHAR
STARTCHAR Aacute
ENCODING 193
SWIDTH 637 0
DWIDTH 23 0
BBX 22 32 -1 0
BITMAP
000000002FD0
00000000BF40
00000002FC00
0000000BE000
0000000B8000
000000000000
0000002F4000
0000007F8000
000000FFC000
000001FFC000
000003FBD000
000007E7D000
00000FD7E000
00002F83F000
00003F03F000
0000BE02F400
0000FC02F400
0002F401F800
0007F000F800
000BD000FC00
001FC000BD00
002F4000BD00
007FFFFFFE00
00FFFFFFFE00
01FEAAAABF00
03F400003F40
07E000002F40
0FD000002F80
2F8000001F80
3F4000001FC0
BE0000000FC0
FD0000000FD0
ENDCHAR
STARTCHAR Acircumflex
ENCODING 194
SWIDTH 637 0
DWIDTH 23 0
BBX 22 32 -1 0
BITMAP
00000007D000
0000002FF400
000000BEBD00
000007F43F40
00000BD01F80
000000000000
0000002F4000
0000007F8000
000000FFC000
000001FFC000
000003FBD000
000007E7D000
00000FD7E000
00002F83F000
00003F03F000
0000BE02F400
0000FC02F400
0002F401F800
0007F000F800
000BD000FC00
001FC000BD00
002F4000BD00
007FFFFFFE00
00FFFFFFFE00
01FEAAAABF00
03F400003F40
07E000002F40
0FD000002F80
2F8000001F80
3F4000001FC0
BE0000000FC0
FD0000000FD0
ENDCHAR
STARTCHAR Atilde
ENCODING 195
SWIDTH 637 0
DWIDTH 23 0
BBX 22 33 -1 0
BITMAP
0000005400A0
000003FE02E0
00000BFFEBE0
00001F46FFC0
00001E007E00
000000000000
000000000000
0000002F4000
0000007F8000
000000FFC000
000001FFC000
000003FBD000
000007E7D000
00000FD7E000
00002F83F000
00003F03F000
0000BE02F400
0000FC02F400
0002F401F800
0007F000F800
000BD000FC00
001FC000BD00
002F4000BD00
007FFFFFFE00
00FFFFFFFE00
01FEAAAABF00
03F400003F40
07E000002F40
0FD000002F80
2F8000001F80
3F4000001FC0
BE0000000FC0
FD0000000FD0
ENDCHAR
STARTCHAR Adieresis
ENCODING 196
SWIDTH 637 0
DWIDTH 23 0
BBX 22 31 -1 0
BITMAP
000002900640
00000BF01FC0
00000BF01FD0
000007D00B80
000000000000
0000002F4000
0000007F8000
000000FFC000
000001FFC000
000003FBD000
000007E7D000
00000FD7E000
00002F83F000
00003F03F000
0000BE02F400
0000FC02F400
0002F401F800
0007F000F800
000BD000FC00
001FC000BD00
002F4000BD00
007FFFFFFE00
00FFFFFFFE00
01FEAAAABF00
03F400003F40
07E000002F40
0FD000002F80
2F8000001F80
3F4000001FC0
BE0000000FC0
FD0000000FD0
ENDCHAR
STARTCHAR Aring
ENCODING 197
SWIDTH 637 0
DWIDTH 23 0
BBX 22 35 -1 0
BITMAP
000000069000
0000001FF800
0000007D2D00
000000B40E00
000000B01E00
000000B42D00
0000003EF800
0000001BE000
000000000000
0000002F4000
0000007F8000
000000FFC000
000001FFC000
000003FBD000
000007E7D000
00000FD7E000
00002F83F000
00003F03F000
0000BE02F400
0000FC02F400
0002F401F800
0007F000F800
000BD000FC00
001FC000BD00
002F4000BD00
007FFFFFFE00
00FFFFFFFE00
01FEAAAABF00
03F400003F40
07E000002F40
0FD000002F80
2F8000001F80
3F4000001FC0
BE0000000FC0
FD0000000FD0
ENDCHAR
STARTCHAR AE
ENCODING 198
SWIDTH 911 0
DWIDTH 33 0
BBX 36 26 -2 0
BITMAP
0000000003FFFFFFFE
000000000BFFFFFFFD
000000002FFEAAAAA8
000000007FFD000000
00000000FEFC000000
00000002F9FC000000
0000000BF1FC000000
0000001FD1F8000000
0000003F82F8000000
000000BF02F4000000
000002FD02F4000000
000007F803FFFFFF40
00000FF003FFFFFF00
00002FD007FAAAAA00
0000BF4007E0000000
0001FE0007E0000000
0003FC000BE0000000
000BFFFFFFD0000000
002FFFFFFFD0000000
007FFFFFFFC0000000
00FF40000FC0000000
02FD00001FC0000000
0BF800001F80000000
1FE000001FEAAAAA40
3FC000002FFFFFFF40
BF4000002FFFFFFF40
ENDCHAR
STARTCHAR Ccedilla
ENCODING 199
SWIDTH 636 0
DWIDTH 23 0
BBX 21 33 2 -7
BITMAP
00006FF90000
0007FFFFD000
002FFEBFF400
00BF9007FC00
01FD0000FE00
07F80000BF00
0BE000007F00
1FD000003F40
2F8000001A40
3F4000000000
3F4000000000
7F0000000000
BE0000000000
BE0000000000
BE0000000000
BD0000000000
FD0000000000
FD0000015400
BE000003F400
BE000007F000
7F00000FE000
3F80002FC000
1FE001FF4000
0BFFAFFD0000
01FFFFE00000
002BFA400000
000B80000000
000FE0000000
0005F4000000
0000F8000000
0002F4000000
003FE0000000
003E40000000
ENDCHAR
STARTCHAR Egrave
ENCODING 200
SWIDTH 556 0
DWIDTH 20 0
BBX 20 33 1 0
BITMAP
0000BF0000
00002F8000
00000FC000
000007E000
000002E000
0000000000
0000000000
00BFFFFFFF
00BFFFFFFF
00FFAAAAAA
00FD000000
01FC000000
01F8000000
02F8000000
02F4000000
03F4000000
03F0000000
07F0000000
07FFFFFF80
0BFFFFFF40
0BFAAAAA40
0FD0000000
1FC0000000
1FC0000000
2F80000000
2F80000000
3F40000000
3F40000000
7F00000000
7F00000000
BFAAAAAA40
BFFFFFFF00
FFFFFFFF00
ENDCHAR
STARTCHAR Eacute
ENCODING 201
SWIDTH 556 0
DWIDTH 20 0
BBX 20 33 1 0
BITMAP
0000000BF4
0000002FD0
000000BF40
000001FC00
000002F000
0000000000
0000000000
00BFFFFFFF
00BFFFFFFF
00FFAAAAAA
00FD000000
01FC000000
01F8000000
02F8000000
02F4000000
03F4000000
03F0000000
07F0000000
07FFFFFF80
0BFFFFFF40
0BFAAAAA40
0FD0000000
1FC0000000
1FC0000000
2F80000000
2F80000000
3F40000000
3F40000000
7F00000000
7F00000000
BFAAAAAA40
BFFFFFFF00
FFFFFFFF00
ENDCHAR
STARTCHAR Ecircumflex
ENCODING 202
SWIDTH 556 0
DWIDTH 20 0
BBX 20 33 1 0
BITMAP
000001F800
00000BFE00
00002FAF40
0000FE0BD0
0002F807E0
0000000000
0000000000
00BFFFFFFF
00BFFFFFFF
00FFAAAAAA
00FD000000
01FC000000
01F8000000
02F8000000
02F4000000
03F4000000
03F0000000
07F0000000
07FFFFFF80
0BFFFFFF40
0BFAAAAA40
0FD0000000
1FC0000000
1FC0000000
2F80000000
2F80000000
3F40000000
3F40000000
7F00000000
7F00000000
BFAAAAAA40
BFFFFFFF00
FFFFFFFF00
ENDCHAR
STARTCHAR Edieresis
ENCODING 203
SWIDTH 556 0
DWIDTH 20 0
BBX 20 32 1 0
BITMAP
0000A40190
0001FC03F4
0002FC07F4
0000F402E0
0000000000
0000000000
00BFFFFFFF
00BFFFFFFF
00FFAAAAAA
00FD000000
01FC000000
01F8000000
02F8000000
02F4000000
03F4000000
03F0000000
07F0000000
07FFFFFF80
0BFFFFFF40
0BFAAAAA40
0FD0000000
1FC0000000
1FC0000000
2F80000000
2F80000000
3F40000000
3F40000000
7F00000000
7F00000000
BFAAAAAA40
BFFFFFFF00
FFFFFFFF00
ENDCHAR
STARTCHAR Igrave
ENCODING 204
SWIDTH 268 0
DWIDTH 10 0
BBX 9 33 1 0
BITMAP
07F400
02F800
00BD00
007F00
001E40
000000
000000
007F00
00BE00
00BE00
00FD00
00FD00
01FC00
01FC00
02F800
02F800
03F400
03F400
07F000
07F000
0BE000
0BE000
0FD000
0FD000
1FC000
1FC000
2F8000
2F8000
3F4000
3F4000
7F0000
7F0000
BE0000
ENDCHAR
STARTCHAR Iacute
ENCODING 205
SWIDTH 268 0
DWIDTH 10 0
BBX 13 33 1 0
BITMAP
0000BF40
0001FD00
0007F400
001FD000
002B4000
00000000
00000000
007F0000
00BE0000
00BE0000
00FD0000
00FD0000
01FC0000
01FC0000
02F80000
02F80000
03F40000
03F40000
07F00000
07F00000
0BE00000
0BE00000
0FD00000
0FD00000
1FC00000
1FC00000
2F800000
2F800000
3F400000
3F400000
7F000000
7F000000
BE000000
ENDCHAR
STARTCHAR Icircumflex
ENCODING 206
SWIDTH 268 0
DWIDTH 10 0
BBX 12 33 1 0
BITMAP
001F80
007FE0
02F9F8
0BE0BE
1F803F
000000
000000
007F00
00BE00
00BE00
00FD00
00FD00
01FC00
01FC00
02F800
02F800
03F400
03F400
07F000
07F000
0BE000
0BE000
0FD000
0FD000
1FC000
1FC000
2F8000
2F8000
3F4000
3F4000
7F0000
7F0000
BE0000
ENDCHAR
STARTCHAR Idieresis
ENCODING 207
SWIDTH 268 0
DWIDTH 10 0
BBX 13 32 1 0
BITMAP
06401A00
1FD03F80
1FD03F80
0B802E00
00000000
00000000
007F0000
00BE0000
00BE0000
00FD0000
00FD0000
01FC0000
01FC0000
02F80000
02F80000
03F40000
03F40000
07F00000
07F00000
0BE00000
0BE00000
0FD00000
0FD00000
1FC00000
1FC00000
2F800000
2F800000
3F400000
3F400000
7F000000
7F000000
BE000000
ENDCHAR
STARTCHAR Eth
ENCODING 208
SWIDTH 655 0
DWIDTH 24 0
BBX 22 26 0 0
BITMAP
000FFFFA4000
001FFFFFE000
001FEABFFD00
002F8001FF00
002F80007F80
003F40001FC0
003F40000BD0
007F00000BE0
007F000007F0
00BE000007F0
00BE000007F0
00FD000007F0
7FFFFE0007F0
7FFFFD000BE0
6AFEA8000BD0
02F800000FD0
02F800001FC0
03F400002F80
03F400007F40
07F00000BE00
07F00002FC00
0BE0000BF400
0BD001BFD000
0FFAAFFF4000
1FFFFFF80000
1FFFFA400000
ENDCHAR
STARTCHAR Ntilde
ENCODING 209
SWIDTH 696 0
DWIDTH 25 0
BBX 24 33 1 0
BITMAP
000001500280
00001FF80B80
00003FFFAF40
00007D1BFE00
0000B801F800
000000000000
000000000000
00BF000000BE
00BF400000FD
00FF800000FC
00FFD00001FC
01FFE00001F8
01FFF40002F8
02FBF80002F4
02F9FC0003F4
03F4FE0003F0
03F4BF0007F0
07F03F4007E0
07F02FC00BE0
0BE01FD00BD0
0BD00BE00FD0
0FD007F41FC0
1FC002F81FC0
1FC001FC2F80
2F8000FE2F80
2F80007F3F40
3F40003FBF40
3F40002FFF00
7F00000FFF00
7F00000BFE00
BE000007FE00
BE000002FD00
FD000001FD00
ENDCHAR
STARTCHAR Ograve
ENCODING 210
SWIDTH 671 0
DWIDTH 24 0
BBX 21 32 2 0
BITMAP
00003F400000
00001FC00000
00000BE00000
000003F00000
000001E40000
000000000000
00006FF90000
0007FFFFD000
001FFFFFF400
00BFD007FC00
01FE0001FE00
03F800007F00
0BF000003F40
0FD000002F40
1FC000002F80
2F4000002F80
3F4000002F80
7F0000002F80
7E0000002F40
BE0000003F40
BE0000003F00
BD0000007F00
BD000000BE00
BE000000FD00
BE000001FC00
7F000003F400
3F40000BF000
2FC0002FD000
0FF401FF4000
07FFFFFD0000
01FFFFE40000
001BFA400000
ENDCHAR
STARTCHAR Oacute
ENCODING 211
SWIDTH 671 0
DWIDTH 24 0
BBX 21 32 2 0
BITMAP
00000007F800
0000001FE000
0000003F8000
000000FE0000
000001B40000
000000000000
00006FF90000
0007FFFFD000
001FFFFFF400
00BFD007FC00
01FE0001FE00
03F800007F00
0BF000003F40
0FD000002F40
1FC000002F80
2F4000002F80
3F4000002F80
7F0000002F80
7E0000002F40
BE0000003F40
BE0000003F00
BD0000007F00
BD000000BE00
BE000000FD00
BE000001FC00
7F000003F400
3F40000BF000
2FC0002FD000
0FF401FF4000
07FFFFFD0000
01FFFFE40000
001BFA400000
ENDCHAR
STARTCHAR Ocircumflex
ENCODING 212
SWIDTH 671 0
DWIDTH 24 0
BBX 21 32 2 0
BITMAP
000000BC0000
000007FF0000
00001FDF8000
0000BF47E000
0000FC02F400
000000000000
00006FF90000
0007FFFFD000
001FFFFFF400
00BFD007FC00
01FE0001FE00
03F800007F00
0BF000003F40
0FD000002F40
1FC000002F80
2F4000002F80
3F4000002F80
7F0000002F80
7E0000002F40
BE0000003F40
BE0000003F00
BD0000007F00
BD000000BE00
BE000000FD00
BE000001FC00
7F000003F400
3F40000BF000
2FC0002FD000
0FF401FF4000
07FFFFFD0000
01FFFFE40000
001BFA400000
ENDCHAR
STARTCHAR Otilde
ENCODING 213
SWIDTH 671 0
DWIDTH 24 0
BBX 21 33 2 0
BITMAP
000015001900
00007FD03D00
0001FFFABC00
0002F47FF400
0002D00BD000
000000000000
000000000000
00006FF90000
0007FFFFD000
001FFFFFF400
00BFD007FC00
01FE0001FE00
03F800007F00
0BF000003F40
0FD000002F40
1FC000002F80
2F4000002F80
3F4000002F80
7F0000002F80
7E0000002F40
BE0000003F40
BE0000003F00
BD0000007F00
BD000000BE00
BE000000FD00
BE000001FC00
7F000003F400
3F40000BF000
2FC0002FD000
0FF401FF4000
07FFFFFD0000
01FFFFE40000
001BFA400000
ENDCHAR
STARTCHAR Odieresis
ENCODING 214
SWIDTH 671 0
DWIDTH 24 0
BBX 21 31 2 0
BITMAP
00006800A000
0000FD02F800
0000FD02F800
0000B801F400
000000000000
00006FF90000
0007FFFFD000
001FFFFFF400
00BFD007FC00
01FE0001FE00
03F800007F00
0BF000003F40
0FD000002F40
1FC000002F80
2F4000002F80
3F4000002F80
7F0000002F80
7E0000002F40
BE0000003F40
BE0000003F00
BD0000007F00
BD000000BE00
BE000000FD00
BE000001FC00
7F000003F400
3F40000BF000
2FC0002FD000
0FF401FF4000
07FFFFFD0000
01FFFFE40000
001BFA400000
ENDCHAR
STARTCHAR multiply
ENCODING 215
SWIDTH 521 0
DWIDTH 19 0
BBX 17 16 1 4
BITMAP
0240000600
0BD0001F40
0BF000BF80
03F802FE00
01FE0BF800
007F7FD000
002FFF4000
000FFD0000
001FF80000
00BFFD0000
02FEBF4000
0BF82FC000
2FD00FE000
FF4007F800
BD0001F400
2400009000
ENDCHAR
STARTCHAR Oslash
ENCODING 216
SWIDTH 671 0
DWIDTH 24 0
BBX 24 29 1 -2
BITMAP
00000000001A
00001BFE407D
0001BFFFF5F4
0007FFFFFFE0
002FF401FF80
007F80003FC0
00FE00007FD0
02F80000FFD0
03F40002EBE0
0BE0000BCBE0
0FD0001F4BE0
0FD0007D0BE0
1FC000F80BE0
2F8002E00BD0
2F800BC00FD0
2F401F401FC0
3F407D001FC0
3F40F8002F80
3F42E0003F40
2F4BC0007F00
2F9F4000FD00
1FFE0002FC00
0FF8000BF400
07F9007FD000
07FFFFFF4000
1FBFFFF90000
3E0AFE900000
B80000000000
500000000000
ENDCHAR
STARTCHAR Ugrave
ENCODING 217
SWIDTH 633 0
DWIDTH 23 0
BBX 21 32 2 0
BITMAP
0000BE000000
00003F400000
00001FC00000
00000BD00000
000002A00000
000000000000
03F400001FC0
07F000002F80
07F000002F80
0BE000003F40
0BE000003F40
0FD000007F00
0FD000007F00
1FC00000BE00
1FC00000BE00
2F800000FD00
2F800000FD00
3F400001FC00
3F400001FC00
7F000002F800
7F000002F800
BE000003F400
BE000003F400
FD000007F000
FD000007F000
FD00000FE000
BE00001FC000
7F40007F8000
3FD002FE0000
1FFFBFF80000
07FFFFD00000
006FF9000000
ENDCHAR
STARTCHAR Uacute
ENCODING 218
SWIDTH 633 0
DWIDTH 23 0
BBX 21 32 2 0
BITMAP
0000000FF400
0000002FC000
000000BE0000
000002F80000
000006E00000
000000000000
03F400001FC0
07F000002F80
07F000002F80
0BE000003F40
0BE000003F40
0FD000007F00
0FD000007F00
1FC00000BE00
1FC00000BE00
2F800000FD00
2F800000FD00
3F400001FC00
3F400001FC00
7F000002F800
7F000002F800
BE000003F400
BE000003F400
FD000007F000
FD000007F000
FD00000FE000
BE00001FC000
7F40007F8000
3FD002FE0000
1FFFBFF80000
07FFFFD00000
006FF9000000
ENDCHAR
STARTCHAR Ucircumflex
ENCODING 219
SWIDTH 633 0
DWIDTH 23 0
BBX 21 32 2 0
BITMAP
000002F40000
00000BFD0000
00002F6F4000
0001FD0FD000
0002F407E000
000000000000
03F400001FC0
07F000002F80
07F000002F80
0BE000003F40
0BE000003F40
0FD000007F00
0FD000007F00
1FC00000BE00
1FC00000BE00
2F800000FD00
2F800000FD00
3F400001FC00
3F400001FC00
7F000002F800
7F000002F800
BE000003F400
BE000003F400
FD000007F000
FD000007F000
FD00000FE000
BE00001FC000
7F40007F8000
3FD002FE0000
1FFFBFF80000
07FFFFD00000
006FF9000000
ENDCHAR
STARTCHAR Udieresis
ENCODING 220
SWIDTH 633 0
DWIDTH 23 0
BBX 21 31 2 0
BITMAP
0000A0019000
0002F807F000
0002F807F000
0001F402E000
000000000000
03F400001FC0
07F000002F80
07F000002F80
0BE000003F40
0BE000003F40
0FD000007F00
0FD000007F00
1FC00000BE00
1FC00000BE00
2F800000FD00
2F800000FD00
3F400001FC00
3F400001FC00
7F000002F800
7F000002F800
BE000003F400
BE000003F400
FD000007F000
FD000007F000
FD00000FE000
BE00001FC000
7F40007F8000
3FD002FE0000
1FFFBFF80000
07FFFFD00000
006FF9000000
ENDCHAR
STARTCHAR Yacute
ENCODING 221
SWIDTH 587 0
DWIDTH 21 0
BBX 20 32 3 0
BITMAP
000000BF40
000002FD00
00000BF000
00002FC000
00002E0000
0000000000
FE000000FF
BF000002FD
3F400007F8
2F80000FF0
1FC0002FD0
0FD0007F80
0BE000FE00
07F002FD00
03F407F400
02F80FE000
01FC2FC000
00FD7F4000
00BEFE0000
007FFC0000
003FF40000
002FE00000
001FC00000
002F800000
002F800000
003F400000
003F400000
007F000000
007F000000
00BE000000
00BE000000
00FD000000
ENDCHAR
STARTCHAR Thorn
ENCODING 222
SWIDTH 578 0
DWIDTH 21 0
BBX 19 26 1 0
BITMAP
00BE000000
00BD000000
00FD000000
00FC000000
01F8000000
02FFFFE400
02FFFFFE00
03FAAAFFC0
03F0001FE0
07F00007F0
07E00003F4
0BE00002F4
0BD00002F4
0FD00003F4
0FC00007F0
1FC0001FE0
1F8000BFC0
2FEAABFF00
2FFFFFF800
3FFFFE4000
3F00000000
7F00000000
7E00000000
BE00000000
BD00000000
FD00000000
ENDCHAR
STARTCHAR germandbls
ENCODING 223
SWIDTH 581 0
DWIDTH 21 0
BBX 19 27 0 0
BITMAP
00006FE400
0002FFFE00
000FFAFF80
002FD01FC0
007F400FD0
00BE000BD0
00FD000FC0
00FC001F80
01FC003F40
01F800BE00
02F801FC00
02F402F400
03F403F000
03F003F000
07F002F400
07E001FC00
0BE0007E00
0BD0002F80
0FD0000BE0
1FC00003F0
1F800002F4
2F800002F4
2F400007F0
3F46401FE0
3F0BFAFFC0
7F0FFFFF40
7E01BFE400
ENDCHAR
STARTCHAR agrave
ENCODING 224
SWIDTH 532 0
DWIDTH 19 0
BBX 16 27 1 0
BITMAP
0007F400
0001FC00
0000BD00
00003F00
00001E40
00000000
00000000
00000000
0006FE40
007FFFF4
02FFABFC
07F801FE
0BE000BE
0A90007F
0000007E
0000007E
006BFFFD
07FFFFFD
1FF955FC
7F8000FC
BE0001F8
FD0002F8
FD0007F4
BF406FF4
7FFFFFF4
2FFFF7F4
06FE43F4
ENDCHAR
STARTCHAR aacute
ENCODING 225
SWIDTH 532 0
DWIDTH 19 0
BBX 17 27 1 0
BITMAP
0000007F80
000001FE00
000007F800
00000FD000
00001B4000
0000000000
0000000000
0000000000
0006FE4000
007FFFF400
02FFABFC00
07F801FE00
0BE000BE00
0A90007F00
0000007E00
0000007E00
006BFFFD00
07FFFFFD00
1FF955FC00
7F8000FC00
BE0001F800
FD0002F800
FD0007F400
BF406FF400
7FFFFFF400
2FFFF7F400
06FE43F400
ENDCHAR
STARTCHAR acircumflex
ENCODING 226
SWIDTH 532 0
DWIDTH 19 0
BBX 16 27 1 0
BITMAP
00000BC0
00007FE0
0001FDF8
000BF07E
001F802F
00000000
00000000
00000000
0006FE40
007FFFF4
02FFABFC
07F801FE
0BE000BE
0A90007F
0000007E
0000007E
006BFFFD
07FFFFFD
1FF955FC
7F8000FC
BE0001F8
FD0002F8
FD0007F4
BF406FF4
7FFFFFF4
2FFFF7F4
06FE43F4
ENDCHAR
STARTCHAR atilde
ENCODING 227
SWIDTH 532 0
DWIDTH 19 0
BBX 18 27 1 0
BITMAP
0001500190
000BFD03D0
001FFFAFC0
002E07FF40
003D00BD00
0000000000
0000000000
0000000000
0006FE4000
007FFFF400
02FFABFC00
07F801FE00
0BE000BE00
0A90007F00
0000007E00
0000007E00
006BFFFD00
07FFFFFD00
1FF955FC00
7F8000FC00
BE0001F800
FD0002F800
FD0007F400
BF406FF400
7FFFFFF400
2FFFF7F400
06FE43F400
ENDCHAR
STARTCHAR adieresis
ENCODING 228
SWIDTH 532 0
DWIDTH 19 0
BBX 17 26 1 0
BITMAP
0006800A00
000FD02F80
001FD03F80
000B801F40
0000000000
0000000000
0000000000
0006FE4000
007FFFF400
02FFABFC00
07F801FE00
0BE000BE00
0A90007F00
0000007E00
0000007E00
006BFFFD00
07FFFFFD00
1FF955FC00
7F8000FC00
BE0001F800
FD0002F800
FD0007F400
BF406FF400
7FFFFFF400
2FFFF7F400
06FE43F400
ENDCHAR
STARTCHAR aring
ENCODING 229
SWIDTH 532 0
DWIDTH 19 0
BBX 16 29 1 0
BITMAP
00000640
00003FF0
0000B878
0000E02C
0001D02C
0000E078
0000BAF4
00002F90
00000000
00000000
0006FE40
007FFFF4
02FFABFC
07F801FE
0BE000BE
0A90007F
0000007E
0000007E
006BFFFD
07FFFFFD
1FF955FC
7F8000FC
BE0001F8
FD0002F8
FD0007F4
BF406FF4
7FFFFFF4
2FFFF7F4
06FE43F4
ENDCHAR
STARTCHAR ae
ENCODING 230
SWIDTH 823 0
DWIDTH 30 0
BBX 29 19 0 0
BITMAP
0006FF9002BF8000
006FFFF82FFFF400
01FFEBFEBFEBFD00
03FD00BFFD00BE00
07F4003FF0003F00
06A0003FD0002F40
0000003F80002F40
0000003F40002F40
006BFFFFFFFFFF40
06FFFFFFFFFFFF40
1FFE95BFAAAAAA00
3FD000BE00000000
7F4000FE00000000
7E0000FF00000000
7E0002FF40000000
7F401BFFD001B000
3FEAFFDBFEAFF400
1FFFFE02FFFFE000
02FF90006FFA4000
ENDCHAR
STARTCHAR ccedilla
ENCODING 231
SWIDTH 512 0
DWIDTH 18 0
BBX 17 26 1 -7
BITMAP
0006FE8000
007FFFF400
01FFABFD00
07F800BE00
0FE0003F40
1FC0002F40
2F40001A40
3F00000000
7E00000000
7E00000000
BE00000000
BE00000000
7E00000000
7F0000BD00
3F4001FC00
2FD00BF400
0BFABFE000
02FFFF4000
006FE40000
003D000000
007F400000
001BD00000
0007D00000
001BC00000
01FF400000
01E9000000
ENDCHAR
STARTCHAR egrave
ENCODING 232
SWIDTH 518 0
DWIDTH 19 0
BBX 17 27 1 0
BITMAP
000BF00000
0003F40000
0001FC0000
00007E0000
00002A0000
0000000000
0000000000
0000000000
0006FE4000
002FFFF400
01FFABFC00
03F900FE00
0BE0007F00
1FD0002F40
2F80002F40
3F40002F40
7FFFFFFF40
7FFFFFFF40
7FAAAAAA00
7E00000000
7E00000000
7F00000000
3F40006000
1FD002F800
0BFEAFF400
02FFFF8000
006FF90000
ENDCHAR
STARTCHAR eacute
ENCODING 233
SWIDTH 518 0
DWIDTH 19 0
BBX 17 27 1 0
BITMAP
000000BF40
000002FD00
00000BF000
00002FC000
00002E0000
0000000000
0000000000
0000000000
0006FE4000
002FFFF400
01FFABFC00
03F900FE00
0BE0007F00
1FD0002F40
2F80002F40
3F40002F40
7FFFFFFF40
7FFFFFFF40
7FAAAAAA00
7E00000000
7E00000000
7F00000000
3F40006000
1FD002F800
0BFEAFF400
02FFFF8000
006FF90000
ENDCHAR
STARTCHAR ecircumflex
ENCODING 234
SWIDTH 518 0
DWIDTH 19 0
BBX 17 27 1 0
BITMAP
00001F8000
0000BFD000
0002FAF400
001FE0FD00
002F407E00
0000000000
0000000000
0000000000
0006FE4000
002FFFF400
01FFABFC00
03F900FE00
0BE0007F00
1FD0002F40
2F80002F40
3F40002F40
7FFFFFFF40
7FFFFFFF40
7FAAAAAA00
7E00000000
7E00000000
7F00000000
3F40006000
1FD002F800
0BFEAFF400
02FFFF8000
006FF90000
ENDCHAR
STARTCHAR edieresis
ENCODING 235
SWIDTH 518 0
DWIDTH 19 0
BBX 17 26 1 0
BITMAP
000A401900
002FC07F40
002FC07F40
001F402E00
0000000000
0000000000
0000000000
0006FE4000
002FFFF400
01FFABFC00
03F900FE00
0BE0007F00
1FD0002F40
2F80002F40
3F40002F40
7FFFFFFF40
7FFFFFFF40
7FAAAAAA00
7E00000000
7E00000000
7F00000000
3F40006000
1FD002F800
0BFEAFF400
02FFFF8000
006FF90000
ENDCHAR
STARTCHAR igrave
ENCODING 236
SWIDTH 244 0
DWIDTH 9 0
BBX 7 27 1 0
BITMAP
2F80
0FD0
07F0
02F4
00A8
0000
0000
0000
03F4
03F0
07F0
0BE0
0BE0
0FD0
0FC0
1FC0
1F80
2F80
2F40
3F40
3F00
7F00
7E00
BE00
BD00
FD00
FC00
ENDCHAR
STARTCHAR iacute
ENCODING 237
SWIDTH 244 0
DWIDTH 9 0
BBX 11 27 1 0
BITMAP
0003FC
000BF0
002F80
00BE00
01B800
000000
000000
000000
03F400
03F000
07F000
0BE000
0BE000
0FD000
0FC000
1FC000
1F8000
2F8000
2F4000
3F4000
3F0000
7F0000
7E0000
BE0000
BD0000
FD0000
FC0000
ENDCHAR
STARTCHAR icircumflex
ENCODING 238
SWIDTH 244 0
DWIDTH 9 0
BBX 11 27 1 0
BITMAP
00BD00
02FF40
0FDBD0
7F43F0
BD01F8
000000
000000
000000
03F400
03F000
07F000
0BE000
0BE000
0FD000
0FC000
1FC000
1F8000
2F8000
2F4000
3F4000
3F0000
7F0000
7E0000
BE0000
BD0000
FD0000
FC0000
ENDCHAR
STARTCHAR idieresis
ENCODING 239
SWIDTH 244 0
DWIDTH 9 0
BBX 11 26 1 0
BITMAP
280064
BE01FC
BE01FC
7D00B8
000000
000000
000000
03F400
03F000
07F000
0BE000
0BE000
0FD000
0FC000
1FC000
1F8000
2F8000
2F4000
3F4000
3F0000
7F0000
7E0000
BE0000
BD0000
FD0000
FC0000
ENDCHAR
STARTCHAR eth
ENCODING 240
SWIDTH 573 0
DWIDTH 21 0
BBX 18 27 2 0
BITMAP
000E400000
001FF40180
002FFE1BD0
0001FFFF40
00002FF800
00006FF800
0002FEFD00
0007E0BE00
0002407F00
0000003F40
001BF92F40
00BFFFAF80
07FFABFF80
0FF400BF80
2FC0002F80
3F40002F80
BE00002F40
BD00003F40
FD00003F00
FC00007E00
FC0000BD00
FD0001FC00
BF0003F400
3F801FE000
1FFABFC000
07FFFE0000
00BFE40000
ENDCHAR
STARTCHAR ntilde
ENCODING 241
SWIDTH 540 0
DWIDTH 19 0
BBX 19 27 0 0
BITMAP
00005400A4
0002FE41F4
0007FFEBF0
000F82FFD0
000F006E40
0000000000
0000000000
0000000000
01F81BE800
01F9FFFE00
02FBFAFF80
02FF402FC0
03FD001FC0
03F4000FD0
07F0000FC0
07E0000FC0
0BE0001FC0
0BD0001F80
0FD0002F80
0FC0002F40
1FC0003F40
2F80003F00
2F80007F00
3F40007E00
3F4000BE00
7F0000FD00
7E0000FC00
ENDCHAR
STARTCHAR ograve
ENCODING 242
SWIDTH 558 0
DWIDTH 20 0
BBX 18 27 1 0
BITMAP
0007F00000
0002F80000
0000FD0000
00007E0000
00002E0000
0000000000
0000000000
0000000000
0006FF9000
006FFFF400
01FFEBFD00
07F900BF00
0BE0002F80
1FC0001FC0
2F80000FD0
3F00000FD0
7F00000FD0
BE00000FD0
BE00000FC0
BE00001F80
7E00002F80
7F00007F00
3F4000FE00
1FD007F800
0BFEBFE000
02FFFF8000
006FF90000
ENDCHAR
STARTCHAR oacute
ENCODING 243
SWIDTH 558 0
DWIDTH 20 0
BBX 18 27 1 0
BITMAP
000000BF40
000002FD00
000007F400
00001FD000
00002B0000
0000000000
0000000000
0000000000
0006FF9000
006FFFF400
01FFEBFD00
07F900BF00
0BE0002F80
1FC0001FC0
2F80000FD0
3F00000FD0
7F00000FD0
BE00000FD0
BE00000FC0
BE00001F80
7E00002F80
7F00007F00
3F4000FE00
1FD007F800
0BFEBFE000
02FFFF8000
006FF90000
ENDCHAR
STARTCHAR ocircumflex
ENCODING 244
SWIDTH 558 0
DWIDTH 20 0
BBX 18 27 1 0
BITMAP
00001F8000
00007FE000
0002F9F400
000BE0BD00
002F803E00
0000000000
0000000000
0000000000
0006FF9000
006FFFF400
01FFEBFD00
07F900BF00
0BE0002F80
1FC0001FC0
2F80000FD0
3F00000FD0
7F00000FD0
BE00000FD0
BE00000FC0
BE00001F80
7E00002F80
7F00007F00
3F4000FE00
1FD007F800
0BFEBFE000
02FFFF8000
006FF90000
ENDCHAR
STARTCHAR otilde
ENCODING 245
SWIDTH 558 0
DWIDTH 20 0
BBX 18 27 1 0
BITMAP
0001500280
000BF807C0
002FFFAF80
003E0BFF00
007C01F900
0000000000
0000000000
0000000000
0006FF9000
006FFFF400
01FFEBFD00
07F900BF00
0BE0002F80
1FC0001FC0
2F80000FD0
3F00000FD0
7F00000FD0
BE00000FD0
BE00000FC0
BE00001F80
7E00002F80
7F00007F00
3F4000FE00
1FD007F800
0BFEBFE000
02FFFF8000
006FF90000
ENDCHAR
STARTCHAR odieresis
ENCODING 246
SWIDTH 558 0
DWIDTH 20 0
BBX 18 26 1 0
BITMAP
000A401A00
001FC03F40
002FC07F40
000B402E00
0000000000
0000000000
0000000000
0006FF9000
006FFFF400
01FFEBFD00
07F900BF00
0BE0002F80
1FC0001FC0
2F80000FD0
3F00000FD0
7F00000FD0
BE00000FD0
BE00000FC0
BE00001F80
7E00002F80
7F00007F00
3F4000FE00
1FD007F800
0BFEBFE000
02FFFF8000
006FF90000
ENDCHAR
STARTCHAR divide
ENCODING 247
SWIDTH 558 0
DWIDTH 20 0
BBX 18 19 1 3
BITMAP
0000150000
00007F0000
0000BF4000
00007F0000
0000140000
0000000000
0000000000
0000000000
7FFFFFFFE0
7FFFFFFFE0
BFFFFFFFD0
5555555540
0000000000
0000000000
0000000000
0007D00000
000FE00000
000FE00000
0006800000
ENDCHAR
STARTCHAR oslash
ENCODING 248
SWIDTH 554 0
DWIDTH 20 0
BBX 18 23 1 -2
BITMAP
0000000290
0000000B80
0006FF9F00
002FFFFD00
01FFEBFE00
07FD01FF40
0BE002EF80
1FC00B8FC0
2F401F0FD0
3F003D0FD0
7E00B80FD0
BE01F00FC0
BD03D01FC0
BD0B802F80
BD1F003F40
BE3D007F00
7FB801FD00
2FF007F800
1FFABFE000
0BFFFF8000
1F6FE40000
3D00000000
B800000000
ENDCHAR
STARTCHAR ugrave
ENCODING 249
SWIDTH 539 0
DWIDTH 19 0
BBX 17 27 2 0
BITMAP
001FC00000
000BE00000
0003F40000
0001F80000
0000780000
0000000000
0000000000
0000000000
0FC0002F40
1FC0003F40
1F80003F00
2F80007F00
2F40007E00
3F4000BE00
3F0000BD00
7F0000FD00
7E0000FC00
BE0001FC00
BD0002F800
FD0002F800
FC0003F400
FC0003F400
FD000BF000
BE007FE000
7FEBFFE000
2FFFFBD000
06FE4BD000
ENDCHAR
STARTCHAR uacute
ENCODING 250
SWIDTH 539 0
DWIDTH 19 0
BBX 17 27 2 0
BITMAP
000002FD00
000007F400
00001FD000
00007F4000
0000AD0000
0000000000
0000000000
0000000000
0FC0002F40
1FC0003F40
1F80003F00
2F80007F00
2F40007E00
3F4000BE00
3F0000BD00
7F0000FD00
7E0000FC00
BE0001FC00
BD0002F800
FD0002F800
FC0003F400
FC0003F400
FD000BF000
BE007FE000
7FEBFFE000
2FFFFBD000
06FE4BD000
ENDCHAR
STARTCHAR ucircumflex
ENCODING 251
SWIDTH 539 0
DWIDTH 19 0
BBX 17 27 2 0
BITMAP
00007E0000
0001FF8000
000BE7E000
002F82F400
007E00FC00
0000000000
0000000000
0000000000
0FC0002F40
1FC0003F40
1F80003F00
2F80007F00
2F40007E00
3F4000BE00
3F0000BD00
7F0000FD00
7E0000FC00
BE0001FC00
BD0002F800
FD0002F800
FC0003F400
FC0003F400
FD000BF000
BE007FE000
7FEBFFE000
2FFFFBD000
06FE4BD000
ENDCHAR
STARTCHAR udieresis
ENCODING 252
SWIDTH 539 0
DWIDTH 19 0
BBX 17 26 2 0
BITMAP
0019006800
007F00FD00
007F00FD00
002E00B800
0000000000
0000000000
0000000000
0FC0002F40
1FC0003F40
1F80003F00
2F80007F00
2F40007E00
3F4000BE00
3F0000BD00
7F0000FD00
7E0000FC00
BE0001FC00
BD0002F800
FD0002F800
FC0003F400
FC0003F400
FD000BF000
BE007FE000
7FEBFFE000
2FFFFBD000
06FE4BD000
ENDCHAR
STARTCHAR yacute
ENCODING 253
SWIDTH 463 0
DWIDTH 17 0
BBX 20 34 -2 -7
BITMAP
0000000BF4
0000001FD0
0000007F40
000001FD00
000002B400
0000000000
0000000000
0000000000
00FD0000FD
00BD0002FC
00BE0003F4
007E000BE0
007F000FD0
003F002F80
003F403F40
002F40BE00
002F80FD00
001F82F800
001FC3F000
000FCBE000
000BDFC000
000BEF8000
0007FF0000
0007FE0000
0003FC0000
0003F40000
0003F00000
000BD00000
001FC00000
002F400000
01BE000000
7FFC000000
7FF4000000
7F80000000
ENDCHAR
STARTCHAR thorn
ENCODING 254
SWIDTH 563 0
DWIDTH 20 0
BBX 19 34 -1 -7
BITMAP
000BD00000
000FD00000
000FC00000
001FC00000
001F800000
002F800000
002F400000
003F400000
003F0AF900
007F7FFFC0
007FFEBFE0
00BFD00BF4
00BF0003F8
00FD0001FC
00FC0001FC
01FC0000FC
02F80000FC
02F80001FC
03F40001F8
03F00002F8
07F00003F4
07E0000BE0
0BF0001FD0
0BFD00BF80
0FFFEBFF00
0FDBFFF800
1FC1BF9000
1F80000000
2F80000000
2F40000000
3F40000000
3F00000000
7F00000000
7E00000000
ENDCHAR
STARTCHAR ydieresis
ENCODING 255
SWIDTH 463 0
DWIDTH 17 0
BBX 20 33 -2 -7
BITMAP
00006401A0
0001FC03F4
0001FC03F4
0000B802E0
0000000000
0000000000
0000000000
00FD0000FD
00BD0002FC
00BE0003F4
007E000BE0
007F000FD0
003F002F80
003F403F40
002F40BE00
002F80FD00
001F82F800
001FC3F000
000FCBE000
000BDFC000
000BEF8000
0007FF0000
0007FE0000
0003FC0000
0003F40000
0003F00000
000BD00000
001FC00000
002F400000
01BE000000
7FFC000000
7FF4000000
7F80000000
ENDCHAR
STARTCHAR Amacron
ENCODING 256
SWIDTH 637 0
DWIDTH 23 0
BBX 22 31 -1 0
BITMAP
000006AAAA90
00000FFFFFE0
00000FFFFFD0
000000000000
000000000000
0000002F4000
0000007F8000
000000FFC000
000001FFC000
000003FBD000
000007E7D000
00000FD7E000
00002F83F000
00003F03F000
0000BE02F400
0000FC02F400
0002F401F800
0007F000F800
000BD000FC00
001FC000BD00
002F4000BD00
007FFFFFFE00
00FFFFFFFE00
01FEAAAABF00
03F400003F40
07E000002F40
0FD000002F80
2F8000001F80
3F4000001FC0
BE0000000FC0
FD0000000FD0
ENDCHAR
STARTCHAR amacron
ENCODING 257
SWIDTH 532 0
DWIDTH 19 0
BBX 17 25 1 0
BITMAP
000AAAAA80
001FFFFFC0
001FFFFFC0
0000000000
0000000000
0000000000
0006FE4000
007FFFF400
02FFABFC00
07F801FE00
0BE000BE00
0A90007F00
0000007E00
0000007E00
006BFFFD00
07FFFFFD00
1FF955FC00
7F8000FC00
BE0001F800
FD0002F800
FD0007F400
BF406FF400
7FFFFFF400
2FFFF7F400
06FE43F400
ENDCHAR
STARTCHAR Abreve
ENCODING 258
SWIDTH 637 0
DWIDTH 23 0
BBX 22 32 -1 0
BITMAP
000003E00BC0
000003E00F80
000002F46F40
000000BFFE00
0000002FE400
000000000000
0000002F4000
0000007F8000
000000FFC000
000001FFC000
000003FBD000
000007E7D000
00000FD7E000
00002F83F000
00003F03F000
0000BE02F400
0000FC02F400
0002F401F800
0007F000F800
000BD000FC00
001FC000BD00
002F4000BD00
007FFFFFFE00
00FFFFFFFE00
01FEAAAABF00
03F400003F40
07E000002F40
0FD000002F80
2F8000001F80
3F4000001FC0
BE0000000FC0
FD0000000FD0
ENDCHAR
STARTCHAR abreve
ENCODING 259
SWIDTH 532 0
DWIDTH 19 0
BBX 17 27 1 0
BITMAP
000BC00F80
0007D01F40
0003F47F00
0001FFFD00
00006FE000
0000000000
0000000000
0000000000
0006FE4000
007FFFF400
02FFABFC00
07F801FE00
0BE000BE00
0A90007F00
0000007E00
0000007E00
006BFFFD00
07FFFFFD00
1FF955FC00
7F8000FC00
BE0001F800
FD0002F800
FD0007F400
BF406FF400
7FFFFFF400
2FFFF7F400
06FE43F400
ENDCHAR
STARTCHAR Aogonek
ENCODING 260
SWIDTH 637 0
DWIDTH 23 0
BBX 22 33 -1 -7
BITMAP
0000002F4000
0000007F8000
000000FFC000
000001FFC000
000003FBD000
000007E7D000
00000FD7E000
00002F83F000
00003F03F000
0000BE02F400
0000FC02F400
0002F401F800
0007F000F800
000BD000FC00
001FC000BD00
002F4000BD00
007FFFFFFE00
00FFFFFFFE00
01FEAAAABF00
03F400003F40
07E000002F40
0FD000002F80
2F8000001F80
3F4000001FC0
BE0000000FC0
FD0000000FD0
000000002F40
00000000F800
00000003E000
00000007D000
00000007E600
00000003FF40
00000001BE00
ENDCHAR
STARTCHAR aogonek
ENCODING 261
SWIDTH 532 0
DWIDTH 19 0
BBX 16 26 1 -7
BITMAP
0006FE40
007FFFF4
02FFABFC
07F801FE
0BE000BE
0A90007F
0000007E
0000007E
006BFFFD
07FFFFFD
1FF955FC
7F8000FC
BE0001F8
FD0002F8
FD0007F4
BF406FF4
7FFFFFF4
2FFFF7F4
06FE43F4
00000BD0
00007E00
0000F800
0001F400
0001F980
0001FFC0
00006F80
ENDCHAR
STARTCHAR Cacute
ENCODING 262
SWIDTH 636 0
DWIDTH 23 0
BBX 21 33 2 0
BITMAP
0000000BF400
0000002FD000
0000007F4000
000001FD0000
000002B40000
000000000000
000000000000
00006FF90000
0007FFFFD000
002FFEBFF400
00BF9007FC00
01FD0000FE00
07F80000BF00
0BE000007F00
1FD000003F40
2F8000001A40
3F4000000000
3F4000000000
7F0000000000
BE0000000000
BE0000000000
BE0000000000
BD0000000000
FD0000000000
FD0000015400
BE000003F400
BE000007F000
7F00000FE000
3F80002FC000
1FE001FF4000
0BFFAFFD0000
01FFFFE00000
002BFA400000
ENDCHAR
STARTCHAR cacute
ENCODING 263
SWIDTH 512 0
DWIDTH 18 0
BBX 17 27 1 0
BITMAP
000001FE00
000007F800
00001FD000
00007F4000
00006D0000
0000000000
0000000000
0000000000
0006FE8000
007FFFF400
01FFABFD00
07F800BE00
0FE0003F40
1FC0002F40
2F40001A40
3F00000000
7E00000000
7E00000000
BE00000000
BE00000000
7E00000000
7F0000BD00
3F4001FC00
2FD00BF400
0BFABFE000
02FFFF4000
006FE40000
ENDCHAR
STARTCHAR Ccircumflex
ENCODING 264
SWIDTH 636 0
DWIDTH 23 0
BBX 21 33 2 0
BITMAP
000001F80000
000007FE0000
00002F9F8000
0000BE0BD000
0001F803F000
000000000000
000000000000
00006FF90000
0007FFFFD000
002FFEBFF400
00BF9007FC00
01FD0000FE00
07F80000BF00
0BE000007F00
1FD000003F40
2F8000001A40
3F4000000000
3F4000000000
7F0000000000
BE0000000000
BE0000000000
BE0000000000
BD0000000000
FD0000000000
FD0000015400
BE000003F400
BE000007F000
7F00000FE000
3F80002FC000
1FE001FF4000
0BFFAFFD0000
01FFFFE00000
002BFA400000
ENDCHAR
STARTCHAR ccircumflex
ENCODING 265
SWIDTH 512 0
DWIDTH 18 0
BBX 17 27 1 0
BITMAP
00002F0000
0001FF8000
0007F7E000
002FC1F800
007E00BC00
0000000000
0000000000
0000000000
0006FE8000
007FFFF400
01FFABFD00
07F800BE00
0FE0003F40
1FC0002F40
2F40001A40
3F00000000
7E00000000
7E00000000
BE00000000
BE00000000
7E00000000
7F0000BD00
3F4001FC00
2FD00BF400
0BFABFE000
02FFFF4000
006FE40000
ENDCHAR
STARTCHAR Cdotaccent
ENCODING 266
SWIDTH 636 0
DWIDTH 23 0
BBX 21 32 2 0
BITMAP
000000A00000
000002F80000
000003F80000
000001F40000
000000000000
000000000000
00006FF90000
0007FFFFD000
002FFEBFF400
00BF9007FC00
01FD0000FE00
07F80000BF00
0BE000007F00
1FD000003F40
2F8000001A40
3F4000000000
3F4000000000
7F0000000000
BE0000000000
BE0000000000
BE0000000000
BD0000000000
FD0000000000
FD0000015400
BE000003F400
BE000007F000
7F00000FE000
3F80002FC000
1FE001FF4000
0BFFAFFD0000
01FFFFE00000
002BFA400000
ENDCHAR
STARTCHAR cdotaccent
ENCODING 267
SWIDTH 512 0
DWIDTH 18 0
BBX 17 26 1 0
BITMAP
0000290000
00007F0000
0000BF0000
00003D0000
0000000000
0000000000
0000000000
0006FE8000
007FFFF400
01FFABFD00
07F800BE00
0FE0003F40
1FC0002F40
2F40001A40
3F00000000
7E00000000
7E00000000
BE00000000
BE00000000
7E00000000
7F0000BD00
3F4001FC00
2FD00BF400
0BFABFE000
02FFFF4000
006FE40000
ENDCHAR
STARTCHAR Ccaron
ENCODING 268
SWIDTH 636 0
DWIDTH 23 0
BBX 21 33 2 0
BITMAP
0000BC02F400
00003E0BD000
00001F6F4000
000007FD0000
000002F40000
000000000000
000000000000
00006FF90000
0007FFFFD000
002FFEBFF400
00BF9007FC00
01FD0000FE00
07F80000BF00
0BE000007F00
1FD000003F40
2F8000001A40
3F4000000000
3F4000000000
7F0000000000
BE0000000000
BE0000000000
BE0000000000
BD0000000000
FD0000000000
FD0000015400
BE000003F400
BE000007F000
7F00000FE000
3F80002FC000
1FE001FF4000
0BFFAFFD0000
01FFFFE00000
002BFA400000
ENDCHAR
STARTCHAR ccaron
ENCODING 269
SWIDTH 512 0
DWIDTH 18 0
BBX 17 27 1 0
BITMAP
001F407E00
000BC1F800
0003E7E000
0001FF8000
00007D0000
0000000000
0000000000
0000000000
0006FE8000
007FFFF400
01FFABFD00
07F800BE00
0FE0003F40
1FC0002F40
2F40001A40
3F00000000
7E00000000
7E00000000
BE00000000
BE00000000
7E00000000
7F0000BD00
3F4001FC00
2FD00BF400
0BFABFE000
02FFFF4000
006FE40000
ENDCHAR
STARTCHAR Dcaron
ENCODING 270
SWIDTH 641 0
DWIDTH 23 0
BBX 21 33 1 0
BITMAP
0000F802F400
00007E0BD000
00001F7F0000
00000BFC0000
000003F00000
000000000000
000000000000
00BFFFE40000
00BFFFFF4000
00FEAAFFE000
00FD001BF400
01FC0002FC00
01F80000FE00
02F800007F00
02F400003F00
03F400003F40
03F000003F40
07F000003F40
07E000003F40
0BE000003F40
0FD000003F40
0FD000007F00
1FC00000BE00
1FC00000BE00
2F800001FC00
2F800002F800
3F400007F400
3F40001FE000
7F00007F8000
7F0006FE0000
BFAAFFF80000
BFFFFF900000
FFFFE9000000
ENDCHAR
STARTCHAR dcaron
ENCODING 271
SWIDTH 625 0
DWIDTH 23 0
BBX 25 27 1 0
BITMAP
00000001FC2F40
00000001F83F40
00000002F83F00
00000002F4BE00
00000003F4FC00
00000003F2F400
00000007F09000
00000007E00000
000BFE0BE00000
007FFFDBD00000
02FFEFFFD00000
07F900BFC00000
0FE0003FC00000
1FC0001F800000
2F80002F800000
3F00002F400000
7F00003F400000
BE00003F000000
BE00007F000000
BE0000BE000000
BE0000BE000000
7E0000FD000000
7F4002FC000000
2FD01BFC000000
1FFEFFF8000000
07FFF9F8000000
01BF91F4000000
ENDCHAR
STARTCHAR Dcroat
ENCODING 272
SWIDTH 655 0
DWIDTH 24 0
BBX 22 26 0 0
BITMAP
000FFFFA4000
001FFFFFE000
001FEABFFC00
002F8001FF00
002F80007F80
003F40001FC0
003F00000FD0
007F00000BE0
007E000007F0
00BE000007F0
00FD000007F0
7FFFFE0007F0
7FFFFD0007F0
6AFEA8000BE0
02F800000BD0
02F800000FD0
03F400001FC0
03F400002F80
07F000007F40
07F00000BE00
0BE00002FC00
0BE0000BF400
0FD001BFD000
0FFAAFFF4000
1FFFFFF80000
1FFFFA400000
ENDCHAR
STARTCHAR dcroat
ENCODING 273
SWIDTH 583 0
DWIDTH 21 0
BBX 22 27 1 0
BITMAP
00000001FC00
00000001F800
00000002F800
000007FFFFE0
000007FFFFE0
000006ABFA90
00000007F000
00000007E000
000BFE4BE000
007FFFEFD000
02FFEFFFD000
07F901BFC000
0FE0003FC000
1FC0001F8000
3F80002F8000
3F00002F4000
7F00003F4000
BE00003F0000
BE00007F0000
BE0000BE0000
BE0000BE0000
7E0000FD0000
7F0002FC0000
2F801BFC0000
1FFAFFF80000
07FFFEF80000
01BF91F40000
ENDCHAR
STARTCHAR Emacron
ENCODING 274
SWIDTH 556 0
DWIDTH 20 0
BBX 20 31 1 0
BITMAP
0001AAAAA4
0002FFFFF8
0003FFFFF8
0000000000
0000000000
00BFFFFFFF
00BFFFFFFF
00FFAAAAAA
00FD000000
01FC000000
01F8000000
02F8000000
02F4000000
03F4000000
03F0000000
07F0000000
07FFFFFF80
0BFFFFFF40
0BFAAAAA40
0FD0000000
1FC0000000
1FC0000000
2F80000000
2F80000000
3F40000000
3F40000000
7F00000000
7F00000000
BFAAAAAA40
BFFFFFFF00
FFFFFFFF00
ENDCHAR
STARTCHAR emacron
ENCODING 275
SWIDTH 518 0
DWIDTH 19 0
BBX 17 25 1 0
BITMAP
001AAAAA40
002FFFFF80
003FFFFF40
0000000000
0000000000
0000000000
0006FE4000
002FFFF400
01FFABFC00
03F900FE00
0BE0007F00
1FD0002F40
2F80002F40
3F40002F40
7FFFFFFF40
7FFFFFFF40
7FAAAAAA00
7E00000000
7E00000000
7F00000000
3F40006000
1FD002F800
0BFEAFF400
02FFFF8000
006FF90000
ENDCHAR
STARTCHAR Ebreve
ENCODING 276
SWIDTH 556 0
DWIDTH 20 0
BBX 20 33 1 0
BITMAP
0000F801F4
0000BC02F0
00007E1BD0
00002FFF80
000006F900
0000000000
0000000000
00BFFFFFFF
00BFFFFFFF
00FFAAAAAA
00FD000000
01FC000000
01F8000000
02F8000000
02F4000000
03F4000000
03F0000000
07F0000000
07FFFFFF80
0BFFFFFF40
0BFAAAAA40
0FD0000000
1FC0000000
1FC0000000
2F80000000
2F80000000
3F40000000
3F40000000
7F00000000
7F00000000
BFAAAAAA40
BFFFFFFF00
FFFFFFFF00
ENDCHAR
STARTCHAR ebreve
ENCODING 277
SWIDTH 518 0
DWIDTH 19 0
BBX 17 27 1 0
BITMAP
000F802F00
000B803F00
0007E1BD00
0002FFF800
00007F9000
0000000000
0000000000
0000000000
0006FE4000
002FFFF400
01FFABFC00
03F900FE00
0BE0007F00
1FD0002F40
2F80002F40
3F40002F40
7FFFFFFF40
7FFFFFFF40
7FAAAAAA00
7E00000000
7E00000000
7F00000000
3F40006000
1FD002F800
0BFEAFF400
02FFFF8000
006FF90000
ENDCHAR
STARTCHAR Edotaccent
ENCODING 278
SWIDTH 556 0
DWIDTH 20 0
BBX 20 32 1 0
BITMAP
000001A000
000002F800
000003F800
000001F400
0000000000
0000000000
00BFFFFFFF
00BFFFFFFF
00FFAAAAAA
00FD000000
01FC000000
01F8000000
02F8000000
02F4000000
03F4000000
03F0000000
07F0000000
07FFFFFF80
0BFFFFFF40
0BFAAAAA40
0FD0000000
1FC0000000
1FC0000000
2F80000000
2F80000000
3F40000000
3F40000000
7F00000000
7F00000000
BFAAAAAA40
BFFFFFFF00
FFFFFFFF00
ENDCHAR
STARTCHAR edotaccent
ENCODING 279
SWIDTH 518 0
DWIDTH 19 0
BBX 17 26 1 0
BITMAP
00001A0000
00003F8000
00003F8000
00001E0000
0000000000
0000000000
0000000000
0006FE4000
002FFFF400
01FFABFC00
03F900FE00
0BE0007F00
1FD0002F40
2F80002F40
3F40002F40
7FFFFFFF40
7FFFFFFF40
7FAAAAAA00
7E00000000
7E00000000
7F00000000
3F40006000
1FD002F800
0BFEAFF400
02FFFF8000
006FF90000
ENDCHAR
STARTCHAR Eogonek
ENCODING 280
SWIDTH 556 0
DWIDTH 20 0
BBX 20 33 1 -7
BITMAP
00BFFFFFFF
00BFFFFFFF
00FFAAAAAA
00FD000000
01FC000000
01F8000000
02F8000000
02F4000000
03F4000000
03F0000000
07F0000000
07FFFFFF80
0BFFFFFF40
0BFAAAAA40
0FD0000000
1FC0000000
1FC0000000
2F80000000
2F80000000
3F40000000
3F40000000
7F00000000
7F00000000
BFAAAAAA40
BFFFFFFF00
FFFFFFFF00
000007E000
00002F8000
00007E0000
0000BD0000
0000BE6000
00007FF000
00001F9000
ENDCHAR
STARTCHAR eogonek
ENCODING 281
SWIDTH 518 0
DWIDTH 19 0
BBX 17 26 1 -7
BITMAP
0006FE4000
007FFFF000
01FFABF800
07F801FD00
0BE0007F00
1FC0003F00
2F40002F40
3F00002F40
7FFFFFFF40
7FFFFFFF00
BFAAAAAA00
BE00000000
BE00000000
7F00000000
3F40006000
2FD002F800
0BFEAFF000
02FFFF8000
006FFD0000
0007E00000
001F800000
002F000000
003F000000
003FA80000
002FF80000
000BE40000
ENDCHAR
STARTCHAR Ecaron
ENCODING 282
SWIDTH 556 0
DWIDTH 20 0
BBX 20 33 1 0
BITMAP
0000BC02F4
00003E0BD0
00001F6F40
000007FD00
000002F400
0000000000
0000000000
00BFFFFFFF
00BFFFFFFF
00FFAAAAAA
00FD000000
01FC000000
01F8000000
02F8000000
02F4000000
03F4000000
03F0000000
07F0000000
07FFFFFF80
0BFFFFFF40
0BFAAAAA40
0FD0000000
1FC0000000
1FC0000000
2F80000000
2F80000000
3F40000000
3F40000000
7F00000000
7F00000000
BFAAAAAA40
BFFFFFFF00
FFFFFFFF00
ENDCHAR
STARTCHAR ecaron
ENCODING 283
SWIDTH 518 0
DWIDTH 19 0
BBX 17 27 1 0
BITMAP
000BC02F40
0003E0BD00
0001F6F400
0000BFD000
00002F0000
0000000000
0000000000
0000000000
0006FE4000
002FFFF400
01FFABFC00
03F900FE00
0BE0007F00
1FD0002F40
2F80002F40
3F40002F40
7FFFFFFF40
7FFFFFFF40
7FAAAAAA00
7E00000000
7E00000000
7F00000000
3F40006000
1FD002F800
0BFEAFF400
02FFFF8000
006FF90000
ENDCHAR
STARTCHAR Gcircumflex
ENCODING 284
SWIDTH 665 0
DWIDTH 24 0
BBX 21 33 2 0
BITMAP
000001F80000
00000BFD0000
00002FAF4000
0000FE0FD000
0002F807E000
000000000000
000000000000
00006FF90000
0007FFFFD000
002FFFBFF800
00BF9006FD00
01FE0000BE00
03F800007F00
0BE000003F40
0FD000002A40
1FC000000000
2F8000000000
3F4000000000
7F0000000000
7F0000000000
BE0007FFFE00
BE000BFFFD00
BE000AAAFD00
BE000001FC00
BE000001FC00
BE000002F800
7F000002F800
3F400003F400
2FD00007F400
0FF4006FF000
07FFAFFFC000
00FFFFFE0000
001BFE900000
ENDCHAR
STARTCHAR gcircumflex
ENCODING 285
SWIDTH 549 0
DWIDTH 20 0
BBX 19 34 0 -7
BITMAP
000007E000
00002FF400
0000BEBD00
0003F83F40
000BE01F80
0000000000
0000000000
0000000000
0002FF81F8
001FFFF6F4
00BFFBFFF4
01FE406FF0
03F8000FF0
07F00007E0
0BE0000BE0
0FC0000BD0
1FC0000FD0
2F80000FC0
2F80001FC0
2F80002F80
2F80002F80
1F80003F40
1FD000BF40
0FF406FF00
07FFBFFF00
01FFFEBE00
006FE4BD00
000000FD00
000001FC00
240007F400
BE001FF000
7FEAFFC000
1FFFFE0000
01BFE40000
ENDCHAR
STARTCHAR Gbreve
ENCODING 286
SWIDTH 665 0
DWIDTH 24 0
BBX 21 33 2 0
BITMAP
0000F801F000
0000B803F000
00007E1BD000
00002FFF8000
000006F90000
000000000000
000000000000
00006FF90000
0007FFFFD000
002FFFBFF800
00BF9006FD00
01FE0000BE00
03F800007F00
0BE000003F40
0FD000002A40
1FC000000000
2F8000000000
3F4000000000
7F0000000000
7F0000000000
BE0007FFFE00
BE000BFFFD00
BE000AAAFD00
BE000001FC00
BE000001FC00
BE000002F800
7F000002F800
3F400003F400
2FD00007F400
0FF4006FF000
07FFAFFFC000
00FFFFFE0000
001BFE900000
ENDCHAR
STARTCHAR gbreve
ENCODING 287
SWIDTH 549 0
DWIDTH 20 0
BBX 19 34 0 -7
BITMAP
0003E007C0
0002F00FC0
0001F86F40
0000BFFE00
00001BE400
0000000000
0000000000
0000000000
0002FF81F8
001FFFF6F4
00BFFBFFF4
01FE406FF0
03F8000FF0
07F00007E0
0BE0000BE0
0FC0000BD0
1FC0000FD0
2F80000FC0
2F80001FC0
2F80002F80
2F80002F80
1F80003F40
1FD000BF40
0FF406FF00
07FFBFFF00
01FFFEBE00
006FE4BD00
000000FD00
000001FC00
240007F400
BE001FF000
7FEAFFC000
1FFFFE0000
01BFE40000
ENDCHAR
STARTCHAR Gdotaccent
ENCODING 288
SWIDTH 665 0
DWIDTH 24 0
BBX 21 32 2 0
BITMAP
000001A00000
000003F80000
000003F80000
000001E00000
000000000000
000000000000
00006FF90000
0007FFFFD000
002FFFBFF800
00BF9006FD00
01FE0000BE00
03F800007F00
0BE000003F40
0FD000002A40
1FC000000000
2F8000000000
3F4000000000
7F0000000000
7F0000000000
BE0007FFFE00
BE000BFFFD00
BE000AAAFD00
BE000001FC00
BE000001FC00
BE000002F800
7F000002F800
3F400003F400
2FD00007F400
0FF4006FF000
07FFAFFFC000
00FFFFFE0000
001BFE900000
ENDCHAR
STARTCHAR gdotaccent
ENCODING 289
SWIDTH 549 0
DWIDTH 20 0
BBX 19 33 0 -7
BITMAP
0000068000
00000FE000
00000FE000
0000078000
0000000000
0000000000
0000000000
0002FF81F8
001FFFF6F4
00BFFBFFF4
01FE406FF0
03F8000FF0
07F00007E0
0BE0000BE0
0FC0000BD0
1FC0000FD0
2F80000FC0
2F80001FC0
2F80002F80
2F80002F80
1F80003F40
1FD000BF40
0FF406FF00
07FFBFFF00
01FFFEBE00
006FE4BD00
000000FD00
000001FC00
240007F400
BE001FF000
7FEAFFC000
1FFFFE0000
01BFE40000
ENDCHAR
STARTCHAR uni0122
ENCODING 290
SWIDTH 665 0
DWIDTH 24 0
BBX 21 35 2 -9
BITMAP
00006FF90000
0007FFFFD000
002FFFBFF800
00BF9006FD00
01FE0000BE00
03F800007F00
0BE000003F40
0FD000002A40
1FC000000000
2F8000000000
3F4000000000
7F0000000000
7F0000000000
BE0007FFFE00
BE000BFFFD00
BE000AAAFD00
BE000001FC00
BE000001FC00
BE000002F800
7F000002F800
3F400003F400
2FD00007F400
0FF4006FF000
07FFAFFFC000
00FFFFFE0000
001BFE900000
000000000000
000000000000
0007E0000000
000BE0000000
000BD0000000
001FC0000000
002F40000000
007E00000000
001800000000
ENDCHAR
STARTCHAR uni0123
ENCODING 291
SWIDTH 549 0
DWIDTH 20 0
BBX 19 38 0 -7
BITMAP
0000006000
000000F800
000002F800
000007F000
00000BE000
00000BD000
00000FD000
00000FC000
0000000000
0000000000
0000000000
0000000000
0002FF81F8
001FFFF6F4
00BFFBFFF4
01FE406FF0
03F8000FF0
07F00007E0
0BE0000BE0
0FC0000BD0
1FC0000FD0
2F80000FC0
2F80001FC0
2F80002F80
2F80002F80
1F80003F40
1FD000BF40
0FF406FF00
07FFBFFF00
01FFFEBE00
006FE4BD00
000000FD00
000001FC00
240007F400
BE001FF000
7FEAFFC000
1FFFFE0000
01BFE40000
ENDCHAR
STARTCHAR Hcircumflex
ENCODING 292
SWIDTH 696 0
DWIDTH 25 0
BBX 24 33 1 0
BITMAP
0000002F4000
000000BFC000
000007F7F000
00001FD1F800
00003F40BD00
000000000000
000000000000
00BE000000BE
00BE000000FD
00FD000001FC
00FD000001FC
01FC000002F8
01FC000002F8
02F8000003F4
02F4000003F4
03F4000007F0
03F0000007F0
07F000000BE0
07FFFFFFFFE0
0BFFFFFFFFD0
0BFAAAAAAFD0
0FD000001FC0
1FC000001FC0
1FC000002F80
2F8000002F80
2F8000003F40
3F4000003F40
3F4000007F00
7F0000007F00
7F000000BE00
BE000000BE00
BE000000FD00
FD000000FD00
ENDCHAR
STARTCHAR hcircumflex
ENCODING 293
SWIDTH 539 0
DWIDTH 19 0
BBX 18 33 0 0
BITMAP
000007E000
00002FF400
0000BEBD00
0003F82F40
000BE01F80
0000000000
003F400000
003F000000
007F000000
007E000000
00BE000000
00BD000000
00FD000000
00FC000000
01FC1BF800
01F9FFFE00
02FFFAFF80
02FF402FC0
03FD001FC0
03F4000FD0
07F0000FC0
07E0000FC0
0BE0001FC0
0BD0001F80
0FD0002F80
0FC0002F40
1FC0003F40
2F80003F00
2F80007F00
3F40007E00
3F4000BE00
7F0000FD00
7E0000FC00
ENDCHAR
STARTCHAR Hbar
ENCODING 294
SWIDTH 684 0
DWIDTH 25 0
BBX 25 26 1 0
BITMAP
00BE000000FD00
00FD000000FD00
00FD000001FC00
01FC000001FC00
01FC000002F800
3FFFFFFFFFFF80
3FFFFFFFFFFF80
2BFAAAAAABFA40
03F4000007F000
07F0000007F000
07F000000BE000
0BFFFFFFFFD000
0BFFFFFFFFD000
0FFAAAAAAFC000
0FD000001FC000
1FC000001F8000
1FC000002F8000
2F8000003F4000
2F8000003F4000
3F4000007F0000
3F4000007F0000
7F000000BE0000
7F000000BE0000
BE000000FD0000
BE000000FD0000
FD000001FC0000
ENDCHAR
STARTCHAR hbar
ENCODING 295
SWIDTH 553 0
DWIDTH 20 0
BBX 17 27 1 0
BITMAP
007F000000
007E000000
00BE000000
7FFFFE0000
7FFFFD0000
6AFEA90000
01F8000000
01F8000000
02F46FE400
03F6FFFD00
03FBFBFF00
07FE407F40
07F8002F80
0BE0001F80
0BD0001F80
0FD0002F80
0FC0002F40
1FC0003F40
1F80003F00
2F80007F00
2F40007E00
3F4000BE00
3F0000BD00
7F0000FD00
7E0000FC00
BE0001FC00
FD0001F800
ENDCHAR
STARTCHAR Itilde
ENCODING 296
SWIDTH 268 0
DWIDTH 10 0
BBX 14 33 1 0
BITMAP
01500290
0BF907D0
1FFFAFC0
3E0BFF40
3C01B900
00000000
00000000
007F0000
00BE0000
00BE0000
00FD0000
00FD0000
01FC0000
01FC0000
02F80000
02F80000
03F40000
03F40000
07F00000
07F00000
0BE00000
0BE00000
0FD00000
0FD00000
1FC00000
1FC00000
2F800000
2F800000
3F400000
3F400000
7F000000
7F000000
BE000000
ENDCHAR
STARTCHAR itilde
ENCODING 297
SWIDTH 244 0
DWIDTH 9 0
BBX 13 27 0 0
BITMAP
01500680
1FF80B80
3FFFAF40
7D1BFE00
B801F800
00000000
00000000
00000000
00FD0000
00FC0000
01FC0000
02F80000
02F80000
03F40000
03F00000
07F00000
07E00000
0BE00000
0BD00000
0FD00000
0FC00000
1FC00000
1F800000
2F800000
2F400000
3F400000
3F000000
ENDCHAR
STARTCHAR Imacron
ENCODING 298
SWIDTH 268 0
DWIDTH 10 0
BBX 13 31 1 0
BITMAP
1AAAAA80
2FFFFFC0
2FFFFF80
00000000
00000000
007F0000
00BE0000
00BE0000
00FD0000
00FD0000
01FC0000
01FC0000
02F80000
02F80000
03F40000
03F40000
07F00000
07F00000
0BE00000
0BE00000
0FD00000
0FD00000
1FC00000
1FC00000
2F800000
2F800000
3F400000
3F400000
7F000000
7F000000
BE000000
ENDCHAR
STARTCHAR imacron
ENCODING 299
SWIDTH 244 0
DWIDTH 9 0
BBX 12 25 1 0
BITMAP
6AAAA9
FFFFFE
FFFFFD
000000
000000
000000
03F400
03F000
07F000
0BE000
0BE000
0FD000
0FC000
1FC000
1F8000
2F8000
2F4000
3F4000
3F0000
7F0000
7E0000
BE0000
BD0000
FD0000
FC0000
ENDCHAR
STARTCHAR Ibreve
ENCODING 300
SWIDTH 268 0
DWIDTH 10 0
BBX 13 33 1 0
BITMAP
0BC01F40
0BC02F00
07E4BE00
02FFFC00
006FE000
00000000
00000000
007F0000
00BE0000
00BE0000
00FD0000
00FD0000
01FC0000
01FC0000
02F80000
02F80000
03F40000
03F40000
07F00000
07F00000
0BE00000
0BE00000
0FD00000
0FD00000
1FC00000
1FC00000
2F800000
2F800000
3F400000
3F400000
7F000000
7F000000
BE000000
ENDCHAR
STARTCHAR ibreve
ENCODING 301
SWIDTH 244 0
DWIDTH 9 0
BBX 11 27 1 0
BITMAP
3D00BC
3E00F8
2F46F4
0FFFD0
02FE40
000000
000000
000000
03F400
03F000
07F000
0BE000
0BE000
0FD000
0FC000
1FC000
1F8000
2F8000
2F4000
3F4000
3F0000
7F0000
7E0000
BE0000
BD0000
FD0000
FC0000
ENDCHAR
STARTCHAR Iogonek
ENCODING 302
SWIDTH 268 0
DWIDTH 10 0
BBX 11 33 -2 -7
BITMAP
0001FC
0002F8
0002F8
0003F4
0003F4
0007F0
0007F0
000BE0
000BE0
000FD0
000FD0
001FC0
001FC0
002F80
002F80
003F40
003F40
007F00
007F00
00BE00
00BE00
00FD00
00FD00
01FC00
01FC00
03F800
0BD000
2F4000
BD0000
FC0000
FE9000
BFE000
2F9000
ENDCHAR
STARTCHAR iogonek
ENCODING 303
SWIDTH 240 0
DWIDTH 9 0
BBX 12 33 -3 -7
BITMAP
000068
0000FD
0001FD
0000B8
000000
000000
000000
0003F4
0003F0
0007F0
0007E0
000BE0
000FD0
000FC0
001FC0
001F80
002F80
002F40
003F40
003F00
007F00
007E00
00BE00
00BD00
00FD00
00FC00
07E000
1F8000
3E0000
7D0000
7E6000
3FF000
1BE000
ENDCHAR
STARTCHAR Idotaccent
ENCODING 304
SWIDTH 268 0
DWIDTH 10 0
BBX 9 32 1 0
BITMAP
000A40
002F80
002FC0
001F40
000000
000000
007F00
00BE00
00BE00
00FD00
00FD00
01FC00
01FC00
02F800
02F800
03F400
03F400
07F000
07F000
0BE000
0BE000
0FD000
0FD000
1FC000
1FC000
2F8000
2F8000
3F4000
3F4000
7F0000
7F0000
BE0000
ENDCHAR
STARTCHAR dotlessi
ENCODING 305
SWIDTH 244 0
DWIDTH 9 0
BBX 7 19 1 0
BITMAP
03F4
03F0
07F0
0BE0
0BE0
0FD0
0FC0
1FC0
1F80
2F80
2F40
3F40
3F00
7F00
7E00
BE00
BD00
FD00
FC00
ENDCHAR
STARTCHAR IJ
ENCODING 306
SWIDTH 808 0
DWIDTH 29 0
BBX 28 26 1 0
BITMAP
007F000000007F
00BE00000000BE
00BE00000000BE
00FD00000000FD
00FD00000000FD
01FC00000001FC
01FC00000001FC
02F800000002F8
02F800000002F8
03F400000003F4
03F400000003F4
07F000000007F0
07F000000007F0
0BE00000000BE0
0BE00000000BE0
0FD00000000FD0
0FD00000000FC0
1FC00000001FC0
1FC01500002F80
2F803F40002F80
2F803F40007F40
3F402FC000FE00
3F401FE007FD00
7F000BFFBFF400
7F0002FFFFD000
BE00006FF90000
ENDCHAR
STARTCHAR ij
ENCODING 307
SWIDTH 476 0
DWIDTH 17 0
BBX 16 33 1 -7
BITMAP
00680029
00FD00BE
01FD00BE
00B8007D
00000000
00000000
00000000
03F401F8
03F002F8
07F003F4
07E003F4
0BE007F0
0FD007F0
0FC00BE0
1FC00BD0
1F800FD0
2F800FC0
2F401FC0
3F401F80
3F002F80
7F002F40
7E003F40
BE003F00
BD007F00
FD007E00
FC00BE00
0000FD00
0000FD00
0001FC00
0003F800
01EFF400
01FFE000
01FE4000
ENDCHAR
STARTCHAR Jcircumflex
ENCODING 308
SWIDTH 540 0
DWIDTH 19 0
BBX 23 32 0 0
BITMAP
000000007E00
00000002FF40
0000000BEBD0
0000007F83F4
000000BD01F8
000000000000
00000000FD00
00000001FC00
00000001FC00
00000002F800
00000002F800
00000003F400
00000003F400
00000007F000
00000007F000
0000000BE000
0000000BE000
0000000FD000
0000000FD000
0000001FC000
0000001FC000
0000002F8000
0000002F4000
0000003F4000
5500007F0000
BE00007F0000
BE0000FE0000
7F4002FD0000
3FD01BF80000
1FFEFFE00000
07FFFF400000
00AFE8000000
ENDCHAR
STARTCHAR jcircumflex
ENCODING 309
SWIDTH 249 0
DWIDTH 9 0
BBX 17 33 -5 -7
BITMAP
000007D000
00002FF400
0000BEBD00
0007F43F40
000BD01F80
0000000000
0000000000
00002F4000
00003F4000
00003F0000
00007F0000
00007E0000
0000BE0000
0000BD0000
0000FD0000
0000FC0000
0001FC0000
0001F80000
0002F80000
0002F40000
0003F40000
0003F00000
0007F00000
000BE00000
000BE00000
000FD00000
000FD00000
001FC00000
002F800000
007F400000
2AFE000000
3FF8000000
7F90000000
ENDCHAR
STARTCHAR uni0136
ENCODING 310
SWIDTH 612 0
DWIDTH 22 0
BBX 23 34 1 -8
BITMAP
00BE00000BF4
00BE00002FD0
00FD0000BF40
00FD0003FD00
01FC000FF400
01FC003FD000
02F800FF4000
02F807FD0000
03F41FF40000
03F07FD00000
07F1FF400000
07E7FD000000
0BFFFD000000
0BFFFF000000
0FFF7F800000
1FF82FC00000
1FE00FE00000
2F8007F40000
2F8003F80000
3F4001FD0000
3F4000BF0000
7F00007F4000
7F00002FC000
BE00000FE000
BE00000BF000
FD000003F800
000000000000
0007E0000000
0007E0000000
000BD0000000
000FC0000000
002F40000000
007E00000000
001800000000
ENDCHAR
STARTCHAR uni0137
ENCODING 311
SWIDTH 496 0
DWIDTH 18 0
BBX 18 35 0 -8
BITMAP
003F400000
003F400000
007F000000
007E000000
00BE000000
00BD000000
00FD000000
00FC000000
01FC001FE0
01F8007F80
02F801FE00
02F407F800
03F42FE000
03F0BF8000
07F2FD0000
07EBF40000
0BFFF00000
0BFFF40000
0FFEFC0000
0FF0FE0000
1FC07F0000
1F802F8000
2F801FD000
3F400BE000
3F4003F400
7F0002FC00
7F0000FD00
0000000000
002F400000
002F400000
003F000000
007E000000
00FD000000
01F8000000
00A0000000
ENDCHAR
STARTCHAR kgreenlandic
ENCODING 312
SWIDTH 544 0
DWIDTH 20 0
BBX 18 19 1 0
BITMAP
03F4000FF0
07F0007FC0
07F001FF00
0BE007FC00
0BD01FF000
0FD07FC000
0FC1FF0000
1FC7F80000
1FFFE00000
2FFFD00000
2FFFE00000
3F47F80000
3F02FD0000
7F00FF0000
7E007F8000
BE002FD000
BD000BF000
FD0007F800
FC0001FD00
ENDCHAR
STARTCHAR Lacute
ENCODING 313
SWIDTH 526 0
DWIDTH 19 0
BBX 16 32 1 0
BITMAP
0000BF40
0002FD00
000BF000
002FC000
002E0000
00000000
00BE0000
00BE0000
00FD0000
00FD0000
01FC0000
01FC0000
02F80000
02F80000
03F40000
03F40000
07F00000
07F00000
0BE00000
0BD00000
0FD00000
1FC00000
1FC00000
2F800000
2F800000
3F400000
3F400000
7F000000
7F000000
BFAAAAA9
BFFFFFFD
FFFFFFFD
ENDCHAR
STARTCHAR lacute
ENCODING 314
SWIDTH 240 0
DWIDTH 9 0
BBX 13 34 1 0
BITMAP
0000BF40
0002FD00
000BF400
001FC000
002E0000
00000000
00000000
00BE0000
00BD0000
00FD0000
00FC0000
01FC0000
01F80000
02F80000
02F40000
03F40000
03F00000
07F00000
07E00000
0BE00000
0FD00000
0FC00000
1FC00000
1F800000
2F800000
2F400000
3F400000
3F000000
7F000000
7E000000
BE000000
BD000000
FD000000
FC000000
ENDCHAR
STARTCHAR uni013B
ENCODING 315
SWIDTH 526 0
DWIDTH 19 0
BBX 16 35 1 -9
BITMAP
00BE0000
00BE0000
00FD0000
00FD0000
01FC0000
01FC0000
02F80000
02F80000
03F40000
03F40000
07F00000
07F00000
0BE00000
0BD00000
0FD00000
1FC00000
1FC00000
2F800000
2F800000
3F400000
3F400000
7F000000
7F000000
BFAAAAA9
BFFFFFFD
FFFFFFFD
00000000
00000000
001FC000
001F8000
002F4000
003F0000
00BE0000
00FC0000
00600000
ENDCHAR
STARTCHAR uni013C
ENCODING 316
SWIDTH 240 0
DWIDTH 9 0
BBX 11 36 -2 -9
BITMAP
0002F8
0002F4
0003F4
0003F0
0007F0
0007E0
000BE0
000BD0
000FD0
000FC0
001FC0
001F80
002F80
003F40
003F00
007F00
007E00
00BE00
00BD00
00FD00
00FC00
01FC00
01F800
02F800
02F400
03F400
03F000
000000
000000
07E000
0BD000
0FC000
1F8000
3F4000
7E0000
280000
ENDCHAR
STARTCHAR Lcaron
ENCODING 317
SWIDTH 526 0
DWIDTH 19 0
BBX 16 26 1 0
BITMAP
00BE00BD
00BE00FD
00FD00FC
00FD02F8
01FC03F0
01FC0BD0
02F80240
02F80000
03F40000
03F40000
07F00000
07F00000
0BE00000
0BD00000
0FD00000
1FC00000
1FC00000
2F800000
2F800000
3F400000
3F400000
7F000000
7F000000
BFAAAAA9
BFFFFFFD
FFFFFFFD
ENDCHAR
STARTCHAR lcaron
ENCODING 318
SWIDTH 313 0
DWIDTH 11 0
BBX 14 27 1 0
BITMAP
00BE0BD0
00BD0BD0
00FD0FC0
00FC1F80
01FC3F40
01F8BE00
02F82800
02F40000
03F40000
03F00000
07F00000
07E00000
0BE00000
0FD00000
0FC00000
1FC00000
1F800000
2F800000
2F400000
3F400000
3F000000
7F000000
7E000000
BE000000
BD000000
FD000000
FC000000
ENDCHAR
STARTCHAR Ldot
ENCODING 319
SWIDTH 526 0
DWIDTH 19 0
BBX 16 26 1 0
BITMAP
00BE0000
00BE0000
00FD0000
00FD0000
01FC0000
01FC0000
02F80000
02F80000
03F40000
03F40000
07F00640
07F01FD0
0BE01FD0
0BD00B80
0FD00000
1FC00000
1FC00000
2F800000
2F800000
3F400000
3F400000
7F000000
7F000000
BFAAAAA9
BFFFFFFD
FFFFFFFD
ENDCHAR
STARTCHAR ldot
ENCODING 320
SWIDTH 347 0
DWIDTH 13 0
BBX 11 27 1 0
BITMAP
00BE00
00BD00
00FD00
00FC00
01FC00
01F800
02F800
02F400
03F400
03F000
07F000
07E0A4
0BE2FC
0FD2FC
0FC1F4
1FC000
1F8000
2F8000
2F4000
3F4000
3F0000
7F0000
7E0000
BE0000
BD0000
FD0000
FC0000
ENDCHAR
STARTCHAR Lslash
ENCODING 321
SWIDTH 527 0
DWIDTH 19 0
BBX 17 26 0 0
BITMAP
002F800000
002F800000
003F400000
003F400000
007F000000
00BE000000
00BE000000
00FD000000
00FD000000
01FC1A0000
01FEFD0000
06FFF80000
3FFD400000
7FF4000000
53F4000000
07F0000000
07F0000000
0BE0000000
0BE0000000
0FD0000000
0FD0000000
1FC0000000
1FC0000000
2FEAAAAA40
2FFFFFFF40
3FFFFFFF40
ENDCHAR
STARTCHAR lslash
ENCODING 322
SWIDTH 266 0
DWIDTH 10 0
BBX 10 27 0 0
BITMAP
001FC0
001F80
002F80
002F40
003F40
003F00
007F00
007E00
00BE00
00BD00
00FD00
00FD60
01FFE0
06FF90
3FF800
7FF400
53F400
03F000
07F000
07E000
0BE000
0BD000
0FD000
1FC000
1FC000
2F8000
2F4000
ENDCHAR
STARTCHAR Nacute
ENCODING 323
SWIDTH 696 0
DWIDTH 25 0
BBX 24 32 1 0
BITMAP
00000000FF40
00000002FC00
0000000BE000
0000002F8000
0000006E0000
000000000000
00BF000000BE
00BF400000FD
00FF800000FC
00FFD00001FC
01FFE00001F8
01FFF40002F8
02FBF80002F4
02F9FC0003F4
03F4FE0003F0
03F4BF0007F0
07F03F4007E0
07F02FC00BE0
0BE01FD00BD0
0BD00BE00FD0
0FD007F41FC0
1FC002F81FC0
1FC001FC2F80
2F8000FE2F80
2F80007F3F40
3F40003FBF40
3F40002FFF00
7F00000FFF00
7F00000BFE00
BE000007FE00
BE000002FD00
FD000001FD00
ENDCHAR
STARTCHAR nacute
ENCODING 324
SWIDTH 540 0
DWIDTH 19 0
BBX 18 27 0 0
BITMAP
0000001FE0
0000007F40
000001FD00
000007F400
00000AD000
0000000000
0000000000
0000000000
01F81BE800
01F9FFFE00
02FBFAFF80
02FF402FC0
03FD001FC0
03F4000FD0
07F0000FC0
07E0000FC0
0BE0001FC0
0BD0001F80
0FD0002F80
0FC0002F40
1FC0003F40
2F80003F00
2F80007F00
3F40007E00
3F4000BE00
7F0000FD00
7E0000FC00
ENDCHAR
STARTCHAR uni0145
ENCODING 325
SWIDTH 696 0
DWIDTH 25 0
BBX 24 35 1 -9
BITMAP
00BF000000BE
00BF400000FD
00FF800000FC
00FFD00001FC
01FFE00001F8
01FFF40002F8
02FBF80002F4
02F9FC0003F4
03F4FE0003F0
03F4BF0007F0
07F03F4007E0
07F02FC00BE0
0BE01FD00BD0
0BD00BE00FD0
0FD007F41FC0
1FC002F81FC0
1FC001FC2F80
2F8000FE2F80
2F80007F3F40
3F40003FBF40
3F40002FFF00
7F00000FFF00
7F00000BFE00
BE000007FE00
BE000002FD00
FD000001FD00
000000000000
000000000000
0001F8000000
0002F4000000
0003F0000000
0007E0000000
000FD0000000
001F80000000
000A00000000
ENDCHAR
STARTCHAR uni0146
ENCODING 326
SWIDTH 540 0
DWIDTH 19 0
BBX 18 28 0 -9
BITMAP
01F81BE800
01F9FFFE00
02FBFAFF80
02FF402FC0
03FD001FC0
03F4000FD0
07F0000FC0
07E0000FC0
0BE0001FC0
0BD0001F80
0FD0002F80
0FC0002F40
1FC0003F40
2F80003F00
2F80007F00
3F40007E00
3F4000BE00
7F0000FD00
7E0000FC00
0000000000
0000000000
000FC00000
001F800000
002F400000
003F000000
00BE000000
00FC000000
0060000000
ENDCHAR
STARTCHAR Ncaron
ENCODING 327
SWIDTH 696 0
DWIDTH 25 0
BBX 24 32 1 0
BITMAP
00000F802F40
000007D0FD00
000001F7F000
000000BFC000
0000003E0000
000000000000
00BF000000BE
00BF400000FD
00FF800000FC
00FFD00001FC
01FFE00001F8
01FFF40002F8
02FBF80002F4
02F9FC0003F4
03F4FE0003F0
03F4BF0007F0
07F03F4007E0
07F02FC00BE0
0BE01FD00BD0
0BD00BE00FD0
0FD007F41FC0
1FC002F81FC0
1FC001FC2F80
2F8000FE2F80
2F80007F3F40
3F40003FBF40
3F40002FFF00
7F00000FFF00
7F00000BFE00
BE000007FE00
BE000002FD00
FD000001FD00
ENDCHAR
STARTCHAR ncaron
ENCODING 328
SWIDTH 540 0
DWIDTH 19 0
BBX 18 27 0 0
BITMAP
0002F407E0
0000BC2F80
00003EBD00
00001FF400
000007D000
0000000000
0000000000
0000000000
01F81BE800
01F9FFFE00
02FBFAFF80
02FF402FC0
03FD001FC0
03F4000FD0
07F0000FC0
07E0000FC0
0BE0001FC0
0BD0001F80
0FD0002F80
0FC0002F40
1FC0003F40
2F80003F00
2F80007F00
3F40007E00
3F4000BE00
7F0000FD00
7E0000FC00
ENDCHAR
STARTCHAR napostrophe
ENCODING 329
SWIDTH 540 0
DWIDTH 19 0
BBX 18 27 0 0
BITMAP
03F0000000
07E0000000
0BD0000000
0FC0000000
2F80000000
3F00000000
1800000000
0000000000
01F81BE800
01F9FFFE00
02FBFAFF80
02FF402FC0
03FD001FC0
03F4000FD0
07F0000FC0
07E0000FC0
0BE0001FC0
0BD0001F80
0FD0002F80
0FC0002F40
1FC0003F40
2F80003F00
2F80007F00
3F40007E00
3F4000BE00
7F0000FD00
7E0000FC00
ENDCHAR
STARTCHAR Eng
ENCODING 330
SWIDTH 676 0
DWIDTH 24 0
BBX 23 33 1 -7
BITMAP
00BE000001FC
00FF400001FC
00FF800002F8
01FFC00002F8
01FFE00003F4
02FFF00003F4
02FBF40007F0
03F5F80007F0
03F4FD000BE0
07F0BE000BE0
07F03F000FD0
0BE02F800FD0
0BE01FC01FC0
0FD00BD01FC0
0FD007F02F80
1FC003F42F80
1FC001F83F40
2F8000FD3F40
2F8000BE7F00
3F40003FBF00
3F00002FFE00
7F00001FFD00
7E00000BFD00
BE000007FC00
BD000003FC00
FD000002F800
00000002F800
00000003F400
00000007F400
0000000FE000
00000ABFD000
00000BFF4000
00000BF80000
ENDCHAR
STARTCHAR eng
ENCODING 331
SWIDTH 554 0
DWIDTH 20 0
BBX 18 26 0 -7
BITMAP
00F81BE800
01F9FFFF00
01FBFAFF80
02FF402FC0
03F8000FD0
03F4000BD0
07F0000BD0
07F0000FD0
0BE0000FC0
0BE0001FC0
0FD0001F80
0FD0002F80
1FC0002F40
1F80003F40
2F80003F00
2F40007F00
3F40007E00
3F0000BE00
7F0000BD00
000000FD00
000001FC00
000002FC00
000007F400
0003FFF000
0003FFC000
0003F90000
ENDCHAR
STARTCHAR Omacron
ENCODING 332
SWIDTH 671 0
DWIDTH 24 0
BBX 21 31 2 0
BITMAP
0000AAAAA900
0001FFFFFD00
0001FFFFFC00
000000000000
000000000000
00006FF90000
0007FFFFD000
001FFFFFF400
00BFD007FC00
01FE0001FE00
03F800007F00
0BF000003F40
0FD000002F40
1FC000002F80
2F4000002F80
3F4000002F80
7F0000002F80
7E0000002F40
BE0000003F40
BE0000003F00
BD0000007F00
BD000000BE00
BE000000FD00
BE000001FC00
7F000003F400
3F40000BF000
2FC0002FD000
0FF401FF4000
07FFFFFD0000
01FFFFE40000
001BFA400000
ENDCHAR
STARTCHAR omacron
ENCODING 333
SWIDTH 558 0
DWIDTH 20 0
BBX 18 25 1 0
BITMAP
001AAAAA40
002FFFFF80
002FFFFF80
0000000000
0000000000
0000000000
0006FF9000
006FFFF400
01FFEBFD00
07F900BF00
0BE0002F80
1FC0001FC0
2F80000FD0
3F00000FD0
7F00000FD0
BE00000FD0
BE00000FC0
BE00001F80
7E00002F80
7F00007F00
3F4000FE00
1FD007F800
0BFEBFE000
02FFFF8000
006FF90000
ENDCHAR
STARTCHAR Obreve
ENCODING 334
SWIDTH 671 0
DWIDTH 24 0
BBX 21 33 2 0
BITMAP
00007D00F800
00007D01F400
00003F47F000
00001FFFD000
000006FE0000
000000000000
000000000000
00006FF90000
0007FFFFD000
001FFFFFF400
00BFD007FC00
01FE0001FE00
03F800007F00
0BF000003F40
0FD000002F40
1FC000002F80
2F4000002F80
3F4000002F80
7F0000002F80
7E0000002F40
BE0000003F40
BE0000003F00
BD0000007F00
BD000000BE00
BE000000FD00
BE000001FC00
7F000003F400
3F40000BF000
2FC0002FD000
0FF401FF4000
07FFFFFD0000
01FFFFE40000
001BFA400000
ENDCHAR
STARTCHAR obreve
ENCODING 335
SWIDTH 558 0
DWIDTH 20 0
BBX 18 27 1 0
BITMAP
000B801F40
000BC02F00
0007E1BE00
0002FFF800
00006F9000
0000000000
0000000000
0000000000
0006FF9000
006FFFF400
01FFEBFD00
07F900BF00
0BE0002F80
1FC0001FC0
2F80000FD0
3F00000FD0
7F00000FD0
BE00000FD0
BE00000FC0
BE00001F80
7E00002F80
7F00007F00
3F4000FE00
1FD007F800
0BFEBFE000
02FFFF8000
006FF90000
ENDCHAR
STARTCHAR Ohungarumlaut
ENCODING 336
SWIDTH 671 0
DWIDTH 24 0
BBX 22 32 2 0
BITMAP
000000FE1FD0
000002F87F40
00000BE2FD00
00002F8BF400
00002E1BC000
000000000000
00006FF90000
0007FFFFD000
001FFFFFF400
00BFD007FC00
01FE0001FE00
03F800007F00
0BF000003F40
0FD000002F40
1FC000002F80
2F4000002F80
3F4000002F80
7F0000002F80
7E0000002F40
BE0000003F40
BE0000003F00
BD0000007F00
BD000000BE00
BE000000FD00
BE000001FC00
7F000003F400
3F40000BF000
2FC0002FD000
0FF401FF4000
07FFFFFD0000
01FFFFE40000
001BFA400000
ENDCHAR
STARTCHAR ohungarumlaut
ENCODING 337
SWIDTH 558 0
DWIDTH 20 0
BBX 19 27 1 0
BITMAP
00001FD2FC
00007F4BE0
0001FD2F80
0003F4FE00
0006D1B800
0000000000
0000000000
0000000000
0006FF9000
006FFFF400
01FFEBFD00
07F900BF00
0BE0002F80
1FC0001FC0
2F80000FD0
3F00000FD0
7F00000FD0
BE00000FD0
BE00000FC0
BE00001F80
7E00002F80
7F00007F00
3F4000FE00
1FD007F800
0BFEBFE000
02FFFF8000
006FF90000
ENDCHAR
STARTCHAR OE
ENCODING 338
SWIDTH 929 0
DWIDTH 33 0
BBX 33 26 1 0
BITMAP
00001BFFFFFFFFFF40
0002FFFFFFFFFFFF00
001FFEABFFAAAAAA00
007FD000FD00000000
00FE0000FC00000000
02F80001FC00000000
03F40001F800000000
0BE00002F800000000
0FD00002F400000000
0FC00003F400000000
1FC00003F000000000
1F800007FFFFFF8000
2F800007FFFFFF8000
2F40000BFAAAAA4000
3F40000FD000000000
3F00000FD000000000
7F00001FC000000000
7F00001FC000000000
7F00002F8000000000
3F40002F8000000000
2F80003F4000000000
1FC0003F4000000000
0BF4007F0000000000
03FFAAFFAAAAAA4000
00BFFFFFFFFFFF4000
001BFFFFFFFFFF0000
ENDCHAR
STARTCHAR oe
ENCODING 339
SWIDTH 885 0
DWIDTH 32 0
BBX 30 19 1 0
BITMAP
0006FE90006FE400
002FFFF807FFFD00
01FFEBFE1FFAFF40
03FD00BFBF802FC0
0BF0002FFE000BD0
1FD0001FF80007E0
2F80000FF40007E0
3F40000FE00007E0
7F00000FFFFFFFE0
7E00000FFFFFFFE0
BE00001FEAAAAA90
BE00002FC0000000
7E00003FC0000000
7F0000BFD0000000
3F4001FFE0000000
1FD007FBF8006C00
0BFABFE2FFABFD00
02FFFF40BFFFF800
006FE4001AFE8000
ENDCHAR
STARTCHAR Racute
ENCODING 340
SWIDTH 602 0
DWIDTH 22 0
BBX 20 32 1 0
BITMAP
0000000BF4
0000002FC0
000000BE00
000002F800
000006E000
0000000000
00BFFFF900
00BFFFFFD0
00FFAABFF8
00FD0006FD
01FC0000FE
01FC00007F
02F800007F
02F800007F
03F400007F
03F40000BE
07F00001FD
0BF00007F8
0BE0006FF0
0FFFFFFF80
0FFFFFFD00
1FEAABF400
1FC002F800
2FC001FC00
2F8000FD00
3F4000BF00
3F40007F40
7F00003F80
7F00002FC0
BE00001FD0
BE00000FE0
FD00000BF0
ENDCHAR
STARTCHAR racute
ENCODING 341
SWIDTH 333 0
DWIDTH 12 0
BBX 15 27 0 0
BITMAP
000007F8
00001FE0
00007F80
0000FD00
0001B400
00000000
00000000
00000000
01F86F80
01FAFF80
02FFFF40
02FF9500
03FD0000
03F40000
07F00000
07E00000
0BE00000
0BD00000
0FD00000
0FC00000
1FC00000
2F800000
2F800000
3F400000
3F400000
7F000000
7E000000
ENDCHAR
STARTCHAR uni0156
ENCODING 342
SWIDTH 602 0
DWIDTH 22 0
BBX 20 35 1 -9
BITMAP
00BFFFF900
00BFFFFFD0
00FFAABFF8
00FD0006FD
01FC0000FE
01FC00007F
02F800007F
02F800007F
03F400007F
03F40000BE
07F00001FD
0BF00007F8
0BE0006FF0
0FFFFFFF80
0FFFFFFD00
1FEAABF400
1FC002F800
2FC001FC00
2F8000FD00
3F4000BF00
3F40007F40
7F00003F80
7F00002FC0
BE00001FD0
BE00000FE0
FD00000BF0
0000000000
0000000000
001F800000
002F800000
002F400000
007F000000
00BD000000
01F8000000
0060000000
ENDCHAR
STARTCHAR uni0157
ENCODING 343
SWIDTH 333 0
DWIDTH 12 0
BBX 15 28 -2 -9
BITMAP
001F86F8
001FAFF8
002FFFF4
002FF950
003FD000
003F4000
007F0000
007E0000
00BE0000
00BD0000
00FD0000
00FC0000
01FC0000
02F80000
02F80000
03F40000
03F40000
07F00000
07E00000
00000000
00000000
0BD00000
0BD00000
0FC00000
1F800000
3F400000
7E000000
28000000
ENDCHAR
STARTCHAR Rcaron
ENCODING 344
SWIDTH 602 0
DWIDTH 22 0
BBX 20 32 1 0
BITMAP
0000F802F4
00007D0BD0
00001F7F00
00000BFC00
000003E000
0000000000
00BFFFFA00
00BFFFFFE0
00FFAABFF8
00FD0006FD
01FC0000FE
01FC00007F
02F800007F
02F800007F
03F400007F
03F40000BE
07F00001FD
0BF00007F8
0BE0006FF0
0FFFFFFF80
0FFFFFFD00
1FEAABF400
1FC002F800
2F8001FC00
2F8000FD00
3F4000BF00
3F40007F40
7F00003F80
7F00002FC0
BE00001FD0
BE00000FE0
FD00000BF0
ENDCHAR
STARTCHAR rcaron
ENCODING 345
SWIDTH 333 0
DWIDTH 12 0
BBX 15 27 0 0
BITMAP
007D01F8
002F07E0
000B9F80
0003FE00
0001F800
00000000
00000000
00000000
01F86F80
01FAFF80
02FFFF40
02FF9500
03FD0000
03F40000
07F00000
07E00000
0BE00000
0BD00000
0FD00000
0FC00000
1FC00000
2F800000
2F800000
3F400000
3F400000
7F000000
7E000000
ENDCHAR
STARTCHAR Sacute
ENCODING 346
SWIDTH 580 0
DWIDTH 21 0
BBX 20 32 1 0
BITMAP
0000000BF4
0000002FD0
000000BF40
000001FD00
000002F000
0000000000
00006FE900
000BFFFF80
003FFEFFF0
00FF8007F8
02FD0001FD
03F40000BE
07F00000BE
07F000006A
07F4000000
03F8000000
01FF400000
00BFF90000
001FFFD000
0002FFFD00
00001BFF40
000000BFC0
0000001FD0
0000000BE0
A800000BE0
FD00000BE0
FD00000FD0
BF00002FC0
3FD001FF40
1FFEBFFD00
02FFFFF400
006BFA4000
ENDCHAR
STARTCHAR sacute
ENCODING 347
SWIDTH 504 0
DWIDTH 18 0
BBX 17 27 1 0
BITMAP
000000BF40
000002FC00
00000BF000
00002F8000
00002E0000
0000000000
0000000000
0000000000
001BFE4000
00BFFFE000
03FFAFF800
0BF402FD00
0FD000BE00
0FC0006900
0FD0000000
0BF9000000
03FFE40000
00BFFF4000
0006FFE000
00001BF000
000003F400
FC0002F400
FD0003F400
BF401BF000
3FFAFFD000
0BFFFF4000
01BFE40000
ENDCHAR
STARTCHAR Scircumflex
ENCODING 348
SWIDTH 580 0
DWIDTH 21 0
BBX 20 32 1 0
BITMAP
000001F800
00000BFE00
00002F9F40
0000BE0BD0
0002F803E0
0000000000
00006FE900
000BFFFF80
003FFEFFF0
00FF8007F8
02FD0001FD
03F40000BE
07F00000BE
07F000006A
07F4000000
03F8000000
01FF400000
00BFF90000
001FFFD000
0002FFFD00
00001BFF40
000000BFC0
0000001FD0
0000000BE0
A800000BE0
FD00000BE0
FD00000FD0
BF00002FC0
3FD001FF40
1FFEBFFD00
02FFFFF400
006BFA4000
ENDCHAR
STARTCHAR scircumflex
ENCODING 349
SWIDTH 504 0
DWIDTH 18 0
BBX 16 27 1 0
BITMAP
00001F40
0000BFD0
0002FAF4
001FD0FD
002F407E
00000000
00000000
00000000
001BFE40
00BFFFE0
03FFAFF8
0BF402FD
0FD000BE
0FC00069
0FD00000
0BF90000
03FFE400
00BFFF40
0006FFE0
00001BF0
000003F4
FC0002F4
FD0003F4
BF401BF0
3FFAFFD0
0BFFFF40
01BFE400
ENDCHAR
STARTCHAR Scedilla
ENCODING 350
SWIDTH 580 0
DWIDTH 21 0
BBX 20 33 1 -7
BITMAP
00006FE900
000BFFFF80
003FFEFFF0
00FF8007F8
02FD0001FD
03F40000BE
07F00000BE
07F000006A
07F4000000
03F8000000
01FF400000
00BFF90000
001FFFD000
0002FFFD00
00001BFF40
000000BFC0
0000001FD0
0000000BE0
A800000BE0
FD00000BE0
FD00000FD0
BF00002FC0
3FD001FF40
1FFEBFFD00
02FFFFF400
006BFA4000
0007800000
000FE00000
0005F80000
0000B80000
0001F80000
002FE00000
003E400000
ENDCHAR
STARTCHAR scedilla
ENCODING 351
SWIDTH 504 0
DWIDTH 18 0
BBX 16 26 1 -7
BITMAP
001BFE40
00BFFFE0
03FFAFF8
0BF402FD
0FD000BE
0FC00069
0FD00000
0BF90000
03FFE400
00BFFF40
0006FFE0
00001BF0
000003F4
FC0002F4
FD0003F4
BF401BF0
3FFAFFD0
0BFFFF40
01BFE400
001F0000
002F8000
0017E000
0002E000
0007E000
00BFC000
00F90000
ENDCHAR
STARTCHAR Scaron
ENCODING 352
SWIDTH 580 0
DWIDTH 21 0
BBX 20 33 1 0
BITMAP
0000BC02F4
00003E0BD0
00001F6F40
000007FD00
000002F400
0000000000
0000000000
00006FE900
000BFFFF80
003FFEFFF0
00FF8007F8
02FD0001FD
03F40000BE
07F00000BE
07F000006A
07F4000000
03F8000000
01FF400000
00BFF90000
001FFFD000
0002FFFD00
00001BFF40
000000BFC0
0000001FD0
0000000BE0
A800000BE0
FD00000BE0
FD00000FD0
BF00002FC0
3FD001FF40
1FFEBFFD00
02FFFFF400
006BFA4000
ENDCHAR
STARTCHAR scaron
ENCODING 353
SWIDTH 504 0
DWIDTH 18 0
BBX 17 27 1 0
BITMAP
000F802F40
0007E0BD00
0001F7F400
0000BFC000
00002F0000
0000000000
0000000000
0000000000
001BFE4000
00BFFFE000
03FFAFF800
0BF402FD00
0FD000BE00
0FC0006900
0FD0000000
0BF9000000
03FFE40000
00BFFF4000
0006FFE000
00001BF000
000003F400
FC0002F400
FD0003F400
BF401BF000
3FFAFFD000
0BFFFF4000
01BFE40000
ENDCHAR
STARTCHAR uni0162
ENCODING 354
SWIDTH 583 0
DWIDTH 21 0
BBX 20 33 3 -7
BITMAP
BFFFFFFFFE
BFFFFFFFFD
AAAAFEAAA9
0001FC0000
0001FC0000
0002F80000
0002F80000
0003F40000
0003F40000
0007F00000
0007F00000
000BE00000
000BE00000
000FD00000
000FD00000
001FC00000
001FC00000
002F800000
002F800000
003F400000
003F400000
007F000000
007F000000
00BE000000
00BE000000
00FD000000
00B8000000
00FE000000
005F400000
000F800000
002F400000
03FE000000
03E4000000
ENDCHAR
STARTCHAR uni0163
ENCODING 355
SWIDTH 321 0
DWIDTH 12 0
BBX 11 31 1 -7
BITMAP
007F00
007E00
00BE00
00BD00
00FD00
7FFFF8
BFFFF4
6AFEA0
02F800
02F400
03F400
03F000
07F000
07E000
0BE000
0BD000
0FD000
0FC000
1F8000
1F8000
1FC000
1FFA00
0BFE00
02FD00
01E000
02F800
017E00
002E00
007E00
0BF800
0F9000
ENDCHAR
STARTCHAR Tcaron
ENCODING 356
SWIDTH 583 0
DWIDTH 21 0
BBX 20 32 3 0
BITMAP
000F802F40
0007E0BD00
0001F7F000
0000BFC000
00003F0000
0000000000
BFFFFFFFFE
BFFFFFFFFD
AAAAFEAAA9
0001FC0000
0001FC0000
0002F80000
0002F80000
0003F40000
0003F40000
0007F00000
0007F00000
000BE00000
000BE00000
000FD00000
000FD00000
001FC00000
001FC00000
002F800000
002F800000
003F400000
003F400000
007F000000
007F000000
00BE000000
00BE000000
00FD000000
ENDCHAR
STARTCHAR tcaron
ENCODING 357
SWIDTH 341 0
DWIDTH 12 0
BBX 15 29 1 0
BITMAP
000000FC
000001F8
000002F4
000003F0
00000BE0
007F0FC0
007E0600
00BE0000
00BD0000
00FD0000
7FFFF800
BFFFF400
6AFEA000
02F80000
02F40000
03F40000
03F00000
07F00000
07E00000
0BE00000
0BD00000
0FD00000
0FC00000
1F800000
1F800000
1FC00000
1FFA0000
0BFE0000
02FD0000
ENDCHAR
STARTCHAR Tbar
ENCODING 358
SWIDTH 583 0
DWIDTH 21 0
BBX 20 26 3 0
BITMAP
BFFFFFFFFE
BFFFFFFFFD
AAAAFEAAA9
0001FC0000
0001FC0000
0002F80000
0002F80000
0003F40000
0003F40000
02FFFFF000
03FFFFF000
02AFFA9000
000BE00000
000FD00000
000FD00000
001FC00000
001FC00000
002F800000
002F800000
003F400000
003F400000
007F000000
007F000000
00BE000000
00BE000000
00FD000000
ENDCHAR
STARTCHAR tbar
ENCODING 359
SWIDTH 321 0
DWIDTH 12 0
BBX 12 24 0 0
BITMAP
001FC0
001F80
002F80
002F40
003F40
1FFFFE
2FFFFD
1ABFA8
00BE00
00BD00
00FD00
BFFFFC
FFFFFC
AAFEA4
02F800
02F400
03F400
03F000
07F000
07E000
07F000
07FE80
02FF80
00BF40
ENDCHAR
STARTCHAR Utilde
ENCODING 360
SWIDTH 633 0
DWIDTH 23 0
BBX 21 33 2 0
BITMAP
000015002800
0001FF80B800
0003FFFAF400
0007D1BFE000
000B801F8000
000000000000
000000000000
03F400001FC0
07F000002F80
07F000002F80
0BE000003F40
0BE000003F40
0FD000007F00
0FD000007F00
1FC00000BE00
1FC00000BE00
2F800000FD00
2F800000FD00
3F400001FC00
3F400001FC00
7F000002F800
7F000002F800
BE000003F400
BE000003F400
FD000007F000
FD000007F000
FD00000FE000
BE00001FC000
7F40007F8000
3FD002FE0000
1FFFBFF80000
07FFFFD00000
006FF9000000
ENDCHAR
STARTCHAR utilde
ENCODING 361
SWIDTH 539 0
DWIDTH 19 0
BBX 17 27 2 0
BITMAP
0005400A00
002FE01F00
00BFFEBE00
00F82FFD00
01F006E400
0000000000
0000000000
0000000000
0FC0002F40
1FC0003F40
1F80003F00
2F80007F00
2F40007E00
3F4000BE00
3F0000BD00
7F0000FD00
7E0000FC00
BE0001FC00
BD0002F800
FD0002F800
FC0003F400
FC0003F400
FD000BF000
BE007FE000
7FEBFFE000
2FFFFBD000
06FE4BD000
ENDCHAR
STARTCHAR Umacron
ENCODING 362
SWIDTH 633 0
DWIDTH 23 0
BBX 21 31 2 0
BITMAP
0001AAAAA400
0003FFFFF800
0003FFFFF400
000000000000
000000000000
03F400001FC0
07F000002F80
07F000002F80
0BE000003F40
0BE000003F40
0FD000007F00
0FD000007F00
1FC00000BE00
1FC00000BE00
2F800000FD00
2F800000FD00
3F400001FC00
3F400001FC00
7F000002F800
7F000002F800
BE000003F400
BE000003F400
FD000007F000
FD000007F000
FD00000FE000
BE00001FC000
7F40007F8000
3FD002FE0000
1FFFBFF80000
07FFFFD00000
006FF9000000
ENDCHAR
STARTCHAR umacron
ENCODING 363
SWIDTH 539 0
DWIDTH 19 0
BBX 17 25 2 0
BITMAP
006AAAAA00
00BFFFFF00
00BFFFFE00
0000000000
0000000000
0000000000
0FC0002F40
1FC0003F40
1F80003F00
2F80007F00
2F40007E00
3F4000BE00
3F0000BD00
7F0000FD00
7E0000FC00
BE0001FC00
BD0002F800
FD0002F800
FC0003F400
FC0003F400
FD000BF000
BE007FE000
7FEBFFE000
2FFFFBD000
06FE4BD000
ENDCHAR
STARTCHAR Ubreve
ENCODING 364
SWIDTH 633 0
DWIDTH 23 0
BBX 21 32 2 0
BITMAP
0000F802F000
0000F803E000
0000BD1BD000
00003FFF8000
00000BF90000
000000000000
03F400001FC0
07F000002F80
07F000002F80
0BE000003F40
0BE000003F40
0FD000007F00
0FD000007F00
1FC00000BE00
1FC00000BE00
2F800000FD00
2F800000FD00
3F400001FC00
3F400001FC00
7F000002F800
7F000002F800
BE000003F400
BE000003F400
FD000007F000
FD000007F000
FD00000FE000
BE00001FC000
7F40007F8000
3FD002FE0000
1FFFBFF80000
07FFFFD00000
006FF9000000
ENDCHAR
STARTCHAR ubreve
ENCODING 365
SWIDTH 539 0
DWIDTH 19 0
BBX 17 27 2 0
BITMAP
002F007D00
002F00BC00
001F96F800
000BFFE000
0001BE4000
0000000000
0000000000
0000000000
0FC0002F40
1FC0003F40
1F80003F00
2F80007F00
2F40007E00
3F4000BE00
3F0000BD00
7F0000FD00
7E0000FC00
BE0001FC00
BD0002F800
FD0002F800
FC0003F400
FC0003F400
FD000BF000
BE007FE000
7FEBFFE000
2FFFFBD000
06FE4BD000
ENDCHAR
STARTCHAR Uring
ENCODING 366
SWIDTH 633 0
DWIDTH 23 0
BBX 21 35 2 0
BITMAP
000001A40000
00000BFD0000
00001E4B4000
00002C074000
00002C074000
00002C0B4000
00001FBE0000
000006F40000
000000000000
03F400001FC0
07F000002F80
07F000002F80
0BE000003F40
0BE000003F40
0FD000007F00
0FD000007F00
1FC00000BE00
1FC00000BE00
2F800000FD00
2F800000FD00
3F400001FC00
3F400001FC00
7F000002F800
7F000002F800
BE000003F400
BE000003F400
FD000007F000
FD000007F000
FD00000FE000
BE00001FC000
7F40007F8000
3FD002FE0000
1FFFBFF80000
07FFFFD00000
006FF9000000
ENDCHAR
STARTCHAR uring
ENCODING 367
SWIDTH 539 0
DWIDTH 19 0
BBX 17 29 2 0
BITMAP
0000190000
0001FF8000
0003D1E000
000740E000
000740E000
000741E000
0002EBC000
0000BE0000
0000000000
0000000000
0FC0002F40
1FC0003F40
1F80003F00
2F80007F00
2F40007E00
3F4000BE00
3F0000BD00
7F0000FD00
7E0000FC00
BE0001FC00
BD0002F800
FD0002F800
FC0003F400
FC0003F400
FD000BF000
BE007FE000
7FEBFFE000
2FFFFBD000
06FE4BD000
ENDCHAR
STARTCHAR Uhungarumlaut
ENCODING 368
SWIDTH 633 0
DWIDTH 23 0
BBX 21 32 2 0
BITMAP
000002F83F80
00000BF1FE00
00001FC7F800
00007F1FD000
0000AD2B4000
000000000000
03F400001FC0
07F000002F80
07F000002F80
0BE000003F40
0BE000003F40
0FD000007F00
0FD000007F00
1FC00000BE00
1FC00000BE00
2F800000FD00
2F800000FD00
3F400001FC00
3F400001FC00
7F000002F800
7F000002F800
BE000003F400
BE000003F400
FD000007F000
FD000007F000
FD00000FE000
BE00001FC000
7F40007F8000
3FD002FE0000
1FFFBFF80000
07FFFFD00000
006FF9000000
ENDCHAR
STARTCHAR uhungarumlaut
ENCODING 369
SWIDTH 539 0
DWIDTH 19 0
BBX 19 27 2 0
BITMAP
00007F4BF4
0001FD2FC0
0003F4BE00
000FD2F800
001B46E000
0000000000
0000000000
0000000000
0FC0002F40
1FC0003F40
1F80003F00
2F80007F00
2F40007E00
3F4000BE00
3F0000BD00
7F0000FD00
7E0000FC00
BE0001FC00
BD0002F800
FD0002F800
FC0003F400
FC0003F400
FD000BF000
BE007FE000
7FEBFFE000
2FFFFBD000
06FE4BD000
ENDCHAR
STARTCHAR Uogonek
ENCODING 370
SWIDTH 633 0
DWIDTH 23 0
BBX 21 33 2 -7
BITMAP
03F400001FC0
03F400001FC0
07F000002F80
07F000002F80
0BE000003F40
0BE000003F40
0FD000007F00
0FD000007F00
1FC00000BE00
1FC00000BE00
2F800000FD00
2F800000FD00
3F400001FC00
3F400001FC00
7F000002F800
7E000002F800
BE000003F400
BE000003F400
BD000007F000
BE00000BE000
BF00001FD000
7F40007F8000
2FD002FF0000
0FFFBFFC0000
02FFFFE00000
006FFE000000
0002F8000000
0007E0000000
000BD0000000
000BC0000000
000BE6000000
0007FF000000
0001F9000000
ENDCHAR
STARTCHAR uogonek
ENCODING 371
SWIDTH 539 0
DWIDTH 19 0
BBX 17 26 2 -7
BITMAP
0FC0002F40
1FC0003F40
1F80003F00
2F80007F00
2F40007E00
3F4000BE00
3F0000BD00
7F0000FD00
7E0000FC00
BE0001FC00
BD0002F800
FD0002F800
FC0003F400
FC0003F400
FD000BF000
BE007FE000
7FEBFFE000
2FFFEBD000
06FE4BD000
00002F4000
0000FC0000
0002F00000
0003E00000
0003F64000
0003FF4000
0000BE0000
ENDCHAR
STARTCHAR Wcircumflex
ENCODING 372
SWIDTH 865 0
DWIDTH 31 0
BBX 30 32 3 0
BITMAP
00000007D0000000
0000002FF4000000
000000BEBD000000
000007F43F400000
00000BD01F800000
0000000000000000
BE00002F40000FD0
7E00003F80001FC0
7E00007F80002F80
7F0000FF80003F40
7F0001FFC0007F00
3F0002FFC000BE00
3F0003FBC000FC00
3F000BDBD002F800
3F400FC7D003F400
3F401F87D007F000
2F403F07E00BE000
2F407E03E00FD000
2F40BD03E01F8000
2F80FC02F02F4000
1F82F402F03F0000
1F83F002F07E0000
1F87E001F4FD0000
1F8BC001F5FC0000
0F9F8001F6F80000
0FAF4000F7F00000
0FBE0000FBE00000
0FFD0000FFD00000
0FFC0000BFC00000
0BF80000BF800000
0BF00000BF400000
0BE000007E000000
ENDCHAR
STARTCHAR wcircumflex
ENCODING 373
SWIDTH 733 0
DWIDTH 26 0
BBX 25 27 2 0
BITMAP
000000BC000000
000007FF000000
00001FDF800000
0000BF47E00000
0000FC02F40000
00000000000000
00000000000000
00000000000000
BD0003E0002F80
BD000BF0003F40
7D000FF0007E00
7E001FF400BD00
7E003FF401FC00
3E007DF402F400
3E00FCF803F000
3F01F4F807E000
2F03F0BC0FC000
2F07D0BC1F8000
2F0BC07C2F4000
2F5F407D3E0000
1F6F007DBD0000
1FBE003EF80000
1FFC003FF40000
0FF8002FF00000
0FF0002FD00000
0FE0001FC00000
0BC0001F800000
ENDCHAR
STARTCHAR Ycircumflex
ENCODING 374
SWIDTH 587 0
DWIDTH 21 0
BBX 20 32 3 0
BITMAP
00001F8000
0000BFD000
0002FAF400
001FE0FD00
002F407E00
0000000000
FE000000FF
BF000002FD
3F400007F8
2F80000FF0
1FC0002FD0
0FD0007F80
0BE000FE00
07F002FD00
03F407F400
02F80FE000
01FC2FC000
00FD7F4000
00BEFE0000
007FFC0000
003FF40000
002FE00000
001FC00000
002F800000
002F800000
003F400000
003F400000
007F000000
007F000000
00BE000000
00BE000000
00FD000000
ENDCHAR
STARTCHAR ycircumflex
ENCODING 375
SWIDTH 463 0
DWIDTH 17 0
BBX 20 34 -2 -7
BITMAP
000001F800
000007FE00
00002F9F80
0000BE0BD0
0001F803F0
0000000000
0000000000
0000000000
00FD0000FD
00BD0002FC
00BE0003F4
007E000BE0
007F000FD0
003F002F80
003F403F40
002F40BE00
002F80FD00
001F82F800
001FC3F000
000FCBE000
000BDFC000
000BEF8000
0007FF0000
0007FE0000
0003FC0000
0003F40000
0003F00000
000BD00000
001FC00000
002F400000
01BE000000
7FFC000000
7FF4000000
7F80000000
ENDCHAR
STARTCHAR Ydieresis
ENCODING 376
SWIDTH 587 0
DWIDTH 21 0
BBX 20 31 3 0
BITMAP
000A401900
002FC07F40
002FC07F40
001F402E00
0000000000
FE000000FF
BF000002FD
3F400007F8
2F80000FF0
1FC0002FD0
0FD0007F80
0BE000FE00
07F002FD00
03F407F400
02F80FE000
01FC2FC000
00FD7F4000
00BEFE0000
007FFC0000
003FF40000
002FE00000
001FC00000
002F800000
002F800000
003F400000
003F400000
007F000000
007F000000
00BE000000
00BE000000
00FD000000
ENDCHAR
STARTCHAR Zacute
ENCODING 377
SWIDTH 585 0
DWIDTH 21 0
BBX 23 32 -1 0
BITMAP
00000000BF40
00000002FD00
0000000BF000
0000002FC000
0000002E0000
000000000000
002FFFFFFFF8
003FFFFFFFF4
002AAAAAAFF0
000000002FD0
000000007F80
00000001FE00
00000003FC00
0000000BF400
0000002FD000
0000007F4000
000001FE0000
000007F80000
00000FF00000
00002FD00000
0000BF400000
0001FE000000
0007F8000000
000FE0000000
003FC0000000
00BF40000000
02FD00000000
07F800000000
1FE000000000
3FEAAAAAA800
3FFFFFFFFC00
7FFFFFFFF800
ENDCHAR
STARTCHAR zacute
ENCODING 378
SWIDTH 485 0
DWIDTH 17 0
BBX 18 27 -1 0
BITMAP
0000001FE0
0000007F40
000001FD00
000007F400
00000AD000
0000000000
0000000000
0000000000
00FFFFFFF0
00FFFFFFF0
01AAAABFE0
0000007F80
000000FE00
000003FC00
00000BF000
00002FD000
0000BF4000
0002FD0000
000BF40000
001FE00000
007F800000
01FE000000
07F8000000
0FE0000000
2FEAAAA900
3FFFFFFE00
7FFFFFFD00
ENDCHAR
STARTCHAR Zdotaccent
ENCODING 379
SWIDTH 585 0
DWIDTH 21 0
BBX 23 31 -1 0
BITMAP
0000001A0000
0000003F8000
0000003F8000
0000001E0000
000000000000
002FFFFFFFF8
003FFFFFFFF4
002AAAAAAFF0
000000002FD0
000000007F80
00000001FE00
00000003FC00
0000000BF400
0000002FD000
0000007F4000
000001FE0000
000007F80000
00000FF00000
00002FD00000
0000BF400000
0001FE000000
0007F8000000
000FE0000000
003FC0000000
00BF40000000
02FD00000000
07F800000000
1FE000000000
3FEAAAAAA800
3FFFFFFFFC00
7FFFFFFFF800
ENDCHAR
STARTCHAR zdotaccent
ENCODING 380
SWIDTH 485 0
DWIDTH 17 0
BBX 18 26 -1 0
BITMAP
0000029000
00000BF000
00000BF000
000007D000
0000000000
0000000000
0000000000
00FFFFFFF0
00FFFFFFF0
01AAAABFE0
0000007F80
000000FE00
000003FC00
00000BF000
00002FD000
0000BF4000
0002FD0000
000BF40000
001FE00000
007F800000
01FE000000
07F8000000
0FE0000000
2FEAAAA900
3FFFFFFE00
7FFFFFFD00
ENDCHAR
STARTCHAR Zcaron
ENCODING 381
SWIDTH 585 0
DWIDTH 21 0
BBX 23 32 -1 0
BITMAP
00000BC02F40
000003E0BD00
000001F6F400
000000BFD000
0000002F0000
000000000000
002FFFFFFFF8
003FFFFFFFF4
002AAAAAAFF0
000000002FD0
000000007F80
00000001FE00
00000003FC00
0000000BF400
0000002FD000
0000007F4000
000001FE0000
000007F80000
00000FF00000
00002FD00000
0000BF400000
0001FE000000
0007F8000000
000FE0000000
003FC0000000
00BF40000000
02FD00000000
07F800000000
1FE000000000
3FEAAAAAA800
3FFFFFFFFC00
7FFFFFFFF800
ENDCHAR
STARTCHAR zcaron
ENCODING 382
SWIDTH 485 0
DWIDTH 17 0
BBX 18 27 -1 0
BITMAP
0002F407E0
0000BC1F80
00003EBD00
00001FF400
000007D000
0000000000
0000000000
0000000000
00FFFFFFF0
00FFFFFFF0
01AAAABFE0
0000007F80
000000FE00
000003FC00
00000BF000
00002FD000
0000BF4000
0002FD0000
000BF40000
001FE00000
007F800000
01FE000000
07F8000000
0FE0000000
2FEAAAA900
3FFFFFFE00
7FFFFFFD00
ENDCHAR
STARTCHAR longs
ENCODING 383
SWIDTH 245 0
DWIDTH 9 0
BBX 13 27 1 0
BITMAP
0002BF40
001FFF40
003FFA40
00BF4000
00FD0000
01FC0000
02F80000
02F40000
03F40000
03F00000
07F00000
07E00000
0BE00000
0BD00000
0FD00000
0FC00000
1FC00000
1F800000
2F800000
2F400000
3F400000
3F000000
7F000000
BE000000
BD000000
FD000000
FC000000
ENDCHAR
STARTCHAR uni018F
ENCODING 399
SWIDTH 675 0
DWIDTH 24 0
BBX 22 26 1 0
BITMAP
0001AFFA4000
001FFFFFE000
002FFFFFFC00
001E4002FF00
000000007F80
000000001FC0
000000000FD0
000000000BE0
0000000007E0
0000000007F0
0000000007F0
000000000BF0
3FFFFFFFFFE0
3FFFFFFFFFE0
3FAAAAAAAFD0
7F0000001FD0
7F0000002FC0
7F0000003F80
3F0000007F00
3F400000FE00
2F800002FC00
1FD0000BF400
0BF8007FD000
02FFEFFF4000
00BFFFF80000
001AFE900000
ENDCHAR
STARTCHAR florin
ENCODING 402
SWIDTH 334 0
DWIDTH 12 0
BBX 18 34 -3 -7
BITMAP
000001BF90
000007FFC0
00001FFEC0
00003F9000
00007F0000
0000BE0000
0000BD0000
0000FD0000
003FFFF800
003FFFF400
002AFEA400
0002F80000
0002F80000
0002F40000
0003F40000
0003F00000
0007F00000
0007E00000
000BE00000
000BD00000
000FD00000
000FC00000
001FC00000
001F800000
002F800000
002F400000
003F400000
003F400000
007F000000
00BE000000
01FD000000
ABFC000000
FFF0000000
BE40000000
ENDCHAR
STARTCHAR Ohorn
ENCODING 416
SWIDTH 670 0
DWIDTH 24 0
BBX 26 28 2 0
BITMAP
00000000000690
00000000000BD0
00006FF9000FC0
0007FFFF802F80
002FFFFFF5BF00
00BF900BFFFD00
02FD0001FFE000
07F40000BF0000
0FE000007F0000
1FC000003F4000
2F8000003F4000
3F4000003F4000
7F0000003F4000
BE0000003F4000
BD0000003F4000
FD0000007F0000
FD0000007F0000
FD000000BE0000
FC000000FD0000
FD000001FC0000
FD000002F80000
BE000007F40000
7F00000FE00000
3F80003FC00000
1FE402FF400000
0BFFFFFD000000
02FFFFE0000000
002BFA40000000
ENDCHAR
STARTCHAR ohorn
ENCODING 417
SWIDTH 559 0
DWIDTH 20 0
BBX 22 22 1 0
BITMAP
000000000140
0000000007D0
0000000007D0
0006FF900FC0
002FFFFD6F40
01FFEBFFFE00
03FD00BFE400
0BF0002FC000
1FC0001FD000
2F80000FD000
3F40000FD000
7F00000FD000
BE00000FD000
BE00000FC000
BE00001F8000
BE00002F4000
7F00007F0000
3F4001FD0000
2FD007F80000
0BFEBFE00000
02FFFF800000
006FE8000000
ENDCHAR
STARTCHAR Uhorn
ENCODING 431
SWIDTH 679 0
DWIDTH 24 0
BBX 28 28 2 0
BITMAP
00000000000014
0000000000003E
03F400000FC07D
03F400001FC0BC
07F000002FC1F8
07F000002F9BF0
0BE000003FFFD0
0BE000003FFE00
0FD000007F4000
0FD000007F0000
1FC00000BF0000
1FC00000BE0000
2F800000FD0000
2F800000FD0000
3F400001FC0000
3F400001FC0000
7F000002F80000
7F000002F80000
BE000003F40000
BE000003F40000
BD000007F00000
BE00000BE00000
BF00001FD00000
7F40007F800000
2FD002FF000000
0FFFBFFC000000
02FFFFE0000000
006FFA00000000
ENDCHAR
STARTCHAR uhorn
ENCODING 432
SWIDTH 604 0
DWIDTH 22 0
BBX 22 21 2 0
BITMAP
0000000001E0
0000000002E0
0FC0002F43D0
1FC0003F5FC0
1F80003FFF40
2F80007FE400
2F40007E0000
3F4000BE0000
3F0000BD0000
7F0000FD0000
7E0000FC0000
BE0001FC0000
BD0001F80000
FD0002F80000
FC0003F40000
FC0003F40000
FD000BF00000
BF007FF00000
7FEBFFE00000
2FFFFBD00000
06FE4BD00000
ENDCHAR
STARTCHAR uni01F0
ENCODING 496
SWIDTH 249 0
DWIDTH 9 0
BBX 18 33 -5 -7
BITMAP
0002E00BD0
0001F82F40
00007DBD00
00002FF000
00000BC000
0000000000
0000000000
00002F4000
00003F4000
00003F0000
00007F0000
00007E0000
0000BE0000
0000BD0000
0000FD0000
0000FC0000
0001FC0000
0001F80000
0002F80000
0002F40000
0003F40000
0003F00000
0007F00000
000BE00000
000BE00000
000FD00000
000FD00000
001FC00000
002F800000
007F400000
2AFE000000
3FF8000000
7F90000000
ENDCHAR
STARTCHAR Aringacute
ENCODING 506
SWIDTH 637 0
DWIDTH 23 0
BBX 22 34 -1 0
BITMAP
000000001FD0
000000007E00
00000001F400
000000000000
0000001B8000
0000003DB000
000000747000
000000707000
0000007FE000
0000007FC000
000000FFC000
000001FFC000
000003FBD000
000007E7D000
00000FD7E000
00002F83F000
00003F03F000
0000BE02F400
0000FC02F400
0002F401F800
0007F000F800
000BD000FC00
001FC000BD00
002F4000BD00
007FFFFFFE00
00FFFFFFFE00
01FEAAAABF00
03F400003F40
07E000002F40
0FD000002F80
2F8000001F80
3F4000001FC0
BE0000000FC0
FD0000000FD0
ENDCHAR
STARTCHAR aringacute
ENCODING 507
SWIDTH 532 0
DWIDTH 19 0
BBX 17 29 1 0
BITMAP
0000002F80
000000BD00
000002E000
0000000000
00002F4000
00007AD000
0000E0A000
0000E0E000
0000B6D000
00002F4000
0006FE4000
007FFFF400
02FFABFC00
07F801FE00
0BE000BE00
0A90007F00
0000007E00
0000007E00
006BFFFD00
07FFFFFD00
1FF955FC00
7F8000FC00
BE0001F800
FD0002F800
FD0007F400
BF406FF400
7FFFFFF400
2FFFF7F400
06FE43F400
ENDCHAR
STARTCHAR AEacute
ENCODING 508
SWIDTH 911 0
DWIDTH 33 0
BBX 36 33 -2 0
BITMAP
000000000007F80000
00000000001FE00000
00000000003F800000
0000000000FE000000
0000000001B4000000
000000000000000000
000000000000000000
0000000003FFFFFFFE
000000000BFFFFFFFD
000000002FFEAAAAA8
000000007FFD000000
00000000FEFC000000
00000002F9FC000000
0000000BF1FC000000
0000001FD1F8000000
0000003F82F8000000
000000BF02F4000000
000002FD02F4000000
000007F803FFFFFF40
00000FF003FFFFFF00
00002FD007FAAAAA00
0000BF4007E0000000
0001FE0007E0000000
0003FC000BE0000000
000BFFFFFFD0000000
002FFFFFFFD0000000
007FFFFFFFC0000000
00FF40000FC0000000
02FD00001FC0000000
0BF800001F80000000
1FE000001FEAAAAA40
3FC000002FFFFFFF40
BF4000002FFFFFFF40
ENDCHAR
STARTCHAR aeacute
ENCODING 509
SWIDTH 823 0
DWIDTH 30 0
BBX 29 27 0 0
BITMAP
000000000BF40000
000000001FD00000
000000007F400000
00000001FD000000
00000002B4000000
0000000000000000
0000000000000000
0000000000000000
0006FF9002BE8000
006FFFF82FFFF400
01FFEBFEBFEBFD00
03FD00BFFD00BE00
07F4003FF0003F00
06A0003FD0002F40
0000003F80002F40
0000003F40002F40
006BFFFFFFFFFF40
06FFFFFFFFFFFF40
1FFE95BFAAAAAA00
3FD000BE00000000
7F4000FE00000000
7E0000FF00000000
7E0002FF40000000
7F401BFFD001B000
3FEAFFDBFEAFF400
1FFFFE02FFFFE000
02FF90006FFA4000
ENDCHAR
STARTCHAR Oslashacute
ENCODING 510
SWIDTH 671 0
DWIDTH 24 0
BBX 24 36 1 -2
BITMAP
00000000BF40
00000002FC00
0000000BE000
0000002F8000
0000006E0000
000000000000
000000000000
00000000001A
00001BFE407D
0001BFFFF5F4
0007FFFFFFE0
002FF401FF80
007F80003FC0
00FE00007FD0
02F80000FFD0
03F40002EBE0
0BE0000BCBE0
0FD0001F4BE0
0FD0007D0BE0
1FC000F80BE0
2F8002E00BD0
2F800BC00FD0
2F401F401FC0
3F407D001FC0
3F40F8002F80
3F42E0003F40
2F4BC0007F00
2F9F4000FD00
1FFE0002FC00
0FF8000BF400
07F9007FD000
07FFFFFF4000
1FBFFFF90000
3E0AFE900000
B80000000000
500000000000
ENDCHAR
STARTCHAR oslashacute
ENCODING 511
SWIDTH 554 0
DWIDTH 20 0
BBX 18 29 1 -2
BITMAP
000000FE00
000003F800
00000FE000
00002F8000
00006E0000
0000000000
0000000290
0000000B80
0006FF9F00
002FFFFD00
01FFEBFE00
07FD01FF40
0BE002EF80
1FC00B8FC0
2F401F0FD0
3F003D0FD0
7E00B80FD0
BE01F00FC0
BD03D01FC0
BD0B802F80
BD1F003F40
BE3D007F00
7FB801FD00
2FF007F800
1FFABFE000
0BFFFF8000
1F6FE40000
3D00000000
B800000000
ENDCHAR
STARTCHAR uni0218
ENCODING 536
SWIDTH 580 0
DWIDTH 21 0
BBX 20 35 1 -9
BITMAP
00006FE900
000BFFFF80
003FFEFFF0
00FF8007F8
02FD0001FD
03F40000BE
07F00000BE
07F000006A
07F4000000
03F8000000
01FF400000
00BFF90000
001FFFD000
0002FFFD00
00001BFF40
000000BFC0
0000001FD0
0000000BE0
A800000BE0
FD00000BE0
FD00000FD0
BF00002FC0
3FD001FF40
1FFEBFFD00
02FFFFF400
006BFA4000
0000000000
0000000000
000FC00000
001F800000
002F800000
003F400000
007E000000
00FC000000
0060000000
ENDCHAR
STARTCHAR uni0219
ENCODING 537
SWIDTH 504 0
DWIDTH 18 0
BBX 16 28 1 -9
BITMAP
001BFE40
00BFFFE0
03FFAFF8
0BF402FD
0FD000BE
0FC00069
0FD00000
0BF90000
03FFE400
00BFFF40
0006FFE0
00001BF0
000003F4
FC0002F4
FD0003F4
BF401BF0
3FFAFFD0
0BFFFF40
01BFE400
00000000
00000000
003F0000
007E0000
007E0000
00FD0000
01F80000
03F00000
01900000
ENDCHAR
STARTCHAR uni021A
ENCODING 538
SWIDTH 583 0
DWIDTH 21 0
BBX 20 35 3 -9
BITMAP
BFFFFFFFFE
BFFFFFFFFD
AAAAFEAAA9
0001FC0000
0001FC0000
0002F80000
0002F80000
0003F40000
0003F40000
0007F00000
0007F00000
000BE00000
000BE00000
000FD00000
000FD00000
001FC00000
001FC00000
002F800000
002F800000
003F400000
003F400000
007F000000
007F000000
00BE000000
00BE000000
00FD000000
0000000000
0000000000
01F8000000
02F8000000
02F4000000
07F0000000
0BD0000000
1F80000000
0600000000
ENDCHAR
STARTCHAR uni021B
ENCODING 539
SWIDTH 321 0
DWIDTH 12 0
BBX 11 33 1 -9
BITMAP
007F00
007E00
00BE00
00BD00
00FD00
7FFFF8
BFFFF4
6AFEA0
02F800
02F400
03F400
03F000
07F000
07E000
0BE000
0BD000
0FD000
0FC000
1F8000
1F8000
1FC000
1FFA00
0BFE00
02FD00
000000
000000
03F000
07E000
0BE000
0FD000
1F8000
3F0000
180000
ENDCHAR
STARTCHAR uni0237
ENCODING 567
SWIDTH 249 0
DWIDTH 9 0
BBX 13 26 -5 -7
BITMAP
00002F40
00003F40
00003F00
00007F00
00007E00
0000BE00
0000BD00
0000FD00
0000FC00
0001FC00
0001F800
0002F800
0002F400
0003F400
0003F000
0007F000
000BE000
000BE000
000FD000
000FD000
001FC000
002F8000
007F4000
2AFE0000
3FF80000
7F900000
ENDCHAR
STARTCHAR uni0259
ENCODING 601
SWIDTH 516 0
DWIDTH 19 0
BBX 17 19 1 0
BITMAP
001BFE4000
01FFFFE000
07FEAFF800
03D002FC00
010000BE00
0000007F00
0000003F00
0000003F40
0000003F40
7FFFFFFF00
7FFFFFFF00
7FAAAABE00
BE0000BD00
7E0001FC00
7F0003F400
3F801FE000
1FFAFF8000
07FFFE0000
00BFE40000
ENDCHAR
STARTCHAR uni02BC
ENCODING 700
SWIDTH 198 0
DWIDTH 7 0
BBX 7 9 2 18
BITMAP
02F4
03F4
03F0
07E0
0BD0
1FC0
2F40
7E00
1800
ENDCHAR
STARTCHAR circumflex
ENCODING 710
SWIDTH 461 0
DWIDTH 17 0
BBX 11 5 5 22
BITMAP
00BD00
07FF00
1FDFC0
7F47E0
FD02F4
ENDCHAR
STARTCHAR caron
ENCODING 711
SWIDTH 435 0
DWIDTH 16 0
BBX 11 5 5 22
BITMAP
BD02F4
2E0BD0
0FAF40
07FD00
02F400
ENDCHAR
STARTCHAR uni02C9
ENCODING 713
SWIDTH 449 0
DWIDTH 16 0
BBX 12 3 4 22
BITMAP
7FFFFF
7FFFFF
6AAAA9
ENDCHAR
STARTCHAR breve
ENCODING 728
SWIDTH 418 0
DWIDTH 15 0
BBX 11 5 4 22
BITMAP
7D00F8
7D01F8
2F47F0
1FFFD0
02FE40
ENDCHAR
STARTCHAR dotaccent
ENCODING 729
SWIDTH 240 0
DWIDTH 9 0
BBX 5 4 4 22
BITMAP
1A00
3F40
7F40
2E00
ENDCHAR
STARTCHAR ring
ENCODING 730
SWIDTH 329 0
DWIDTH 12 0
BBX 8 8 4 21
BITMAP
0190
1FF8
3D1E
780E
740F
741E
2EBC
0BE0
ENDCHAR
STARTCHAR ogonek
ENCODING 731
SWIDTH 267 0
DWIDTH 10 0
BBX 7 8 -2 -7
BITMAP
0074
07F4
1F80
3F00
7D00
7E64
3FF4
1BE0
ENDCHAR
STARTCHAR tilde
ENCODING 732
SWIDTH 462 0
DWIDTH 17 0
BBX 13 5 4 22
BITMAP
05400640
2FF40F40
7FFEBF00
B81FFD00
F402F400
ENDCHAR
STARTCHAR hungarumlaut
ENCODING 733
SWIDTH 366 0
DWIDTH 13 0
BBX 14 5 3 22
BITMAP
01FD1FD0
03F4BF40
0BE2FD00
2F8BF000
6E1B8000
ENDCHAR
STARTCHAR uni02F3
ENCODING 755
SWIDTH 290 0
DWIDTH 10 0
BBX 7 6 -1 -7
BITMAP
0BD0
3EB0
7434
74B4
2FE0
0540
ENDCHAR
STARTCHAR gravecomb
ENCODING 768
SWIDTH 0 0
DWIDTH 0 0
BBX 6 5 -12 22
BITMAP
7F40
2F80
0FD0
07E0
01E0
ENDCHAR
STARTCHAR acutecomb
ENCODING 769
SWIDTH 0 0
DWIDTH 0 0
BBX 8 5 -9 22
BITMAP
02FD
0BF4
2FD0
7F40
BC00
ENDCHAR
STARTCHAR tildecomb
ENCODING 771
SWIDTH 0 0
DWIDTH 0 0
BBX 14 5 -14 22
BITMAP
01500290
0BF907C0
2FFFAF80
3E0BFF40
7C01B900
ENDCHAR
STARTCHAR hookabovecomb
ENCODING 777
SWIDTH 0 0
DWIDTH 0 0
BBX 6 7 -9 22
BITMAP
7900
7F80
07D0
07D0
AF80
F900
F400
ENDCHAR
STARTCHAR uni030F
ENCODING 783
SWIDTH 0 0
DWIDTH 0 0
BBX 12 5 -14 22
BITMAP
BF4FE0
2FC7F4
0FF2F8
03F8FD
01E879
ENDCHAR
STARTCHAR dotbelowcomb
ENCODING 803
SWIDTH 0 0
DWIDTH 0 0
BBX 4 4 -15 -6
BITMAP
2D
BF
BF
29
ENDCHAR
STARTCHAR tonos
ENCODING 900
SWIDTH 253 0
DWIDTH 9 0
BBX 5 6 5 22
BITMAP
0FC0
1F40
3F00
7D00
BC00
B400
ENDCHAR
STARTCHAR dieresistonos
ENCODING 901
SWIDTH 495 0
DWIDTH 18 0
BBX 14 8 4 22
BITMAP
0002F800
0003F000
0007D000
000FC000
290B4680
BF000FE0
BF000FE0
7D000780
ENDCHAR
STARTCHAR Alphatonos
ENCODING 902
SWIDTH 637 0
DWIDTH 23 0
BBX 22 28 -1 0
BITMAP
0000FC000000
0001F4000000
0002F02F4000
0003D07F8000
0007C0FFC000
000641FFC000
000003FBD000
000007E7D000
00000FD7E000
00002F83F000
00003F03F000
0000BE02F400
0000FC02F400
0002F401F800
0007F000F800
000BD000FC00
001FC000BD00
002F4000BD00
007FFFFFFE00
00FFFFFFFE00
01FEAAAABF00
03F400003F40
07E000002F40
0FD000002F80
2F8000001F80
3F4000001FC0
BE0000000FC0
FD0000000FD0
ENDCHAR
STARTCHAR anoteleia
ENCODING 903
SWIDTH 258 0
DWIDTH 9 0
BBX 4 4 3 11
BITMAP
7D
FE
FE
78
ENDCHAR
STARTCHAR Epsilontonos
ENCODING 904
SWIDTH 556 0
DWIDTH 20 0
BBX 23 28 -2 0
BITMAP
0FC000000000
1F8000000000
2F02FFFFFFFC
3E02FFFFFFFC
7C03FEAAAAA8
6803F4000000
0007F0000000
0007E0000000
000BE0000000
000BD0000000
000FD0000000
000FC0000000
001FC0000000
001FFFFFFE00
002FFFFFFD00
002FEAAAA900
003F40000000
007F00000000
007F00000000
00BE00000000
00BE00000000
00FD00000000
00FD00000000
01FC00000000
01FC00000000
02FEAAAAA900
02FFFFFFFC00
03FFFFFFFC00
ENDCHAR
STARTCHAR Etatonos
ENCODING 905
SWIDTH 696 0
DWIDTH 25 0
BBX 27 28 -2 0
BITMAP
0BD00000000000
0F800000000000
1F42F8000002F8
2E02F8000003F4
3D03F4000007F0
6803F4000007F0
0007F000000BE0
0007F000000BE0
000BE000000FD0
000BD000000FD0
000FD000001FC0
000FC000001FC0
001FC000002F80
001FFFFFFFFF80
002FFFFFFFFF40
002FEAAAAABF40
003F4000007F00
007F0000007F00
007F000000BE00
00BE000000BE00
00BE000000FD00
00FD000000FD00
00FD000001FC00
01FC000001FC00
01FC000002F800
02F8000002F800
02F8000003F400
03F4000003F400
ENDCHAR
STARTCHAR Iotatonos
ENCODING 906
SWIDTH 268 0
DWIDTH 10 0
BBX 10 28 -1 0
BITMAP
2F4000
3F0000
7D07F0
BC0BE0
F40BE0
B00FD0
000FD0
001FC0
001FC0
002F80
002F80
003F40
003F40
007F00
007F00
00BE00
00BE00
00FD00
00FD00
01FC00
01FC00
02F800
02F800
03F400
03F400
07F000
07F000
0BE000
ENDCHAR
STARTCHAR Omicrontonos
ENCODING 908
SWIDTH 681 0
DWIDTH 25 0
BBX 22 28 1 0
BITMAP
0BD000000000
0F8000000000
1F400AFE8000
2E00BFFFF400
3D07FFFFFE00
681FF801BF40
003FC0002FC0
00BF00000FD0
01FD00000BE0
02F8000007E0
03F4000007F0
07F0000007F0
0BE0000007F0
0FD0000007F0
0FC0000007E0
1FC000000BE0
1FC000000BE0
1FC000000FD0
1FC000001FC0
1FC000002F80
1FC000003F40
0FD00000BE00
0BE00001FD00
07F40007F800
02FE006FE000
00FFFFFF8000
002FFFFD0000
0006FF900000
ENDCHAR
STARTCHAR Upsilontonos
ENCODING 910
SWIDTH 636 0
DWIDTH 23 0
BBX 27 28 -2 0
BITMAP
1F800000000000
2F400000000000
3E03F4000003F8
7D02F800000BF0
B801FC00001FD0
B400FD00003F80
0000BE0000BF00
00007F0001FD00
00003F4003F800
00002F800BF000
00001FC01FD000
00000FD07F8000
00000BE0BE0000
000007F1FD0000
000003FBF40000
000001FFE00000
000000FFC00000
000000BF400000
000000BE000000
000000BD000000
000000FD000000
000000FC000000
000001FC000000
000001F8000000
000002F8000000
000002F4000000
000003F4000000
000003F0000000
ENDCHAR
STARTCHAR Omegatonos
ENCODING 911
SWIDTH 659 0
DWIDTH 24 0
BBX 22 28 0 0
BITMAP
02F400000000
03F000000000
07D006FE9000
0BC07FFFF800
0F42FFEBFE00
1A0BF900BF40
001FD0001FC0
003F80000FD0
00BF00000BE0
00FD000007F0
01FC000007F0
02F8000007F0
03F4000007F0
03F4000007F0
07F000000BE0
07F000000BE0
07F000000FD0
07F000000FD0
07E000001FC0
07F000002F40
03F000003F00
02F00000BD00
02F40001F800
00FC0007F000
00BF402F8000
2AFFD1FFAA00
7FFFC2FFFE00
7FFFC3FFFD00
ENDCHAR
STARTCHAR iotadieresistonos
ENCODING 912
SWIDTH 318 0
DWIDTH 11 0
BBX 14 30 0 0
BITMAP
0001F800
0002F400
0007E000
000BD000
19068290
7F400BF0
7F400BF0
2E0007D0
00000000
00000000
00000000
003F0000
007F0000
00BE0000
00BD0000
00FD0000
00FC0000
01FC0000
01F80000
02F80000
02F40000
03F40000
03F00000
07F00000
07E00000
07E00000
07F00000
07FE8000
02FF8000
00BF4000
ENDCHAR
STARTCHAR Alpha
ENCODING 913
SWIDTH 637 0
DWIDTH 23 0
BBX 22 26 -1 0
BITMAP
0000002F4000
0000007F8000
000000FFC000
000001FFC000
000003FBD000
000007E7D000
00000FD7E000
00002F83F000
00003F03F000
0000BE02F400
0000FC02F400
0002F401F800
0007F000F800
000BD000FC00
001FC000BD00
002F4000BD00
007FFFFFFE00
00FFFFFFFE00
01FEAAAABF00
03F400003F40
07E000002F40
0FD000002F80
2F8000001F80
3F4000001FC0
BE0000000FC0
FD0000000FD0
ENDCHAR
STARTCHAR Beta
ENCODING 914
SWIDTH 608 0
DWIDTH 22 0
BBX 20 26 1 0
BITMAP
00BFFFFA00
00BFFFFFD0
00FEAABFF4
00FD0006FC
01FC0000FD
01F80000BE
02F80000BE
02F40000FD
03F40001FC
03F00007F8
07F0006FE0
07FFFFFF40
0BFFFFFD00
0FEAAAFF80
0FD0001FD0
1FC00007F0
1FC00003F0
2F800003F4
2F800003F4
3F400007F0
3F40000BE0
7F00002FD0
7F0001BF80
BFAAAFFE00
BFFFFFF800
FFFFFE4000
ENDCHAR
STARTCHAR Gamma
ENCODING 915
SWIDTH 544 0
DWIDTH 20 0
BBX 20 26 1 0
BITMAP
007FFFFFFE
00BFFFFFFE
00BFAAAAA9
00FD000000
00FC000000
01FC000000
01F8000000
02F8000000
03F4000000
03F4000000
07F0000000
07F0000000
0BE0000000
0BE0000000
0FD0000000
0FD0000000
1FC0000000
1FC0000000
2F80000000
2F80000000
3F40000000
3F40000000
7F00000000
7F00000000
BE00000000
BE00000000
ENDCHAR
STARTCHAR uni0394
ENCODING 916
SWIDTH 688 0
DWIDTH 25 0
BBX 23 26 -1 0
BITMAP
0000000BE000
0000001FE000
0000003FF000
0000007FF400
000000FEF400
000002F9F800
000007F1F800
00000BE0FC00
00001FC0BD00
00003F40BD00
00007F007E00
0000FD007F00
0002F8003F00
0007F4002F40
000BE0002F80
001FC0001F80
003F80001FC0
00BF00000FC0
00FD00000BD0
02F800000BE0
07F4000007E0
0BE0000007F0
1FC0000003F4
3FEAAAAAABF4
BFFFFFFFFFF8
FFFFFFFFFFF8
ENDCHAR
STARTCHAR Epsilon
ENCODING 917
SWIDTH 556 0
DWIDTH 20 0
BBX 20 26 1 0
BITMAP
00BFFFFFFF
00BFFFFFFF
00FFAAAAAA
00FD000000
01FC000000
01F8000000
02F8000000
02F4000000
03F4000000
03F0000000
07F0000000
07FFFFFF80
0BFFFFFF40
0BFAAAAA40
0FD0000000
1FC0000000
1FC0000000
2F80000000
2F80000000
3F40000000
3F40000000
7F00000000
7F00000000
BFAAAAAA40
BFFFFFFF00
FFFFFFFF00
ENDCHAR
STARTCHAR Zeta
ENCODING 918
SWIDTH 585 0
DWIDTH 21 0
BBX 23 26 -1 0
BITMAP
002FFFFFFFF8
003FFFFFFFF4
002AAAAAAFF0
000000002FD0
000000007F80
00000001FE00
00000003FC00
0000000BF400
0000002FD000
0000007F4000
000001FE0000
000007F80000
00000FF00000
00002FD00000
0000BF400000
0001FE000000
0007F8000000
000FE0000000
003FC0000000
00BF40000000
02FD00000000
07F800000000
1FE000000000
3FEAAAAAA800
3FFFFFFFFC00
7FFFFFFFF800
ENDCHAR
STARTCHAR Eta
ENCODING 919
SWIDTH 696 0
DWIDTH 25 0
BBX 24 26 1 0
BITMAP
00BE000000BE
00BE000000FD
00FD000001FC
00FD000001FC
01FC000002F8
01FC000002F8
02F8000003F4
02F4000003F4
03F4000007F0
03F0000007F0
07F000000BE0
07FFFFFFFFE0
0BFFFFFFFFD0
0BFAAAAAAFD0
0FD000001FC0
1FC000001FC0
1FC000002F80
2F8000002F80
2F8000003F40
3F4000003F40
3F4000007F00
7F0000007F00
7F000000BE00
BE000000BE00
BE000000FD00
FD000000FD00
ENDCHAR
STARTCHAR Theta
ENCODING 920
SWIDTH 664 0
DWIDTH 24 0
BBX 21 26 2 0
BITMAP
00006FF90000
0007FFFF8000
002FFFFFF000
00BF900BF800
02FD0001FD00
07F40000BE00
0FE000007F00
1FC000003F40
2F8000003F40
3F4000003F40
7F0000003F40
BE0FFFFC3F40
BE0FFFF83F40
FD0AAAA47F00
FD0000007F00
FD000000BE00
FD000000FD00
FD000001FC00
FD000002F800
BE000007F400
7F00000FE000
3F80003FC000
1FE401FF4000
0BFFFFFD0000
02FFFFE00000
002BFA400000
ENDCHAR
STARTCHAR Iota
ENCODING 921
SWIDTH 268 0
DWIDTH 10 0
BBX 8 26 1 0
BITMAP
007F
00BE
00BE
00FD
00FD
01FC
01FC
02F8
02F8
03F4
03F4
07F0
07F0
0BE0
0BE0
0FD0
0FD0
1FC0
1FC0
2F80
2F80
3F40
3F40
7F00
7F00
BE00
ENDCHAR
STARTCHAR Kappa
ENCODING 922
SWIDTH 612 0
DWIDTH 22 0
BBX 23 26 1 0
BITMAP
00BE00000BF4
00BE00002FD0
00FD0000BF40
00FD0003FD00
01FC000FF400
01FC003FD000
02F800FF4000
02F807FD0000
03F41FF40000
03F07FD00000
07F1FF400000
07E7FD000000
0BFFFD000000
0BFFFF000000
0FFF7F800000
1FF82FC00000
1FE00FE00000
2F8007F40000
2F8003F80000
3F4001FD0000
3F4000BF0000
7F00007F4000
7F00002FC000
BE00000FE000
BE00000BF000
FD000003F800
ENDCHAR
STARTCHAR Lambda
ENCODING 923
SWIDTH 640 0
DWIDTH 23 0
BBX 21 26 -1 0
BITMAP
0000002F4000
0000007F8000
000000FF8000
000001FFC000
000003FFD000
000007FFD000
00000FEBE000
00001FC7E000
00003F87F000
0000BF03F000
0000FE03F400
0002FC02F400
0003F402F800
000BF001F800
000FD001FC00
002FC000FC00
003F4000FD00
00BF0000BD00
01FD0000BE00
02FC00007E00
07F400007F00
0BF000007F40
1FD000003F40
2FC000003F80
7F4000002F80
BF0000002FC0
ENDCHAR
STARTCHAR Mu
ENCODING 924
SWIDTH 851 0
DWIDTH 31 0
BBX 29 26 1 0
BITMAP
00BF800000007FC0
00BFC0000000FFC0
00FFD0000002FF80
00FFD0000003FF80
01FFE000000BFF40
01FBE000001FFF40
02F7F000002FBF00
02F6F400007F7F00
03F2F40000BE7E00
03F1F80001FCBE00
07E0FC0003F4BD00
07E0FC000BE0FD00
0BE0BD000FD0FC00
0BD0BE002F81FC00
0FD07E007F42F800
1FC03F00BE02F800
1FC03F01FC03F400
2F802F42F403F400
2F801F87F007F000
3F401F8FD007F000
3F400FEF800BE000
7F000BFF400BE000
7F000BFE000FD000
BE0007FC000FD000
BE0003F8001FC000
FD0003F0001FC000
ENDCHAR
STARTCHAR Nu
ENCODING 925
SWIDTH 696 0
DWIDTH 25 0
BBX 24 26 1 0
BITMAP
00BF000000BE
00BF400000FD
00FF800000FC
00FFD00001FC
01FFE00001F8
01FFF40002F8
02FBF80002F4
02F9FC0003F4
03F4FE0003F0
03F4BF0007F0
07F03F4007E0
07F02FC00BE0
0BE01FD00BD0
0BD00BE00FD0
0FD007F41FC0
1FC002F81FC0
1FC001FC2F80
2F8000FE2F80
2F80007F3F40
3F40003FBF40
3F40002FFF00
7F00000FFF00
7F00000BFE00
BE000007FE00
BE000002FD00
FD000001FD00
ENDCHAR
STARTCHAR Xi
ENCODING 926
SWIDTH 558 0
DWIDTH 20 0
BBX 21 26 0 0
BITMAP
007FFFFFFF40
00BFFFFFFF00
00AAAAAAAA00
000000000000
000000000000
000000000000
000000000000
000000000000
000000000000
000000000000
000000000000
00FFFFFFC000
00FFFFFFC000
00AAAAAA8000
000000000000
000000000000
000000000000
000000000000
000000000000
000000000000
000000000000
000000000000
000000000000
6AAAAAAA4000
BFFFFFFF4000
BFFFFFFF4000
ENDCHAR
STARTCHAR Omicron
ENCODING 927
SWIDTH 671 0
DWIDTH 24 0
BBX 21 26 2 0
BITMAP
00006FF90000
0007FFFFD000
001FFFFFF400
00BFD007FC00
01FE0001FE00
03F800007F00
0BF000003F40
0FD000002F40
1FC000002F80
2F4000002F80
3F4000002F80
7F0000002F80
7E0000002F40
BE0000003F40
BE0000003F00
BD0000007F00
BD000000BE00
BE000000FD00
BE000001FC00
7F000003F400
3F40000BF000
2FC0002FD000
0FF401FF4000
07FFFFFD0000
01FFFFE40000
001BFA400000
ENDCHAR
STARTCHAR Pi
ENCODING 928
SWIDTH 696 0
DWIDTH 25 0
BBX 24 26 1 0
BITMAP
007FFFFFFFFD
00BFFFFFFFFD
00BFAAAAABFC
00FD000001FC
00FC000002F8
01FC000002F8
01F8000003F4
02F8000003F4
02F4000007F0
03F4000007F0
03F000000BE0
07F000000BD0
07E000000FD0
0BE000000FC0
0FD000001FC0
0FD000001F80
1FC000002F80
1FC000003F40
2F8000003F40
2F8000007F00
3F4000007F00
3F400000BE00
7F000000BE00
7F000000FD00
BE000000FD00
BE000001FC00
ENDCHAR
STARTCHAR Rho
ENCODING 929
SWIDTH 616 0
DWIDTH 22 0
BBX 21 26 1 0
BITMAP
00BFFFFE4000
00BFFFFFF400
00FFAAAFFD00
00FD0001FF00
01FC00003F80
01FC00002FC0
02F800001FC0
02F400001FC0
03F400001FC0
03F000002F80
07F000007F40
07E00001FE00
0BE0001BFD00
0BFFFFFFF400
0FFFFFFF8000
1FEAAAA40000
1FC000000000
2F8000000000
2F8000000000
3F4000000000
3F4000000000
7F0000000000
7F0000000000
BE0000000000
BE0000000000
FD0000000000
ENDCHAR
STARTCHAR Sigma
ENCODING 931
SWIDTH 558 0
DWIDTH 20 0
BBX 22 26 -1 0
BITMAP
007FFFFFFFD0
007FFFFFFFC0
00BFEAAAAA80
003F80000000
001FD0000000
000BF0000000
0003F8000000
0001FD000000
0000FE000000
00007F400000
00002FC00000
00000FE00000
000007F00000
00000BF00000
00002FC00000
0000BF400000
0002FD000000
000BF4000000
002FD0000000
00BF40000000
02FE00000000
07F800000000
1FE000000000
7FEAAAAAA400
7FFFFFFFF000
BFFFFFFFF000
ENDCHAR
STARTCHAR Tau
ENCODING 932
SWIDTH 583 0
DWIDTH 21 0
BBX 20 26 3 0
BITMAP
BFFFFFFFFE
BFFFFFFFFD
AAAAFEAAA9
0001FC0000
0001FC0000
0002F80000
0002F80000
0003F40000
0003F40000
0007F00000
0007F00000
000BE00000
000BE00000
000FD00000
000FD00000
001FC00000
001FC00000
002F800000
002F800000
003F400000
003F400000
007F000000
007F000000
00BE000000
00BE000000
00FD000000
ENDCHAR
STARTCHAR Upsilon
ENCODING 933
SWIDTH 587 0
DWIDTH 21 0
BBX 20 26 3 0
BITMAP
FE000000FF
BF000002FD
3F400007F8
2F80000FF0
1FC0002FD0
0FD0007F80
0BE000FE00
07F002FD00
03F407F400
02F80FE000
01FC2FC000
00FD7F4000
00BEFE0000
007FFC0000
003FF40000
002FE00000
001FC00000
002F800000
002F800000
003F400000
003F400000
007F000000
007F000000
00BE000000
00BE000000
00FD000000
ENDCHAR
STARTCHAR Phi
ENCODING 934
SWIDTH 699 0
DWIDTH 25 0
BBX 24 26 1 0
BITMAP
000000BE0000
000000BE0000
000000FD0000
00006FFFA400
000BFFFFFE00
007FFFFFFF80
01FF42F82FE0
03F802F807F4
0BF003F402F8
1FD003F401FC
2F8007F000FD
3F4007F000FD
3F400BE000FD
7F000BE000FC
7F000FD001FC
7F000FD002F8
3F401FC007F4
2F801FC00BE0
1FD02F802FC0
0BF82F81FF40
02FFFFFFFD00
00BFFFFFE000
001BFFF90000
00007F000000
0000BE000000
0000BE000000
ENDCHAR
STARTCHAR Chi
ENCODING 935
SWIDTH 612 0
DWIDTH 22 0
BBX 24 26 -1 0
BITMAP
007F400001FE
002FC00003FC
001FD0000BF4
000BE0001FE0
0007F4007F80
0003F800FF00
0001FC02FD00
0000FE07F800
0000BF1FE000
00003FBFC000
00002FFF4000
00000FFD0000
00000BF80000
00001FF40000
00003FFC0000
0000BFFD0000
0001FEBF0000
0007F87F4000
000FF02F8000
002FD01FD000
00BF400FE000
01FE0007F400
03FC0003F800
0BF40002FC00
2FD00000FE00
7F800000BF00
ENDCHAR
STARTCHAR Psi
ENCODING 936
SWIDTH 675 0
DWIDTH 24 0
BBX 24 26 2 0
BITMAP
0BE003F400FD
0FD007F001FC
0FD007F001FC
1FC00BE002F8
1FC00BE002F8
2F800FD003F4
2F800FD003F4
3F401FC007F0
3F401FC007F0
3F002F800BE0
7F002F800BD0
7F003F400FD0
3F403F402FC0
3F407F003F40
2FC07F00BF00
1FE0BE02FD00
0BF9BE6FF400
02FFFFFFD000
00BFFFFE0000
0006FE900000
0001FC000000
0002F8000000
0002F8000000
0003F4000000
0003F4000000
0007F0000000
ENDCHAR
STARTCHAR uni03A9
ENCODING 937
SWIDTH 649 0
DWIDTH 23 0
BBX 22 26 0 0
BITMAP
000006FE4000
0000BFFFF400
0002FFEFFD00
000FF401BF00
002FD0002F80
007F40001FC0
00FE00000FD0
01FC00000BE0
02F800000BE0
03F400000BE0
07F000000BE0
07F000000BE0
0BE000000FD0
0BE000000FD0
0BE000001FC0
0BD000001F80
0BD000002F40
0BD000003F00
07E00000BE00
07E00000FC00
03F00002F400
01F8000BE000
00FE006F8000
6AFFC3FFA900
BFFF83FFFD00
BFFF87FFFC00
ENDCHAR
STARTCHAR Iotadieresis
ENCODING 938
SWIDTH 268 0
DWIDTH 10 0
BBX 13 32 1 0
BITMAP
06401A00
1FD03F80
1FD03F80
0B802E00
00000000
00000000
007F0000
00BE0000
00BE0000
00FD0000
00FD0000
01FC0000
01FC0000
02F80000
02F80000
03F40000
03F40000
07F00000
07F00000
0BE00000
0BE00000
0FD00000
0FD00000
1FC00000
1FC00000
2F800000
2F800000
3F400000
3F400000
7F000000
7F000000
BE000000
ENDCHAR
STARTCHAR Upsilondieresis
ENCODING 939
SWIDTH 587 0
DWIDTH 21 0
BBX 20 31 3 0
BITMAP
000A401900
002FC07F40
002FC07F40
001F402E00
0000000000
FE000000FF
BF000002FD
3F400007F8
2F80000FF0
1FC0002FD0
0FD0007F80
0BE000FE00
07F002FD00
03F407F400
02F80FE000
01FC2FC000
00FD7F4000
00BEFE0000
007FFC0000
003FF40000
002FE00000
001FC00000
002F800000
002F800000
003F400000
003F400000
007F000000
007F000000
00BE000000
00BE000000
00FD000000
ENDCHAR
STARTCHAR alphatonos
ENCODING 940
SWIDTH 552 0
DWIDTH 20 0
BBX 18 28 1 0
BITMAP
000000BD00
000000F800
000002F400
000003E000
000007D000
0000068000
0000000000
0000000000
0000000000
0006FE03E0
007FFFD7E0
01FFEBFBD0
03FD00BFD0
0BF0003FC0
0FD0001FC0
1F80001F80
2F40002F80
3F40002F40
7F00003F40
7F00003F00
7E00007F00
7F00007E00
7F0000BE00
3F4002FD00
2FD00BFE00
1FFABFBFC0
07FFF87FC0
00BF901F80
ENDCHAR
STARTCHAR epsilontonos
ENCODING 941
SWIDTH 527 0
DWIDTH 19 0
BBX 17 28 1 0
BITMAP
000003F000
000007D000
00000BC000
00000F4000
00001F0000
0000190000
0000000000
0000000000
0000000000
001AFE8000
01BFFFF800
07FFABFE00
0BF400BF00
0FD0003F40
1FC0001540
0FC0000000
0BE4000000
02FFFE0000
02FFFE0000
1FFAA90000
7F40000000
BE00000000
FC0000A900
FD0001FC00
BE400BF800
7FEABFE000
1FFFFF8000
01BFE80000
ENDCHAR
STARTCHAR etatonos
ENCODING 942
SWIDTH 554 0
DWIDTH 20 0
BBX 18 35 0 -7
BITMAP
000000BD00
000000FC00
000001F400
000002F000
000003D000
0000068000
0000000000
0000000000
0000000000
00F81BF800
01F9FFFF00
01FBFAFF80
02FF402FD0
03FC000FD0
03F4000BD0
07F0000BD0
07F0000FD0
0BE0000FC0
0BE0001FC0
0FD0001F80
0FC0002F80
1FC0002F40
1F80003F40
2F80003F00
2F40007F00
3F40007E00
3F0000BE00
7F0000BD00
000000FD00
000000FC00
000001FC00
000001F800
000002F800
000002F400
000003F400
ENDCHAR
STARTCHAR iotatonos
ENCODING 943
SWIDTH 318 0
DWIDTH 11 0
BBX 9 28 2 0
BITMAP
001F80
003F00
007E00
00BC00
00F800
00B000
000000
000000
000000
03F000
07F000
0BE000
0BD000
0FD000
0FC000
1FC000
1F8000
2F8000
2F4000
3F4000
3F0000
7F0000
7E0000
7E0000
7F0000
7FE800
2FF800
0BF400
ENDCHAR
STARTCHAR upsilondieresistonos
ENCODING 944
SWIDTH 533 0
DWIDTH 19 0
BBX 16 30 2 0
BITMAP
00001FC0
00002F80
00003F00
00007D00
01A06C19
03F4007F
07F400BF
02E0002D
00000000
00000000
00000000
0FD001FC
0FC000FD
1FC000BD
1F8000BE
2F8000BE
2F4000BE
3F4000BE
3F0000BE
7F0000BD
7E0000FD
BE0000FC
BD0001F8
FD0003F4
BD0007F0
BE001FD0
7F407F80
3FEBFF00
1FFFF800
02FF9000
ENDCHAR
STARTCHAR alpha
ENCODING 945
SWIDTH 552 0
DWIDTH 20 0
BBX 18 19 1 0
BITMAP
0006FE03E0
007FFFD7E0
01FFEBFBD0
03FD00BFD0
0BF0003FC0
0FD0001FC0
1F80001F80
2F40002F80
3F40002F40
7F00003F40
7F00003F00
7E00007F00
7F00007E00
7F0000BE00
3F4002FD00
2FD00BFE00
1FFABFBFC0
07FFF87FC0
00BF901F80
ENDCHAR
STARTCHAR beta
ENCODING 946
SWIDTH 579 0
DWIDTH 21 0
BBX 20 33 -1 -7
BITMAP
000006FE40
00007FFFE0
0001FFABFC
0007F801FE
000FD0007F
001F80003F
002F40003F
003F40007F
003F0000BE
007F0001FC
007E001BF4
00BE07FFD0
00BD0BFF80
00FD0AAFE0
00FC0007F4
01F80001FC
01F80000FC
02F40000FD
02F40000FD
03F00001FC
03F00002F8
07F00007F4
0BFD002FE0
0BFFEAFF80
0FEFFFFE00
0FD1BFA000
1FC0000000
1FC0000000
2F80000000
2F80000000
3F40000000
3F40000000
7F00000000
ENDCHAR
STARTCHAR gamma
ENCODING 947
SWIDTH 490 0
DWIDTH 18 0
BBX 17 26 2 -7
BITMAP
BE00007F40
7E0000BE00
7F0001FC00
3F0002F800
2F4007F000
2F400BD000
1F801FC000
1F802F4000
0FC07F0000
0FC0FD0000
0BD1F80000
07D3F40000
07E7E00000
03EFD00000
03FF800000
02FF000000
02FE000000
01FC000000
02F8000000
02F4000000
03F4000000
03F0000000
07F0000000
07E0000000
0BE0000000
0BD0000000
ENDCHAR
STARTCHAR delta
ENCODING 948
SWIDTH 554 0
DWIDTH 20 0
BBX 17 27 1 0
BITMAP
00006FE900
0007FFFF80
001FFEBF40
002FD00140
003F400000
003F000000
003F800000
002FF40000
000BFF4000
0002FFE000
006FFFFC00
01FD02FE00
07F000BF40
0FD0003F80
2F80001FC0
3F40001FC0
7F00001FC0
BE00001FC0
BE00001F80
BE00002F80
BE00003F40
7F0000BF00
3F4001FD00
2FD007F800
0FFABFE000
02FFFF8000
006FE80000
ENDCHAR
STARTCHAR epsilon
ENCODING 949
SWIDTH 527 0
DWIDTH 19 0
BBX 17 19 1 0
BITMAP
001BFE8000
01FFFFF800
07FFABFE00
0BF400BF00
0FD0003F40
1FC0001540
0FC0000000
0BE4000000
02FFFE0000
02FFFE0000
1FFAA90000
7F40000000
FD00000000
FC0000A900
FD0001FC00
BE400BF800
7FEABFE000
1FFFFF8000
01BFE80000
ENDCHAR
STARTCHAR zeta
ENCODING 950
SWIDTH 507 0
DWIDTH 18 0
BBX 17 33 2 -7
BITMAP
0BFFFFFFC0
0BFFFFFF80
0AAAAABF40
000001FD00
000007F800
00001FE000
00007F8000
0001FE0000
0007F80000
000FE00000
003FC00000
00BF000000
01FD000000
03F4000000
0BE0000000
1FC0000000
2F80000000
3F40000000
7F00000000
7F00000000
7E00000000
7F00000000
7F80000000
2FF4000000
0BFF900000
01FFF80000
0017FD0000
0000BE0000
0000BD0000
0000FC0000
0002F40000
0007E00000
0002400000
ENDCHAR
STARTCHAR eta
ENCODING 951
SWIDTH 554 0
DWIDTH 20 0
BBX 18 26 0 -7
BITMAP
00F81BF800
01F9FFFF00
01FBFAFF80
02FF402FD0
03FC000FD0
03F4000BD0
07F0000BD0
07F0000FD0
0BE0000FC0
0BE0001FC0
0FD0001F80
0FC0002F80
1FC0002F40
1F80003F40
2F80003F00
2F40007F00
3F40007E00
3F0000BE00
7F0000BD00
000000FD00
000000FC00
000001FC00
000001F800
000002F800
000002F400
000003F400
ENDCHAR
STARTCHAR theta
ENCODING 952
SWIDTH 557 0
DWIDTH 20 0
BBX 17 26 2 0
BITMAP
0006FF8000
002FFFF400
00BFEBFD00
01FD00BE00
03F4003F00
0BE0002F40
0FC0001F80
1F80001F80
2F40001F80
3F00002F80
3F00002F80
7FFFFFFF40
7FFFFFFF40
BEAAAABF00
BD00007F00
BD00007E00
FD0000BE00
FC0000FD00
FD0001FC00
BD0002F800
BD0003F400
7F000BE000
3F802FC000
1FFAFF4000
0BFFFD0000
01BF900000
ENDCHAR
STARTCHAR iota
ENCODING 953
SWIDTH 318 0
DWIDTH 11 0
BBX 7 19 2 0
BITMAP
03F0
07F0
0BE0
0BD0
0FD0
0FC0
1FC0
1F80
2F80
2F40
3F40
3F00
7F00
7E00
7E00
7F00
7FE8
2FF8
0BF4
ENDCHAR
STARTCHAR kappa
ENCODING 954
SWIDTH 544 0
DWIDTH 20 0
BBX 18 19 1 0
BITMAP
03F4000FF0
07F0007FC0
07F001FF00
0BE007FC00
0BD01FF000
0FD07FC000
0FC1FF0000
1FC7F80000
1FFFE00000
2FFFD00000
2FFFE00000
3F47F80000
3F02FD0000
7F00FF0000
7E007F8000
BE002FD000
BD000BF000
FD0007F800
FC0001FD00
ENDCHAR
STARTCHAR lambda
ENCODING 955
SWIDTH 541 0
DWIDTH 20 0
BBX 18 27 -1 0
BITMAP
0007E40000
000BFD0000
0006FE0000
0000BF0000
00007F4000
00003F4000
00002F8000
00002F8000
00001FC000
00003FD000
00007FD000
0000FFE000
0001FFE000
0003FBF000
000BF3F400
000FD2F400
002FC2F800
007F41FC00
00BE01FC00
01FD00FD00
02F800BD00
07F400BE00
0FE0007F00
1FD0003F40
3F80002FE0
7F40001FE0
FE000006E0
ENDCHAR
STARTCHAR uni03BC
ENCODING 956
SWIDTH 554 0
DWIDTH 20 0
BBX 20 26 -1 -7
BITMAP
003F4000BE
007F0000BD
007F0000FD
00BE0001FC
00BE0001FC
00FD0002F8
00FD0002F8
01FC0003F4
01FC0003F4
02F80007F0
02F80007E0
03F4000BE0
03F4000BD0
07F4000FD0
07F8002FC0
0BFD00BFC0
0BFFABFF80
0FFFFFEF80
0FC6FE1F40
1FC0000000
2F80000000
2F80000000
3F40000000
3F00000000
7F00000000
7E00000000
ENDCHAR
STARTCHAR nu
ENCODING 957
SWIDTH 474 0
DWIDTH 17 0
BBX 16 19 2 0
BITMAP
FC0000FD
BD0001FC
BD0003F4
7E0007F0
7E000BD0
3F001FC0
2F002F40
2F407F00
1F40BD00
1F81FC00
0F82F400
0BC3F000
0BCBD000
07DFC000
07FF4000
03FF0000
03FD0000
02FC0000
01F40000
ENDCHAR
STARTCHAR xi
ENCODING 958
SWIDTH 480 0
DWIDTH 17 0
BBX 17 33 1 -7
BITMAP
00006BFE40
0007FFFFC0
002FFEAF80
007F900000
00FE000000
00FC000000
01FC000000
00FC000000
00BD000000
007F900000
001FFFF000
000BFFF000
00BFFAA000
03FD000000
0FE0000000
2FC0000000
3F40000000
7F00000000
7E00000000
BE00000000
7F00000000
7F40000000
3FC0000000
1FF4000000
07FF900000
00BFFE0000
0006FF8000
00001FC000
00000FC000
00002F8000
00007F0000
0000FD0000
0000600000
ENDCHAR
STARTCHAR omicron
ENCODING 959
SWIDTH 558 0
DWIDTH 20 0
BBX 18 19 1 0
BITMAP
0006FF9000
006FFFF400
01FFEBFD00
07F900BF00
0BE0002F80
1FC0001FC0
2F80000FD0
3F00000FD0
7F00000FD0
BE00000FD0
BE00000FC0
BE00001F80
7E00002F80
7F00007F00
3F4000FE00
1FD007F800
0BFEBFE000
02FFFF8000
006FF90000
ENDCHAR
STARTCHAR pi
ENCODING 960
SWIDTH 582 0
DWIDTH 21 0
BBX 20 19 1 0
BITMAP
3FFFFFFFFE
3FFFFFFFFE
6AFEAAAFE9
02F8002F80
02F4002F40
03F4003F40
03F0003F00
07F0007F00
07E0007E00
0BE000BE00
0BD000BD00
0FD000FD00
0FC000FC00
1FC001FC00
1F8001F800
2F8001FC00
3F4000FFE0
3F4000BFE0
7F00002FD0
ENDCHAR
STARTCHAR rho
ENCODING 961
SWIDTH 554 0
DWIDTH 20 0
BBX 19 26 -1 -7
BITMAP
00002BF900
0001FFFF40
000BFEBFD0
001FD00BF0
003F4003F4
00BE0002F8
00FD0001F8
01FC0001FC
02F80001FC
02F40001F8
03F40002F8
03F00002F4
07F00003F4
07E0000BE0
0BF0001FD0
0BFD007F80
0FFFABFF00
0FDFFFF800
1FC1BF9000
1F80000000
2F80000000
3F40000000
3F40000000
7F00000000
7F00000000
BE00000000
ENDCHAR
STARTCHAR sigma1
ENCODING 962
SWIDTH 526 0
DWIDTH 19 0
BBX 17 26 1 -7
BITMAP
0006FF8000
002FFFF400
00FFEBFD00
02FD00BF00
0BF0003F40
0FD0002F40
2F80002F40
3F40000000
3F00000000
7F00000000
7E00000000
7F00000000
7F00000000
3F80000000
2FD0000000
0FF9000000
03FFE00000
00BFFD0000
0006FF4000
00002F8000
00001F8000
00002F4000
00007F0000
0000FD0000
0001F80000
0000600000
ENDCHAR
STARTCHAR sigma
ENCODING 963
SWIDTH 554 0
DWIDTH 20 0
BBX 20 19 1 0
BITMAP
0006FFFFFF
006FFFFFFE
01FFABFEA9
07F900BD00
0FE0003F00
1FC0002F40
2F40001F80
3F00001F80
7F00001FC0
BE00001FC0
BE00001F80
BE00002F80
BE00003F40
7F0000BE00
3F4001FD00
2FD00BF800
0FFABFE000
02FFFF4000
006FE40000
ENDCHAR
STARTCHAR tau
ENCODING 964
SWIDTH 510 0
DWIDTH 18 0
BBX 17 19 2 0
BITMAP
7FFFFFFF40
7FFFFFFF00
6AAFEAAA00
000FD00000
000FD00000
001FC00000
001F800000
002F800000
002F400000
003F400000
003F000000
007F000000
007E000000
00BE000000
00BE000000
00BE000000
007FF80000
003FF80000
001BE40000
ENDCHAR
STARTCHAR upsilon
ENCODING 965
SWIDTH 533 0
DWIDTH 19 0
BBX 16 19 2 0
BITMAP
0FD001FC
0FC000FD
1FC000BD
1F8000BE
2F8000BE
2F4000BE
3F4000BE
3F0000BE
7F0000BD
7E0000FD
BE0000FC
BD0001F8
FD0003F4
BD0007F0
BE001FD0
7F407F80
3FEBFF00
1FFFF800
02FF9000
ENDCHAR
STARTCHAR phi
ENCODING 966
SWIDTH 688 0
DWIDTH 25 0
BBX 23 27 1 -8
BITMAP
0018006FE000
00BD01FFFD00
02FE03FEFF40
07F807F02FC0
0FE00BE00BE0
1FD00BD007F0
2F800FD003F0
3F400FC003F4
7F001FC003F4
7E001F8003F4
7E002F8007F0
7E002F400BE0
7F003F401FD0
3F407F003F80
2FD07F00BF40
0FF4BE0BFD00
07FFFFBFF400
01FFFFFF8000
001BFFE40000
0000FC000000
0001FC000000
0001F8000000
0002F8000000
0002F4000000
0003F4000000
0007F0000000
0007E0000000
ENDCHAR
STARTCHAR chi
ENCODING 967
SWIDTH 485 0
DWIDTH 17 0
BBX 21 26 -1 -7
BITMAP
00FD00007F40
00FF8000BE00
01BFD002FC00
000BE007F400
0003F00BE000
0002F42FC000
0001F87F4000
0001FCBE0000
0000FEFC0000
0000BFF40000
00007FE00000
00003FC00000
00007F400000
0000BF400000
0001FF800000
0003FFC00000
000BEFD00000
001FCBD00000
003F47E00000
00BE03F00000
01FC02F40000
03F401F80000
0BE000FD0000
1FC000BFE000
3F40003FD000
BE00001B8000
ENDCHAR
STARTCHAR psi
ENCODING 968
SWIDTH 684 0
DWIDTH 25 0
BBX 22 27 2 -8
BITMAP
2F800FD01F80
3F400FC01FC0
3F401FC00FC0
7F001F800FD0
7E002F800BD0
BE002F400BD0
BD003F400BD0
FD003F000BD0
FC007F000FD0
FC00BE000FC0
FC00BE001FC0
FC00FD002F80
FD00FD007F40
BE01FC01FE00
7F41F807FC00
2FD2F82FF400
0FFFFAFFD000
02FFFFFE0000
006FFF900000
0003F0000000
0007F0000000
000BE0000000
000BD0000000
000FD0000000
000FC0000000
001FC0000000
001F80000000
ENDCHAR
STARTCHAR omega
ENCODING 969
SWIDTH 803 0
DWIDTH 29 0
BBX 25 19 2 0
BITMAP
02FC0000007E00
07F40000003F00
0FE00000003F40
1FD00000002F40
2F800000002F80
3F4001A4002F80
7F0003F4001F80
BE0003F0002F80
FD0007F0002F80
FC0007E0002F40
FC000BE0003F40
FC000BE0003F00
FC000FE0007E00
FC001FE000FD00
BD003FF001FC00
7F00BDF407F400
3FEBF4FEAFE000
1FFFD07FFF8000
02FE400BF90000
ENDCHAR
STARTCHAR iotadieresis
ENCODING 970
SWIDTH 318 0
DWIDTH 11 0
BBX 11 26 2 0
BITMAP
6800A0
FD02F8
FD02F8
B801F4
000000
000000
000000
03F000
07F000
0BE000
0BD000
0FD000
0FC000
1FC000
1F8000
2F8000
2F4000
3F4000
3F0000
7F0000
7E0000
7E0000
7F0000
7FE800
2FF800
0BF400
ENDCHAR
STARTCHAR upsilondieresis
ENCODING 971
SWIDTH 533 0
DWIDTH 19 0
BBX 16 26 2 0
BITMAP
006800A4
00FE02FC
00FE02FC
007801F4
00000000
00000000
00000000
0FD001FC
0FC000FD
1FC000BD
1F8000BE
2F8000BE
2F4000BE
3F4000BE
3F0000BE
7F0000BD
7E0000FD
BE0000FC
BD0001F8
FD0003F4
BD0007F0
BE001FD0
7F407F80
3FEBFF00
1FFFF800
02FF9000
ENDCHAR
STARTCHAR omicrontonos
ENCODING 972
SWIDTH 558 0
DWIDTH 20 0
BBX 18 28 1 0
BITMAP
000003F400
000007E000
00000BD000
00000F8000
00001F0000
00001A0000
0000000000
0000000000
0000000000
0006FF9000
006FFFF400
01FFEBFD00
07F900BF00
0BE0002F80
1FC0001FC0
2F80000FD0
3F00000FD0
7F00000FD0
BE00000FD0
BE00000FC0
BE00001F80
7E00002F80
7F00007F00
3F4000FE00
1FD007F800
0BFEBFE000
02FFFF8000
006FF90000
ENDCHAR
STARTCHAR upsilontonos
ENCODING 973
SWIDTH 533 0
DWIDTH 19 0
BBX 16 28 2 0
BITMAP
00001F80
00002F40
00003E00
00007D00
0000B800
0000B400
00000000
00000000
00000000
0FD001FC
0FC000FD
1FC000BD
1F8000BE
2F8000BE
2F4000BE
3F4000BE
3F0000BE
7F0000BD
7E0000FD
BE0000FC
BD0001F8
FD0003F4
BD0007F0
BE001FD0
7F407F80
3FEBFF00
1FFFF800
02FF9000
ENDCHAR
STARTCHAR omegatonos
ENCODING 974
SWIDTH 803 0
DWIDTH 29 0
BBX 25 27 2 0
BITMAP
00000003F00000
00000007D00000
0000000BC00000
0000000F400000
0000002F000000
0000001D000000
00000000000000
00000000000000
02FC0000007E00
07F40000003F00
0FE00000003F40
1FD00000002F40
2F800000002F80
3F4001A4002F80
7F0003F4001F80
BE0003F0002F80
FD0007F0002F80
FC0007E0002F40
FC000BE0003F40
FC000BE0003F00
FC000FE0007E00
FC001FE000FD00
BD003FF001FC00
7F00BDF407F400
3FEBF4FEAFE000
1FFFD07FFF8000
02FE400BF90000
ENDCHAR
STARTCHAR theta1
ENCODING 977
SWIDTH 565 0
DWIDTH 20 0
BBX 19 26 1 0
BITMAP
00001BF900
00007FFF40
0001FFBFC0
0003F80FD0
0007F00BE0
000BE00BE0
000BD00BE0
000BD00BD0
000BE00FD0
0007F00FC0
0003F81FC0
0001FE6F80
1A807FFFFC
2F801FFFFC
2F4001BFE4
3F40003F00
3F00007F00
7F00007E00
7F0000BE00
7F0000FD00
7F0001FC00
3F4002F800
2FD01BF000
0FFEFFD000
03FFFF4000
006FE40000
ENDCHAR
STARTCHAR Upsilon1
ENCODING 978
SWIDTH 520 0
DWIDTH 19 0
BBX 20 26 2 0
BITMAP
BE000001FD
FF80000BFD
FFC0001FFD
1FE0003F80
07E000BF00
03F001FD00
03F402F800
02F807F000
01F80FD000
00FC2FC000
00BD7F4000
007EBE0000
007FFC0000
003FF40000
002FE00000
001FD00000
002F800000
002F800000
003F400000
003F400000
007F000000
007F000000
00BE000000
00BE000000
00FD000000
00FD000000
ENDCHAR
STARTCHAR omega1
ENCODING 982
SWIDTH 766 0
DWIDTH 28 0
BBX 26 19 2 0
BITMAP
7FFFFFFFFFFFF0
BFFFFFFFFFFFF0
6FFAAAAAAAFEA0
0FD0000000FD00
2F80000000BE00
3F40000000BE00
7F0006A000BE00
BE000BE000BD00
BD000BD000BD00
FD000FD000FD00
FC000FC000FC00
FC001FC001F800
FC002FC002F800
FC003FC003F400
BD007FD007F000
BE01FBF01FD000
3FABE2FEBF8000
1FFF80BFFE0000
06F9001BE40000
ENDCHAR
STARTCHAR uni0400
ENCODING 1024
SWIDTH 556 0
DWIDTH 20 0
BBX 20 33 1 0
BITMAP
0000BF0000
00002F8000
00000FC000
000007E000
000002E000
0000000000
0000000000
00BFFFFFFF
00BFFFFFFF
00FFAAAAAA
00FD000000
01FC000000
01F8000000
02F8000000
02F4000000
03F4000000
03F0000000
07F0000000
07FFFFFF80
0BFFFFFF40
0BFAAAAA40
0FD0000000
1FC0000000
1FC0000000
2F80000000
2F80000000
3F40000000
3F40000000
7F00000000
7F00000000
BFAAAAAA40
BFFFFFFF00
FFFFFFFF00
ENDCHAR
STARTCHAR uni0401
ENCODING 1025
SWIDTH 556 0
DWIDTH 20 0
BBX 20 32 1 0
BITMAP
0000A40190
0001FC03F4
0002FC07F4
0000F402E0
0000000000
0000000000
00BFFFFFFF
00BFFFFFFF
00FFAAAAAA
00FD000000
01FC000000
01F8000000
02F8000000
02F4000000
03F4000000
03F0000000
07F0000000
07FFFFFF80
0BFFFFFF40
0BFAAAAA40
0FD0000000
1FC0000000
1FC0000000
2F80000000
2F80000000
3F40000000
3F40000000
7F00000000
7F00000000
BFAAAAAA40
BFFFFFFF00
FFFFFFFF00
ENDCHAR
STARTCHAR uni0402
ENCODING 1026
SWIDTH 731 0
DWIDTH 26 0
BBX 22 26 3 0
BITMAP
BFFFFFFFFE00
FFFFFFFFFD00
AAABFAAAA800
0007F0000000
0007F0000000
000BE0000000
000BE0000000
000FD0000000
000FC0000000
001FC0000000
001FDAFE9000
002FFFFFF800
002FFFFFFE00
003F9401BF40
003F40002FC0
007F00001FD0
007F00000FD0
00BE00000FD0
00BE00000FD0
00FD00001FC0
00FD00002F80
01FC00007F40
01FC0002FE00
02F800BFF800
02F801FFD000
03F401F90000
ENDCHAR
STARTCHAR uni0403
ENCODING 1027
SWIDTH 544 0
DWIDTH 20 0
BBX 20 33 1 0
BITMAP
0000000BF4
0000002FD0
0000007F40
000001FD00
000002B400
0000000000
0000000000
007FFFFFFE
00BFFFFFFE
00BFAAAAA9
00FD000000
00FC000000
01FC000000
01F8000000
02F8000000
03F4000000
03F4000000
07F0000000
07F0000000
0BE0000000
0BE0000000
0FD0000000
0FD0000000
1FC0000000
1FC0000000
2F80000000
2F80000000
3F40000000
3F40000000
7F00000000
7F00000000
BE00000000
BE00000000
ENDCHAR
STARTCHAR uni0404
ENCODING 1028
SWIDTH 658 0
DWIDTH 24 0
BBX 21 26 2 0
BITMAP
00006FF90000
0007FFFFD000
002FFEBFF400
00BF9006FC00
01FD0000FE00
03F800007F00
0BE000003F40
0FD000003F40
1F8000001A40
2F4000000000
3F0000000000
7FFFFFE00000
7FFFFFE00000
BFAAAA900000
BE0000000000
BD0000000000
BD0000000000
BD0000015400
BE000003F400
7F000007F000
3F40000FE000
2FC0002FC000
1FE401FF4000
07FFAFFD0000
01FFFFE40000
002BFA400000
ENDCHAR
STARTCHAR uni0405
ENCODING 1029
SWIDTH 580 0
DWIDTH 21 0
BBX 20 26 1 0
BITMAP
00006FE900
000BFFFF80
003FFEFFF0
00FF8007F8
02FD0001FD
03F40000BE
07F00000BE
07F000006A
07F4000000
03F8000000
01FF400000
00BFF90000
001FFFD000
0002FFFD00
00001BFF40
000000BFC0
0000001FD0
0000000BE0
A800000BE0
FD00000BE0
FD00000FD0
BF00002FC0
3FD001FF40
1FFEAFFD00
02FFFFF400
006BFA4000
ENDCHAR
STARTCHAR uni0406
ENCODING 1030
SWIDTH 268 0
DWIDTH 10 0
BBX 8 26 1 0
BITMAP
007F
00BE
00BE
00FD
00FD
01FC
01FC
02F8
02F8
03F4
03F4
07F0
07F0
0BE0
0BE0
0FD0
0FD0
1FC0
1FC0
2F80
2F80
3F40
3F40
7F00
7F00
BE00
ENDCHAR
STARTCHAR uni0407
ENCODING 1031
SWIDTH 268 0
DWIDTH 10 0
BBX 13 32 1 0
BITMAP
06401A00
1FD03F80
1FD03F80
0B802E00
00000000
00000000
007F0000
00BE0000
00BE0000
00FD0000
00FD0000
01FC0000
01FC0000
02F80000
02F80000
03F40000
03F40000
07F00000
07F00000
0BE00000
0BE00000
0FD00000
0FD00000
1FC00000
1FC00000
2F800000
2F800000
3F400000
3F400000
7F000000
7F000000
BE000000
ENDCHAR
STARTCHAR uni0408
ENCODING 1032
SWIDTH 540 0
DWIDTH 19 0
BBX 20 26 0 0
BITMAP
00000000FD
00000001FC
00000001FC
00000002F8
00000002F8
00000003F4
00000003F4
00000007F0
00000007F0
0000000BE0
0000000BE0
0000000FD0
0000000FD0
0000001FC0
0000001FC0
0000002F80
0000002F40
0000003F40
5500007F00
BE00007F00
BE0000FE00
7F4002FD00
3FD01BF800
1FFEFFE000
07FFFF4000
00AFE80000
ENDCHAR
STARTCHAR uni0409
ENCODING 1033
SWIDTH 1043 0
DWIDTH 38 0
BBX 37 26 -1 0
BITMAP
00000FFFFFFFC0000000
00001FFFFFFFC0000000
00002FEAAABF80000000
00002F80002F80000000
00003F40003F40000000
00003F00003F40000000
00007F00007F00000000
0000BE00007F00000000
0000BD0000BE00000000
0000FD0000BD00000000
0001FC0000FFFFFE4000
0001F80000FFFFFFE000
0002F80001FEAAAFFC00
0002F40001F80002FE00
0003F40002F80000BF00
0003F00002F400003F40
0007E00003F400002F40
000BE00003F000002F40
000FD00007F000003F40
001FC00007E000007F00
002F80000BE00000BE00
00BF00000BD00002FD00
02FD00000FD0001BF800
7FF800001FEAAAFFE000
BFE000001FFFFFFF4000
FE4000002FFFFFE40000
ENDCHAR
STARTCHAR uni040A
ENCODING 1034
SWIDTH 1052 0
DWIDTH 38 0
BBX 35 26 1 0
BITMAP
007F000000FD000000
00BE000000FD000000
00BD000001FC000000
00FD000001FC000000
00FC000002F8000000
01FC000002F8000000
01F8000003F4000000
02F8000003F4000000
03F4000007F0000000
03F400000BF0000000
07F000000BE0000000
07FFFFFFFFFFFFE400
0BFFFFFFFFFFFFFF40
0BFAAAAAAFEAAAFFD0
0FD000001FC0001FF0
0FD000002F800003F4
1FC000002F800002F8
1FC000003F400002F8
2F8000003F400002F8
2F8000007F000003F4
3F4000007F000007F4
3F400000BE00001FE0
7F000000BE0001BFC0
7F000000FFFFFFFF40
BE000000FFFFFFF800
BE000001FFFFFE9000
ENDCHAR
STARTCHAR uni040B
ENCODING 1035
SWIDTH 793 0
DWIDTH 29 0
BBX 22 26 3 0
BITMAP
7FFFFFFFFF00
BFFFFFFFFE00
AAABFEAAA900
0003F4000000
0003F0000000
0007F0000000
0007E0000000
000BE0000000
000FD0000000
000FD0000000
001FDAFFA400
001FFFFFFE00
002FFFFBFF80
002F90002FD0
003F80000BE0
003F400007F0
007F000007F0
007F000007F0
00BE000007F0
00BE00000BE0
00FD00000BE0
00FD00000FD0
01FC00000FD0
01FC00001FC0
02F800001FC0
02F800002F80
ENDCHAR
STARTCHAR uni040C
ENCODING 1036
SWIDTH 612 0
DWIDTH 22 0
BBX 23 32 1 0
BITMAP
0000000FF000
0000003F8000
000000BE0000
000002F80000
000006E00000
000000000000
00BE00000BF4
00BE00002FD0
00FD0000BF40
00FD0003FD00
01FC000FF400
01FC003FD000
02F800FF4000
02F807FD0000
03F41FF40000
03F07FD00000
07F1FF400000
07E7FD000000
0BFFFD000000
0BFFFF000000
0FFF7F800000
1FF82FC00000
1FE00FE00000
2F8007F40000
2F8003F80000
3F4001FD0000
3F4000BF0000
7F00007F4000
7F00002FC000
BE00000FE000
BE00000BF000
FD000003F800
ENDCHAR
STARTCHAR uni040D
ENCODING 1037
SWIDTH 696 0
DWIDTH 25 0
BBX 24 33 1 0
BITMAP
00000BF00000
000002F80000
000000FC0000
0000007E0000
0000002E0000
000000000000
000000000000
007F000001FD
00BE000007FD
00BE00000FFC
00FD00002FFC
00FC00007FF8
01FC0001FFF4
01F80003FBF4
02F8000BF7F0
03F4002FD7F0
03F4007F47E0
07F001FE0BE0
07F003FC0BD0
0BE00BF40FD0
0BE02FD00FC0
0FD07F801FC0
0FD0FE002F80
1FC2FC002F80
1FCBF4003F40
2F9FD0003F40
2FBF80007F00
3FFF00007F00
3FFC0000BE00
7FF40000BE00
7FE00000FD00
BF800000FD00
BF000001FC00
ENDCHAR
STARTCHAR uni040E
ENCODING 1038
SWIDTH 614 0
DWIDTH 22 0
BBX 22 33 2 0
BITMAP
0001F403E000
0001F407D000
0000FD1FC000
00007FFF4000
00001BF80000
000000000000
000000000000
0FE000002FD0
0BF000007F80
07F40000BF40
03F40001FE00
02F80003FC00
02FC0007F400
01FD000FE000
00FD002FD000
00BE003F8000
007F00BF0000
003F41FE0000
003F42FC0000
002F87F40000
001FCFE00000
000FEFD00000
000BFF800000
0007FF000000
0007FD000000
0003FC000000
0007F4000000
000FE0000000
002FC0000000
007F40000000
2BFE00000000
7FF800000000
7F9000000000
ENDCHAR
STARTCHAR uni040F
ENCODING 1039
SWIDTH 696 0
DWIDTH 25 0
BBX 24 32 1 -6
BITMAP
007E000000FD
00BE000000FD
00BD000001FC
00FD000001FC
00FC000002F8
01FC000002F4
02F8000003F4
02F8000003F0
03F4000007F0
03F4000007E0
07F000000BE0
07F000000BD0
0BE000000FD0
0BE000001FC0
0FD000001FC0
0FD000002F80
1FC000002F80
1FC000003F40
2F8000003F40
2F8000007F00
3F4000007F00
3F400000BE00
7F000000BE00
7FAAAAAAFD00
BFFFFFFFFD00
BFFFFFFFFC00
0000FD000000
0001FC000000
0001FC000000
0002F8000000
0002F8000000
0003F4000000
ENDCHAR
STARTCHAR uni0410
ENCODING 1040
SWIDTH 637 0
DWIDTH 23 0
BBX 22 26 -1 0
BITMAP
0000002F4000
0000007F8000
000000FFC000
000001FFC000
000003FBD000
000007E7D000
00000FD7E000
00002F83F000
00003F03F000
0000BE02F400
0000FC02F400
0002F401F800
0007F000F800
000BD000FC00
001FC000BD00
002F4000BD00
007FFFFFFE00
00FFFFFFFE00
01FEAAAABF00
03F400003F40
07E000002F40
0FD000002F80
2F8000001F80
3F4000001FC0
BE0000000FC0
FD0000000FD0
ENDCHAR
STARTCHAR uni0411
ENCODING 1041
SWIDTH 616 0
DWIDTH 22 0
BBX 20 26 1 0
BITMAP
00BFFFFFFE
00FFFFFFFD
00FEAAAAA8
01FC000000
01FC000000
02F8000000
02F8000000
03F4000000
03F4000000
07F0000000
07F0000000
0BFFFFE800
0BFFFFFF80
0FFAAAFFE0
0FD0001BF4
1FC00003F8
1FC00001FC
2F800001FC
2F800001FC
3F400002F8
3F400003F4
7F00000FF0
7F00007FD0
BFAAABFF40
BFFFFFFD00
FFFFFE9000
ENDCHAR
STARTCHAR uni0412
ENCODING 1042
SWIDTH 608 0
DWIDTH 22 0
BBX 20 26 1 0
BITMAP
00BFFFFA00
00BFFFFFD0
00FEAABFF4
00FD0006FC
01FC0000FD
01F80000BE
02F80000BE
02F40000FD
03F40001FC
03F00007F8
07F0006FE0
07FFFFFF40
0BFFFFFD00
0FEAAAFF80
0FD0001FD0
1FC00007F0
1FC00003F0
2F800003F4
2F800003F4
3F400007F0
3F40000BE0
7F00002FD0
7F0001BF80
BFAAAFFE00
BFFFFFF800
FFFFFE4000
ENDCHAR
STARTCHAR uni0413
ENCODING 1043
SWIDTH 544 0
DWIDTH 20 0
BBX 20 26 1 0
BITMAP
007FFFFFFE
00BFFFFFFE
00BFAAAAA9
00FD000000
00FC000000
01FC000000
01F8000000
02F8000000
03F4000000
03F4000000
07F0000000
07F0000000
0BE0000000
0BE0000000
0FD0000000
0FD0000000
1FC0000000
1FC0000000
2F80000000
2F80000000
3F40000000
3F40000000
7F00000000
7F00000000
BE00000000
BE00000000
ENDCHAR
STARTCHAR uni0414
ENCODING 1044
SWIDTH 734 0
DWIDTH 26 0
BBX 27 32 -2 -6
BITMAP
000001FFFFFFF8
000002FFFFFFF4
000002FEAAABF4
000003F40007F0
000007F00007F0
000007F0000BE0
00000BE0000BE0
00000FD0000FD0
00000FD0000FD0
00001FC0001FC0
00002F80001FC0
00002F80002F80
00003F40002F80
00007F00003F40
0000BE00003F00
0000FE00007F00
0001FD00007E00
0002F80000BE00
0003F40000BD00
000BF00000FD00
001FD00000FC00
003F800001FC00
00BE000002F800
1BFEAAAAABFEA0
2FFFFFFFFFFFE0
3FFFFFFFFFFFE0
3F400000000FD0
7F000000000FC0
7F000000001FC0
BE000000002F80
BE000000002F80
FD000000003F40
ENDCHAR
STARTCHAR uni0415
ENCODING 1045
SWIDTH 556 0
DWIDTH 20 0
BBX 20 26 1 0
BITMAP
00BFFFFFFF
00BFFFFFFF
00FFAAAAAA
00FD000000
01FC000000
01F8000000
02F8000000
02F4000000
03F4000000
03F0000000
07F0000000
07FFFFFF80
0BFFFFFF40
0BFAAAAA40
0FD0000000
1FC0000000
1FC0000000
2F80000000
2F80000000
3F40000000
3F40000000
7F00000000
7F00000000
BFAAAAAA40
BFFFFFFF00
FFFFFFFF00
ENDCHAR
STARTCHAR uni0416
ENCODING 1046
SWIDTH 885 0
DWIDTH 32 0
BBX 35 26 -1 0
BITMAP
003F80000FD0000FF4
002FC0001FC0002FD0
000FD0001FC0007F80
000BF0002F8000FF00
0007F4002F8002FD00
0002F8003F4007F400
0001FC003F401FE000
0000FD007F003F8000
0000BE007F00BF0000
00003F40BE01FD0000
00002F80BE03F80000
00001FC0FD0BE00000
00000BFFFFFFC00000
00001FFFFFFF800000
00003FEBFEBFD00000
0000BF42F80FE00000
0002FE02F80BF00000
0007F803F407F80000
001FF003F402FC0000
007FC007F001FE0000
00FF4007F000BF0000
02FD000BE0007F4000
0BF8000BD0003FC000
1FE0000FD0001FD000
7FC0001FC0000FE000
FF40001FC0000BF400
ENDCHAR
STARTCHAR uni0417
ENCODING 1047
SWIDTH 580 0
DWIDTH 21 0
BBX 20 26 1 0
BITMAP
0001AFE900
001BFFFF80
007FFEFFF0
01FF400BF8
03FC0001FC
07F40000FD
0BE00000FD
00000000FD
00000001FC
00000007F4
0000006FD0
0002FFFF40
0003FFF800
0002AFFF00
0000007F80
0000000FD0
0000000BE0
0000000BE0
5400000BE0
FC00000FE0
FD00001FD0
BF00007F80
7FD006FF00
2FFEBFFD00
07FFFFE000
006FF90000
ENDCHAR
STARTCHAR uni0418
ENCODING 1048
SWIDTH 696 0
DWIDTH 25 0
BBX 24 26 1 0
BITMAP
007F000001FD
00BE000007FD
00BE00000FFC
00FD00002FFC
00FC00007FF8
01FC0001FFF4
01F80003FBF4
02F8000BF7F0
03F4002FD7F0
03F4007F47E0
07F001FE0BE0
07F003FC0BD0
0BE00BF40FD0
0BE02FD00FC0
0FD07F801FC0
0FD0FE002F80
1FC2FC002F80
1FCBF4003F40
2F9FD0003F40
2FBF80007F00
3FFF00007F00
3FFC0000BE00
7FF40000BE00
7FE00000FD00
BF800000FD00
BF000001FC00
ENDCHAR
STARTCHAR uni0419
ENCODING 1049
SWIDTH 696 0
DWIDTH 25 0
BBX 24 33 1 0
BITMAP
00000F801F00
00000B803F00
000007E1BD00
000002FFF800
0000006F9000
000000000000
000000000000
007F000001FD
00BE000007FD
00BE00000FFC
00FD00002FFC
00FC00007FF8
01FC0001FFF4
01F80003FBF4
02F8000BF7F0
03F4002FD7F0
03F4007F47E0
07F001FE0BE0
07F003FC0BD0
0BE00BF40FD0
0BE02FD00FC0
0FD07F801FC0
0FD0FE002F80
1FC2FC002F80
1FCBF4003F40
2F9FD0003F40
2FBF80007F00
3FFF00007F00
3FFC0000BE00
7FF40000BE00
7FE00000FD00
BF800000FD00
BF000001FC00
ENDCHAR
STARTCHAR uni041A
ENCODING 1050
SWIDTH 628 0
DWIDTH 23 0
BBX 23 26 1 0
BITMAP
007F000007F8
00BE00001FF0
00BD00007FC0
00FD0001FF00
00FC0007FC00
01FC001FF000
01F8007FD000
02F801FF4000
02F407FD0000
03F41FF40000
03F07FD00000
07FFFF400000
07FFFE000000
0BFAFF400000
0FD03F800000
0FD01FD00000
1FC00FF00000
1FC007F80000
2F8002FC0000
2F8000FE0000
3F4000BF4000
3F40003F8000
7F00001FD000
7F00000BF000
BE000007F800
BE000002FC00
ENDCHAR
STARTCHAR uni041B
ENCODING 1051
SWIDTH 691 0
DWIDTH 25 0
BBX 26 26 -1 0
BITMAP
00000FFFFFFFD0
00001FFFFFFFC0
00002FEAAABFC0
00002F40002F80
00003F40002F80
00007F00003F40
00007F00003F40
0000BE00007F00
0000BD00007E00
0000FD0000BE00
0001FC0000BD00
0001F80000FD00
0002F80000FC00
0002F40001FC00
0003F00001F800
0003F00002F800
0007E00003F400
000BD00003F400
000FD00007F000
001FC00007F000
003F40000BE000
00BF00000BE000
02FD00000FD000
BFF800000FD000
BFE000001FC000
FE4000001FC000
ENDCHAR
STARTCHAR uni041C
ENCODING 1052
SWIDTH 851 0
DWIDTH 31 0
BBX 29 26 1 0
BITMAP
00BF800000007FC0
00BFC0000000FFC0
00FFD0000002FF80
00FFD0000003FF80
01FFE000000BFF40
01FBE000001FFF40
02F7F000002FBF00
02F6F400007F7F00
03F2F40000BE7E00
03F1F80001FCBE00
07E0FC0003F4BD00
07E0FC000BE0FD00
0BE0BD000FD0FC00
0BD0BE002F81FC00
0FD07E007F42F800
1FC03F00BE02F800
1FC03F01FC03F400
2F802F42F403F400
2F801F87F007F000
3F401F8FD007F000
3F400FEF800BE000
7F000BFF400BE000
7F000BFE000FD000
BE0007FC000FD000
BE0003F8001FC000
FD0003F0001FC000
ENDCHAR
STARTCHAR uni041D
ENCODING 1053
SWIDTH 696 0
DWIDTH 25 0
BBX 24 26 1 0
BITMAP
00BE000000BE
00BE000000FD
00FD000001FC
00FD000001FC
01FC000002F8
01FC000002F8
02F8000003F4
02F4000003F4
03F4000007F0
03F0000007F0
07F000000BE0
07FFFFFFFFE0
0BFFFFFFFFD0
0BFAAAAAAFD0
0FD000001FC0
1FC000001FC0
1FC000002F80
2F8000002F80
2F8000003F40
3F4000003F40
3F4000007F00
7F0000007F00
7F000000BE00
BE000000BE00
BE000000FD00
FD000000FD00
ENDCHAR
STARTCHAR uni041E
ENCODING 1054
SWIDTH 671 0
DWIDTH 24 0
BBX 21 26 2 0
BITMAP
00006FF90000
0007FFFFD000
001FFFFFF400
00BFD007FC00
01FE0001FE00
03F800007F00
0BF000003F40
0FD000002F40
1FC000002F80
2F4000002F80
3F4000002F80
7F0000002F80
7E0000002F40
BE0000003F40
BE0000003F00
BD0000007F00
BD000000BE00
BE000000FD00
BE000001FC00
7F000003F400
3F40000BF000
2FC0002FD000
0FF401FF4000
07FFFFFD0000
01FFFFE40000
001BFA400000
ENDCHAR
STARTCHAR uni041F
ENCODING 1055
SWIDTH 696 0
DWIDTH 25 0
BBX 24 26 1 0
BITMAP
007FFFFFFFFD
00BFFFFFFFFD
00BFAAAAABFC
00FD000001FC
00FC000002F8
01FC000002F8
01F8000003F4
02F8000003F4
02F4000007F0
03F4000007F0
03F000000BE0
07F000000BD0
07E000000FD0
0BE000000FC0
0FD000001FC0
0FD000001F80
1FC000002F80
1FC000003F40
2F8000003F40
2F8000007F00
3F4000007F00
3F400000BE00
7F000000BE00
7F000000FD00
BE000000FD00
BE000001FC00
ENDCHAR
STARTCHAR uni0420
ENCODING 1056
SWIDTH 616 0
DWIDTH 22 0
BBX 21 26 1 0
BITMAP
00BFFFFE4000
00BFFFFFF400
00FFAAAFFD00
00FD0001FF00
01FC00003F80
01FC00002FC0
02F800001FC0
02F400001FC0
03F400001FC0
03F000002F80
07F000007F40
07E00001FE00
0BE0001BFD00
0BFFFFFFF400
0FFFFFFF8000
1FEAAAA40000
1FC000000000
2F8000000000
2F8000000000
3F4000000000
3F4000000000
7F0000000000
7F0000000000
BE0000000000
BE0000000000
FD0000000000
ENDCHAR
STARTCHAR uni0421
ENCODING 1057
SWIDTH 636 0
DWIDTH 23 0
BBX 21 26 2 0
BITMAP
00006FF90000
0007FFFFD000
002FFEBFF400
00BF9007FC00
01FD0000FE00
07F80000BF00
0BE000007F00
1FD000003F40
2F8000001A40
3F4000000000
3F4000000000
7F0000000000
BE0000000000
BE0000000000
BE0000000000
BD0000000000
FD0000000000
FD0000015400
BE000003F400
BE000007F000
7F00000FE000
3F80002FC000
1FE001FF4000
0BFFAFFD0000
01FFFFE00000
002BFA400000
ENDCHAR
STARTCHAR uni0422
ENCODING 1058
SWIDTH 583 0
DWIDTH 21 0
BBX 20 26 3 0
BITMAP
BFFFFFFFFE
BFFFFFFFFD
AAAAFEAAA9
0001FC0000
0001FC0000
0002F80000
0002F80000
0003F40000
0003F40000
0007F00000
0007F00000
000BE00000
000BE00000
000FD00000
000FD00000
001FC00000
001FC00000
002F800000
002F800000
003F400000
003F400000
007F000000
007F000000
00BE000000
00BE000000
00FD000000
ENDCHAR
STARTCHAR uni0423
ENCODING 1059
SWIDTH 614 0
DWIDTH 22 0
BBX 22 26 2 0
BITMAP
0FE000002FD0
0BF000007F80
07F40000BF40
03F40001FE00
02F80003FC00
02FC0007F400
01FD000FE000
00FD002FD000
00BE003F8000
007F00BF0000
003F41FE0000
003F42FC0000
002F87F40000
001FCFE00000
000FEFD00000
000BFF800000
0007FF000000
0007FD000000
0003FC000000
0007F4000000
000FE0000000
002FC0000000
007F40000000
2BFE00000000
7FF800000000
7F9000000000
ENDCHAR
STARTCHAR uni0424
ENCODING 1060
SWIDTH 753 0
DWIDTH 27 0
BBX 25 28 2 -1
BITMAP
0000007F000000
0000007E000000
000000BE000000
000000BD000000
0001AFFFE40000
001FFFFFFF4000
00BFFAFEBFE000
02FE01FC0BF400
0BF402F801FC00
1FD002F800BE00
3F4003F4007F00
7F0003F0003F00
BE0007F0003F00
FD0007E0003F40
FC000BE0003F00
FC000BD0007F00
FC000FD000BE00
FC000FC000FD00
FD001FC001FC00
BE001F8007F400
3F402F801FE000
2FE03F40BF8000
0BFEBFAFFE0000
02FFFFFFF40000
001BFFFA400000
00007E00000000
0000BE00000000
0000FD00000000
ENDCHAR
STARTCHAR uni0425
ENCODING 1061
SWIDTH 612 0
DWIDTH 22 0
BBX 24 26 -1 0
BITMAP
007F400001FE
002FC00003FC
001FD0000BF4
000BE0001FE0
0007F4007F80
0003F800FF00
0001FC02FD00
0000FE07F800
0000BF1FE000
00003FBFC000
00002FFF4000
00000FFD0000
00000BF80000
00001FF40000
00003FFC0000
0000BFFD0000
0001FEBF0000
0007F87F4000
000FF02F8000
002FD01FD000
00BF400FE000
01FE0007F400
03FC0003F800
0BF40002FC00
2FD00000FE00
7F800000BF00
ENDCHAR
STARTCHAR uni0426
ENCODING 1062
SWIDTH 713 0
DWIDTH 26 0
BBX 24 32 1 -6
BITMAP
007E000000FD
00BE000000FC
00FD000001FC
00FD000001F8
01FC000002F8
01FC000002F4
02F8000003F4
02F8000003F0
03F4000007F0
03F400000BE0
07F000000BE0
07F000000FD0
0BE000000FD0
0BE000001FC0
0FD000001FC0
0FD000002F80
1FC000002F80
1FC000003F40
2F8000003F40
2F8000007F00
3F4000007F00
3F400000BE00
7F000000BE00
7FAAAAAAFFE0
BFFFFFFFFFE0
BFFFFFFFFFE0
000000000BD0
000000000FC0
000000000FC0
000000001F80
000000001F80
000000002F40
ENDCHAR
STARTCHAR uni0427
ENCODING 1063
SWIDTH 668 0
DWIDTH 24 0
BBX 20 26 4 0
BITMAP
2F800000BE
3F400000FD
3F400000FD
7F000001FC
7F000001FC
BE000002F8
BE000002F8
FD000003F4
FD000007F4
FD000007F0
FD00000BF0
BF00000BE0
7F9005AFE0
2FFFFFFFD0
0BFFFFFFD0
006AA95FC0
0000001FC0
0000002F80
0000002F80
0000003F40
0000003F40
0000007F00
0000007F00
000000BE00
000000BE00
000000FD00
ENDCHAR
STARTCHAR uni0428
ENCODING 1064
SWIDTH 917 0
DWIDTH 33 0
BBX 32 26 1 0
BITMAP
007E0000BE0000FD
00BE0000BD0000FD
00BD0000FD0001FC
00FD0000FC0001FC
00FC0001FC0002F8
01FC0002F80002F8
02F80002F80003F4
02F80003F40003F4
03F40003F40007F0
03F40007F00007F0
07F00007F0000BE0
07F0000BE0000BE0
0BE0000BE0000FD0
0BE0000FD0000FD0
0FD0000FD0001FC0
0FD0001FC0001F80
1FC0001FC0002F80
1FC0002F80002F40
2F80002F80003F40
2F80003F40003F00
3F40003F40007F00
3F40007F00007E00
7F00007F0000BE00
7FAAAAFFAAAAFD00
BFFFFFFFFFFFFD00
BFFFFFFFFFFFFC00
ENDCHAR
STARTCHAR uni0429
ENCODING 1065
SWIDTH 944 0
DWIDTH 34 0
BBX 32 32 1 -6
BITMAP
007E0000BE0000FD
00BE0000BD0000FD
00BD0000FD0001FC
00FD0000FC0001FC
00FC0001FC0002F8
01FC0002F80002F8
02F80002F80003F4
02F80003F40003F4
03F40003F40007F0
03F40007F00007F0
07F00007F0000BE0
07F0000BE0000BE0
0BE0000BE0000FD0
0BE0000FD0000FD0
0FD0000FD0001FC0
0FD0001FC0001FC0
1FC0001FC0002F80
1FC0002F80002F80
2F80002F80003F40
2F80003F40003F40
3F40003F40007F00
3F40007F00007E00
7F00007F0000BE00
7FAAAAFFAAAAFFA0
BFFFFFFFFFFFFFE0
BFFFFFFFFFFFFFE0
0000000000000BD0
0000000000000FC0
0000000000000FC0
0000000000001F80
0000000000001F80
0000000000002F40
ENDCHAR
STARTCHAR uni042A
ENCODING 1066
SWIDTH 740 0
DWIDTH 27 0
BBX 23 26 2 0
BITMAP
7FFFFC000000
7FFFFC000000
6AABF8000000
0002F8000000
0003F4000000
0003F4000000
0007F0000000
0007F0000000
000BE0000000
000BE0000000
000FD0000000
000FFFFFE400
001FFFFFFF00
001FEAABFFC0
002F80001FE0
002F800007F4
003F400003F4
003F400003F4
007F000003F4
007F000007F4
00BE00000BF0
00BE00001FE0
00FD0001BFC0
00FEAAAFFF00
01FFFFFFF800
01FFFFFE4000
ENDCHAR
STARTCHAR uni042B
ENCODING 1067
SWIDTH 843 0
DWIDTH 30 0
BBX 29 26 1 0
BITMAP
007F000000002F80
00BE000000003F40
00BE000000003F40
00FD000000007F00
00FD000000007F00
01FC00000000BE00
01FC00000000BE00
02F800000000FD00
02F800000000FD00
03F400000001FC00
03F400000001FC00
07FFFFE90002F800
07FFFFFF8002F400
0BFAAAFFE003F400
0BE0000BF803F000
0FD00002FC07F000
1FD00001FD07E000
1FC00000FD0BE000
2F800000FD0BD000
2F800001FC0FD000
3F400003F80FC000
3F40000BF41FC000
7F00006FE01F8000
7FAAABFF802F8000
BFFFFFFD003F4000
BFFFFF90003F4000
ENDCHAR
STARTCHAR uni042C
ENCODING 1068
SWIDTH 613 0
DWIDTH 22 0
BBX 19 26 1 0
BITMAP
00BE000000
00FD000000
00FD000000
01FC000000
01FC000000
02F8000000
02F8000000
03F4000000
03F4000000
07F0000000
07F0000000
0BFFFFE800
0BFFFFFF80
0FFAAAFFE0
0FD0001BF4
1FC00003F8
1FC00001FC
2F800001FC
2F800001FC
3F400002F8
3F400003F4
7F00000FF0
7F00007FD0
BFAAABFF40
BFFFFFFD00
FFFFFE9000
ENDCHAR
STARTCHAR uni042D
ENCODING 1069
SWIDTH 658 0
DWIDTH 24 0
BBX 21 26 2 0
BITMAP
00006FF90000
000BFFFF8000
002FFEFFE000
00BF8007F800
02FD0001FD00
03F40000BE00
0BF000007F00
0FD000003F00
0A8000003F40
000000003F40
000000003F40
0003FFFFFF40
0003FFFFFF00
0006AAAAFF00
00000000BE00
00000000FE00
00000000FD00
55000002FC00
FD000003F800
BE00000BF400
7F00001FE000
3F40007FC000
2FE001FF4000
0BFFAFFD0000
02FFFFE00000
006BFA400000
ENDCHAR
STARTCHAR uni042E
ENCODING 1070
SWIDTH 872 0
DWIDTH 31 0
BBX 30 26 1 0
BITMAP
007F00001BFE4000
00BE0001FFFFE400
00BE000BFFFFFD00
00FD003FE401FF00
00FD00BF80007F40
01FC01FE00002FC0
01F803F800000FC0
02F807F400000FD0
02F40FE000000BD0
03F41FD000000BE0
03F01FC000000BE0
07FFFFC000000BD0
07FFFF8000000FD0
0BEABF8000000FD0
0BD03F4000001FC0
0FD03F4000001F80
0FC03F4000002F80
1FC02F4000003F40
1F802F800000BE00
2F801F800000FD00
2F400FD00002F800
3F400BE0000BF400
3F0003F9007FD000
7F0001FFFFFF4000
7E00007FFFF80000
BE000006FE900000
ENDCHAR
STARTCHAR uni042F
ENCODING 1071
SWIDTH 622 0
DWIDTH 22 0
BBX 22 26 0 0
BITMAP
00001AFFFFE0
0001FFFFFFE0
000BFFEAAFD0
002FF4000FD0
007F80001FC0
00BF00001FC0
00FD00002F80
01FC00002F80
01FC00003F40
01FC00003F40
00FD00007F00
00BF00007E00
007FD000BE00
001FFFFFFD00
0007FFFFFD00
0003FAAAFC00
000BE001FC00
002FC002F800
007F4002F800
00FE0003F400
02FC0003F400
07F40007F000
0FE00007F000
2FC0000BE000
7F40000BE000
FE00000FD000
ENDCHAR
STARTCHAR uni0430
ENCODING 1072
SWIDTH 532 0
DWIDTH 19 0
BBX 16 19 1 0
BITMAP
0006FE40
007FFFF4
02FFABFC
07F801FE
0BE000BE
0A90007F
0000007E
0000007E
006BFFFD
07FFFFFD
1FF955FC
7F8000FC
BE0001F8
FD0002F8
FD0007F4
BF406FF4
7FFFFFF4
2FFFF7F4
06FE43F4
ENDCHAR
STARTCHAR uni0431
ENCODING 1073
SWIDTH 541 0
DWIDTH 19 0
BBX 19 27 1 0
BITMAP
00000001F4
00000007F0
0000016FE0
00006FFF80
0007FFF900
001FF94000
007F800000
01FD000000
02F0000000
07D1BF9000
0B9FFFF800
0FBFABFE00
1FF800BF00
2FD0003F80
3F80001F80
3F40001FC0
7F00000FC0
7E00000FC0
BE00001FC0
BE00002F80
7E00003F40
7F00007F00
3F4001FD00
1FD007F800
0BFABFE000
02FFFF8000
006FE80000
ENDCHAR
STARTCHAR uni0432
ENCODING 1074
SWIDTH 559 0
DWIDTH 20 0
BBX 17 19 1 0
BITMAP
03FFFF9000
03FFFFFE00
07FAAAFF40
07E0002FC0
0BE0000FC0
0BD0001FC0
0FD0002F80
0FC001BF00
1FFFFFF800
2FFFFFE400
2FAAABFD00
3F4000BF00
3F00003F00
7F00003F40
7E00007F00
BE0001FE00
BEAAAFFC00
FFFFFFF400
FFFFFE4000
ENDCHAR
STARTCHAR uni0433
ENCODING 1075
SWIDTH 411 0
DWIDTH 15 0
BBX 15 19 1 0
BITMAP
03FFFFF8
07FFFFF8
07FAAAA4
0BE00000
0BE00000
0FD00000
0FC00000
1FC00000
1F800000
2F800000
2F400000
3F400000
3F000000
7F000000
7E000000
BE000000
BD000000
FD000000
FC000000
ENDCHAR
STARTCHAR uni0434
ENCODING 1076
SWIDTH 590 0
DWIDTH 21 0
BBX 21 25 -2 -6
BITMAP
00003FFFFFC0
00003FFFFF80
00007FFFFF80
0000BE002F40
0000BD003F40
0000FD003F00
0001FC007F00
0001F8007E00
0002F800BE00
0003F400BD00
0007F000FD00
000BE000FC00
000FD001FC00
002F8001F800
007F0002F800
01FD0002F400
1BFEAAABFA40
2FFFFFFFFF40
3FFFFFFFFF40
3F0000003F00
7F0000007F00
7E0000007E00
BE000000BE00
BD000000BD00
FD000000FD00
ENDCHAR
STARTCHAR uni0435
ENCODING 1077
SWIDTH 518 0
DWIDTH 19 0
BBX 17 19 1 0
BITMAP
0006FE4000
002FFFF400
01FFABFC00
03F900FE00
0BE0007F00
1FD0002F40
2F80002F40
3F40002F40
7FFFFFFF40
7FFFFFFF40
7FAAAAAA00
7E00000000
7E00000000
7F00000000
3F40006000
1FD002F800
0BFEAFF400
02FFFF8000
006FF90000
ENDCHAR
STARTCHAR uni0436
ENCODING 1078
SWIDTH 747 0
DWIDTH 27 0
BBX 29 19 -2 0
BITMAP
007F4003F4007F80
002F8003F000FF00
001FD007F002FD00
000BE007E00BF400
0007F00BE01FE000
0003F80BD03F8000
0001FC0FD0BF0000
0000FD0FC2FD0000
00007FFFFFF40000
00007FFFFFE00000
0001FFFFFFF00000
0007F82F43F80000
000FF03F41FC0000
002FD03F00FE0000
00BF407F00BF0000
02FD007E003F8000
07F800BE002FC000
1FE000FD000FE000
7FC000FC000BF000
ENDCHAR
STARTCHAR uni0437
ENCODING 1079
SWIDTH 497 0
DWIDTH 18 0
BBX 17 19 0 0
BITMAP
0006FF9000
006FFFF800
01FFEBFE00
03FD00BF00
07F0003F40
0690003F40
0000007F00
000006FD00
000FFFF400
001FFFD000
001ABFF400
000002FC00
000000FC00
7E0000FC00
7F0001FC00
3F8007F800
1FFABFF000
07FFFF8000
00AFE90000
ENDCHAR
STARTCHAR uni0438
ENCODING 1080
SWIDTH 564 0
DWIDTH 20 0
BBX 18 19 1 0
BITMAP
03F4000BF0
03F0001FE0
07F0007FE0
07E000FFD0
0BE002FFD0
0FD00BFFC0
0FC01FDFC0
1FC07F6F80
1F80FD2F40
2F82F83F40
2F4BE03F00
3F5FC07F00
3F7F407E00
7FFD00BE00
7FF800BD00
BFE000FD00
BFC000FC00
FF4001FC00
FE0001F800
ENDCHAR
STARTCHAR uni0439
ENCODING 1081
SWIDTH 564 0
DWIDTH 20 0
BBX 18 27 1 0
BITMAP
0007D00F80
0007D01F40
0003F47F00
0001FFFD00
00006FE000
0000000000
0000000000
0000000000
03F4000BF0
03F0001FE0
07F0007FE0
07E000FFD0
0BE002FFD0
0FD00BFFC0
0FC01FDFC0
1FC07F6F80
1F80FD2F40
2F82F83F40
2F4BE03F00
3F5FC07F00
3F7F407E00
7FFD00BE00
7FF800BD00
BFE000FD00
BFC000FC00
FF4001FC00
FE0001F800
ENDCHAR
STARTCHAR uni043A
ENCODING 1082
SWIDTH 528 0
DWIDTH 19 0
BBX 18 19 1 0
BITMAP
03F4000FF0
03F0003FC0
07F000FF40
07E002FD00
0BE00BF400
0FD02FD000
0FD0BF4000
1FC2FD0000
1FFFF40000
2FFFE00000
2FFFF40000
3F42FC0000
3F01FE0000
7F00BF4000
7E003F8000
BE001FD000
BD000BF000
FD0003F800
FC0001FD00
ENDCHAR
STARTCHAR uni043B
ENCODING 1083
SWIDTH 565 0
DWIDTH 20 0
BBX 20 19 -1 0
BITMAP
0002FFFFFF
0002FFFFFE
0003FAAAFE
0007F000BD
0007E000FD
000BD000FC
000FD001FC
000FC001F8
001F8002F8
001F8003F4
002F4003F4
003F4007F0
003F0007E0
00BE000BE0
01FD000BD0
07F8000FD0
BFF4000FC0
BFD0001FC0
FE00001F80
ENDCHAR
STARTCHAR uni043C
ENCODING 1084
SWIDTH 724 0
DWIDTH 26 0
BBX 24 19 1 0
BITMAP
03FD000002FE
03FE000007FD
07FE00000BFD
07FF00001FFC
0BFF40003FFC
0BEF8000BFF8
0FDF8001FEF8
0FCBC002F6F4
1FCBD007E3F4
2F87E00FC3F0
2F43E02F87F0
3F42F07F07E0
3F02F4FD0BE0
7F01F9F80BD0
7E00FFF00FD0
BE00BFD00FC0
BD007FC01FC0
FD007F402F80
FC003E002F40
ENDCHAR
STARTCHAR uni043D
ENCODING 1085
SWIDTH 564 0
DWIDTH 20 0
BBX 18 19 1 0
BITMAP
03F40007F0
03F0000BE0
07F0000BE0
07E0000FD0
0BE0000FC0
0FD0001FC0
0FC0001F80
1FC0002F80
1FFFFFFF40
2FFFFFFF40
2FAAAABF00
3F40007F00
3F00007E00
7F0000BE00
7E0000BD00
BE0000FD00
BD0000FC00
FD0001FC00
FC0001F800
ENDCHAR
STARTCHAR uni043E
ENCODING 1086
SWIDTH 558 0
DWIDTH 20 0
BBX 18 19 1 0
BITMAP
0006FF9000
006FFFF400
01FFEBFD00
07F900BF00
0BE0002F80
1FC0001FC0
2F80000FD0
3F00000FD0
7F00000FD0
BE00000FD0
BE00000FC0
BE00001F80
7E00002F80
7F00007F00
3F4000FE00
1FD007F800
0BFEBFE000
02FFFF8000
006FF90000
ENDCHAR
STARTCHAR uni043F
ENCODING 1087
SWIDTH 564 0
DWIDTH 20 0
BBX 18 19 1 0
BITMAP
03FFFFFFF0
03FFFFFFE0
07FAAAAFE0
07E0000BD0
0BE0000FD0
0FD0000FC0
0FD0001FC0
1FC0002F80
1FC0002F40
2F80003F40
2F40003F00
3F40007F00
3F00007E00
7F0000BE00
7E0000BD00
BE0000FD00
BD0000FC00
FD0001FC00
FC0001F800
ENDCHAR
STARTCHAR uni0440
ENCODING 1088
SWIDTH 549 0
DWIDTH 20 0
BBX 19 26 -1 -7
BITMAP
007E1BF900
007EBFFF80
00BFFEBFE0
00BFD00BF4
00FE0003F8
00FC0002F8
01FC0001FC
01F80001FC
02F80001FC
02F40001F8
03F40002F8
07F00003F4
07E00007F0
0BE0000BE0
0BF0002FD0
0FF800BF80
0FFFABFE00
1FDFFFF800
1FC1BF9000
2F80000000
2F40000000
3F40000000
3F00000000
7F00000000
7E00000000
BE00000000
ENDCHAR
STARTCHAR uni0441
ENCODING 1089
SWIDTH 512 0
DWIDTH 18 0
BBX 17 19 1 0
BITMAP
0006FE8000
007FFFF400
01FFABFD00
07F800BE00
0FE0003F40
1FC0002F40
2F40001A40
3F00000000
7E00000000
7E00000000
BE00000000
BE00000000
7E00000000
7F0000BD00
3F4001FC00
2FD00BF400
0BFABFE000
02FFFF4000
006FE40000
ENDCHAR
STARTCHAR uni0442
ENCODING 1090
SWIDTH 470 0
DWIDTH 17 0
BBX 16 19 2 0
BITMAP
FFFFFFFD
FFFFFFFD
AAAFEAA8
001F8000
002F8000
002F4000
003F4000
003F0000
007F0000
007E0000
00BE0000
00BD0000
00FD0000
00FC0000
01FC0000
01F80000
02F80000
02F40000
03F40000
ENDCHAR
STARTCHAR uni0443
ENCODING 1091
SWIDTH 463 0
DWIDTH 17 0
BBX 20 26 -2 -7
BITMAP
00FD0000FD
00BD0002FC
00BE0003F4
007E000BE0
007F000FD0
003F002F80
003F403F40
002F40BE00
002F80FD00
001F82F800
001FC3F000
000FCBE000
000BDFC000
000BEF8000
0007FF0000
0007FE0000
0003FC0000
0003F40000
0003F00000
000BD00000
001FC00000
002F400000
01BE000000
7FFC000000
7FF4000000
7F80000000
ENDCHAR
STARTCHAR uni0444
ENCODING 1092
SWIDTH 708 0
DWIDTH 25 0
BBX 23 34 1 -7
BITMAP
0000007F0000
0000007E0000
000000BE0000
000000FD0000
000000FC0000
000001FC0000
000001F80000
000002F80000
001BFBFAF900
00BFFFFFFF80
02FFABFEBFD0
07F803F00BF0
0FE007F007F4
1FC00BE003F4
2F800BE002F4
3F400FD002F8
7F000FC002F4
7E001FC002F4
BE001F8003F4
BE002F8003F0
BE002F4007E0
BE003F400FD0
7F007F002FC0
3F807E00BF80
2FFAFFABFE00
0BFFFFFFF800
02FEFEBF9000
0000FD000000
0000FC000000
0001FC000000
0001F8000000
0002F4000000
0003F4000000
0003F0000000
ENDCHAR
STARTCHAR uni0445
ENCODING 1093
SWIDTH 485 0
DWIDTH 17 0
BBX 19 19 -1 0
BITMAP
01FC0007F4
00FD001FE0
007F003F80
003F40BF00
002F81FD00
000FC7F400
000BEFE000
0003FF8000
0002FF0000
0001FD0000
0007FE0000
000FFF0000
002FAF8000
00BF0FC000
01FD0BE000
07F407F000
0FE002F800
2FC001FC00
BF4000FE00
ENDCHAR
STARTCHAR uni0446
ENCODING 1094
SWIDTH 579 0
DWIDTH 21 0
BBX 18 25 1 -6
BITMAP
03F40007F0
03F00007E0
07F0000BE0
07E0000BD0
0BE0000FD0
0FD0001FC0
0FD0001FC0
1FC0002F80
1FC0002F40
2F80003F40
2F40003F00
3F40007F00
3F00007E00
7F0000BE00
7E0000BD00
BE0000FD00
BFAAAAFE90
FFFFFFFFC0
FFFFFFFFC0
0000001F80
0000002F40
0000002F40
0000003F00
0000003F00
0000007E00
ENDCHAR
STARTCHAR uni0447
ENCODING 1095
SWIDTH 532 0
DWIDTH 19 0
BBX 16 19 2 0
BITMAP
2F80007F
3F4000BE
3F0000BE
7F0000FD
7E0000FD
7E0001FC
BE0002FC
7F0002F8
3F9017F8
1FFFFFF4
07FFFFF4
006A97F0
000007E0
00000BE0
00000BD0
00000FD0
00000FC0
00001FC0
00001F80
ENDCHAR
STARTCHAR uni0448
ENCODING 1096
SWIDTH 789 0
DWIDTH 28 0
BBX 26 19 1 0
BITMAP
03F4003F0003F0
03F0007F0007F0
07F0007E000BE0
07E000BE000BE0
0BE000BD000FD0
0FD000FD000FD0
0FD000FC001FC0
1FC001FC001FC0
1FC001F8002F80
2F8002F8002F40
2F4002F4003F40
3F4003F4003F00
3F0003F0007F00
7F0007F0007E00
7E0007E000BE00
BE000BE000BD00
BFAAAFEAAAFD00
FFFFFFFFFFFC00
FFFFFFFFFFFC00
ENDCHAR
STARTCHAR uni0449
ENCODING 1097
SWIDTH 807 0
DWIDTH 29 0
BBX 27 25 0 -6
BITMAP
00FC001FC001FC
01FC001F8002F8
01F8002F8002F8
02F8002F4003F4
03F4003F4003F0
03F4003F0007F0
07F0007F0007E0
07F0007E000BE0
0BE000BE000BD0
0BD000BD000FD0
0FD000FD000FC0
0FC000FC001FC0
1FC001FC001F80
1F8001F8002F80
2F8002F8002F40
2F4003F4003F40
3FAAABFAAABFA4
3FFFFFFFFFFFF4
7FFFFFFFFFFFF4
000000000003F0
000000000007F0
000000000007E0
000000000007D0
00000000000BD0
00000000000BC0
ENDCHAR
STARTCHAR uni044A
ENCODING 1098
SWIDTH 606 0
DWIDTH 22 0
BBX 19 19 1 0
BITMAP
3FFFE00000
7FFFD00000
6AAFD00000
000FC00000
001FC00000
002F800000
002F800000
003FFFFA00
003FFFFFD0
007FAAAFF4
007F0003F8
00BE0001FC
00BD0001FC
00FD0001FC
00FC0003F8
01FC000BF4
01FEAABFD0
02FFFFFF40
02FFFFE400
ENDCHAR
STARTCHAR uni044B
ENCODING 1099
SWIDTH 757 0
DWIDTH 27 0
BBX 25 19 1 0
BITMAP
03F40000002F40
03F00000003F40
07F00000003F00
07E00000007F00
0BE00000007E00
0BD0000000BE00
0FD0000000FD00
0FFFFE4000FC00
1FFFFFE001FC00
2FEAAFF801F800
2F8001FD02F800
3F4000BE02F400
3F4000BE03F400
7F0000BE03F000
7E0001FD07F000
BE0007FC07E000
BFAABFF40BE000
FFFFFF900BD000
FFFFF9000FD000
ENDCHAR
STARTCHAR uni044C
ENCODING 1100
SWIDTH 531 0
DWIDTH 19 0
BBX 16 19 1 0
BITMAP
03F40000
03F00000
07F00000
07E00000
0BE00000
0BD00000
0FD00000
0FFFFE40
1FFFFFE0
2FEAAFF8
2F8001FD
3F4000BE
3F4000BE
7F0000BE
7E0001FD
BE0007FC
BFAABFF4
FFFFFF90
FFFFF900
ENDCHAR
STARTCHAR uni044D
ENCODING 1101
SWIDTH 526 0
DWIDTH 19 0
BBX 16 19 1 0
BITMAP
000AFA00
00BFFFD0
02FFAFF4
0BF402FC
1FD000FD
2F80007E
1500007E
0000007F
000FFFFF
001FFFFE
001AAAFE
000000BD
BC0001FC
FD0002F8
BE0007F0
7F402FD0
2FEAFF80
0BFFFD00
01BF9000
ENDCHAR
STARTCHAR uni044E
ENCODING 1102
SWIDTH 796 0
DWIDTH 29 0
BBX 26 19 1 0
BITMAP
03F40001BF9000
03F0001FFFFD00
07F000BFEAFF40
07E001FE007F80
0BE007F4001FD0
0BD00BE0000BE0
0FD01FC00007E0
0FC02F800007F0
1FFFFF400007F0
2FFFFF400007E0
2FAABF00000BE0
3F403F00000FD0
3F003F40001FC0
7F002F40002F80
7E001FC000BF00
BE000FE002FD00
BD0007FEAFF400
FD0001FFFFD000
FC00002BF90000
ENDCHAR
STARTCHAR uni044F
ENCODING 1103
SWIDTH 537 0
DWIDTH 19 0
BBX 19 19 -1 0
BITMAP
0001BFFFFC
001FFFFFF8
007FFAABF8
00FF4002F4
01FC0003F4
02F80007F0
02F40007F0
02F8000BE0
01FE000BE0
00BFFFFFD0
002FFFFFC0
001FEAAFC0
003F801F80
00BE002F80
02FC002F40
07F4003F40
1FD0003F00
3F80007F00
BF00007E00
ENDCHAR
STARTCHAR uni0450
ENCODING 1104
SWIDTH 518 0
DWIDTH 19 0
BBX 17 27 1 0
BITMAP
000BF00000
0003F40000
0001FC0000
00007E0000
00002A0000
0000000000
0000000000
0000000000
0006FE4000
002FFFF400
01FFABFC00
03F900FE00
0BE0007F00
1FD0002F40
2F80002F40
3F40002F40
7FFFFFFF40
7FFFFFFF40
7FAAAAAA00
7E00000000
7E00000000
7F00000000
3F40006000
1FD002F800
0BFEAFF400
02FFFF8000
006FF90000
ENDCHAR
STARTCHAR uni0451
ENCODING 1105
SWIDTH 518 0
DWIDTH 19 0
BBX 17 26 1 0
BITMAP
000A401900
002FC07F40
002FC07F40
001F402E00
0000000000
0000000000
0000000000
0006FE4000
002FFFF400
01FFABFC00
03F900FE00
0BE0007F00
1FD0002F40
2F80002F40
3F40002F40
7FFFFFFF40
7FFFFFFF40
7FAAAAAA00
7E00000000
7E00000000
7F00000000
3F40006000
1FD002F800
0BFEAFF400
02FFFF8000
006FF90000
ENDCHAR
STARTCHAR uni0452
ENCODING 1106
SWIDTH 539 0
DWIDTH 19 0
BBX 18 34 0 -7
BITMAP
003F400000
003F000000
007F000000
1FFFFF8000
1FFFFF4000
1AFEAA4000
00FD000000
00FC000000
01FC1BF800
01F9FFFF00
02FFFAFF80
02FF402FC0
03FD000FC0
03F4000FD0
07F0000FC0
07E0000FC0
0BE0001FC0
0BD0002F80
0FD0002F80
0FC0003F40
1FC0003F00
2F80007F00
2F80007E00
3F4000BE00
3F4000BD00
7F0000FD00
7E0000FC00
000001FC00
000001F800
000002F800
000007F400
0002BFE000
0007FF8000
0007F90000
ENDCHAR
STARTCHAR uni0453
ENCODING 1107
SWIDTH 411 0
DWIDTH 15 0
BBX 15 27 1 0
BITMAP
00000FF0
00002FC0
0000BE00
0002F800
0006E000
00000000
00000000
00000000
03FFFFF8
07FFFFF8
07FAAAA4
0BE00000
0BE00000
0FD00000
0FC00000
1FC00000
1F800000
2F800000
2F400000
3F400000
3F000000
7F000000
7E000000
BE000000
BD000000
FD000000
FC000000
ENDCHAR
STARTCHAR uni0454
ENCODING 1108
SWIDTH 526 0
DWIDTH 19 0
BBX 17 19 1 0
BITMAP
0006BF9000
002FFFF800
00FFEBFE00
02FD00BF00
0BF0002F80
0FD0001F80
1F80000F80
2F40000000
3FFFFC0000
7FFFFC0000
7FAAA40000
7E00000000
7F00001500
3F0000BD00
2F4001FC00
1FD007F800
0BFEBFE000
02FFFF4000
006FE40000
ENDCHAR
STARTCHAR uni0455
ENCODING 1109
SWIDTH 504 0
DWIDTH 18 0
BBX 16 19 1 0
BITMAP
001BFE40
00BFFFE0
03FFAFF8
0BF402FD
0FD000BE
0FC00069
0FD00000
0BF90000
03FFE400
00BFFF40
0006FFE0
00001BF0
000003F4
FC0002F4
FD0003F4
BF401BF0
3FFAFFD0
0BFFFF40
01BFE400
ENDCHAR
STARTCHAR uni0456
ENCODING 1110
SWIDTH 240 0
DWIDTH 9 0
BBX 8 26 1 0
BITMAP
0068
00FD
01FD
00B8
0000
0000
0000
03F4
03F0
07F0
07E0
0BE0
0FD0
0FC0
1FC0
1F80
2F80
2F40
3F40
3F00
7F00
7E00
BE00
BD00
FD00
FC00
ENDCHAR
STARTCHAR uni0457
ENCODING 1111
SWIDTH 244 0
DWIDTH 9 0
BBX 11 26 1 0
BITMAP
280064
BE01FC
BE01FC
7D00B8
000000
000000
000000
03F400
03F000
07F000
0BE000
0BE000
0FD000
0FC000
1FC000
1F8000
2F8000
2F4000
3F4000
3F0000
7F0000
7E0000
BE0000
BD0000
FD0000
FC0000
ENDCHAR
STARTCHAR uni0458
ENCODING 1112
SWIDTH 236 0
DWIDTH 9 0
BBX 12 33 -4 -7
BITMAP
000029
00007F
00007F
00002E
000000
000000
000000
0000FC
0001FC
0001F8
0002F8
0003F4
0003F4
0007F0
0007E0
000BE0
000BD0
000FD0
000FC0
001FC0
001F80
002F80
002F40
003F40
003F00
007F00
007E00
00BE00
00FD00
02FC00
EFF800
FFE000
BE4000
ENDCHAR
STARTCHAR uni0459
ENCODING 1113
SWIDTH 827 0
DWIDTH 30 0
BBX 29 19 -1 0
BITMAP
0002FFFFFD000000
0003FFFFFC000000
0003FAAAFC000000
0007F001F8000000
000BE002F8000000
000BD002F4000000
000FD003F4000000
000FC003FFFF9000
001F8007FFFFF800
002F8007FAABFE00
002F400BE0007F40
003F000BD0002F80
007F000FD0002F80
00BE000FC0002F80
01FD001FC0007F40
07F8002F8001FF00
BFF0002FEAAFFD00
FFD0003FFFFFF400
FE00003FFFFE4000
ENDCHAR
STARTCHAR uni045A
ENCODING 1114
SWIDTH 840 0
DWIDTH 30 0
BBX 28 19 1 0
BITMAP
03F40007F00000
03F0000BE00000
07F0000BE00000
07E0000FD00000
0BE0000FC00000
0FD0001FC00000
0FC0001F800000
1FFFFFFFFFFA00
1FFFFFFFFFFFD0
2FEAAABFAAAFF4
2F40003F0002FC
3F40007F0000FC
3F00007E0000FD
7F0000BE0001FC
7E0000BD0002FC
BE0000FD000BF4
BD0000FEAABFE0
FD0001FFFFFF80
FC0001FFFFE900
ENDCHAR
STARTCHAR uni045B
ENCODING 1115
SWIDTH 554 0
DWIDTH 20 0
BBX 18 27 0 0
BITMAP
003F400000
003F000000
007F000000
0BFFFFC000
0FFFFFC000
0AFEAA4000
00FD000000
00FC000000
01FC1BF800
01F9FFFE00
02FFFAFF80
02FF402FC0
03FD001FC0
03F4000FD0
07F0000FC0
07E0000FC0
0BE0001FC0
0BD0001F80
0FD0002F80
0FC0002F40
1FC0003F40
2F80003F00
2F80007F00
3F40007E00
3F4000BE00
7F0000FD00
7E0000FC00
ENDCHAR
STARTCHAR uni045C
ENCODING 1116
SWIDTH 528 0
DWIDTH 19 0
BBX 18 27 1 0
BITMAP
000000FE00
000003F800
00000FE000
00002F8000
00006E0000
0000000000
0000000000
0000000000
03F4000FF0
03F0003FC0
07F000FF40
07E002FD00
0BE00BF400
0FD02FD000
0FD0BF4000
1FC2FD0000
1FFFF40000
2FFFE00000
2FFFF40000
3F42FC0000
3F01FE0000
7F00BF4000
7E003F8000
BE001FD000
BD000BF000
FD0003F800
FC0001FD00
ENDCHAR
STARTCHAR uni045D
ENCODING 1117
SWIDTH 564 0
DWIDTH 20 0
BBX 18 27 1 0
BITMAP
0003F40000
0001FC0000
0000BE0000
00003F0000
00001E4000
0000000000
0000000000
0000000000
03F4000BF0
03F0001FE0
07F0007FE0
07E000FFD0
0BE002FFD0
0FD00BFFC0
0FC01FDFC0
1FC07F6F80
1F80FD2F40
2F82F83F40
2F4BE03F00
3F5FC07F00
3F7F407E00
7FFD00BE00
7FF800BD00
BFE000FD00
BFC000FC00
FF4001FC00
FE0001F800
ENDCHAR
STARTCHAR uni045E
ENCODING 1118
SWIDTH 463 0
DWIDTH 17 0
BBX 20 34 -2 -7
BITMAP
0000BC01F4
0000BC02F0
00007E5BE0
00002FFF80
000006F900
0000000000
0000000000
0000000000
00FD0000FD
00BD0002FC
00BE0003F4
007E000BE0
007F000FD0
003F002F80
003F403F40
002F40BE00
002F80FD00
001F82F800
001FC3F000
000FCBE000
000BDFC000
000BEF8000
0007FF0000
0007FE0000
0003FC0000
0003F40000
0003F00000
000BD00000
001FC00000
002F400000
01BE000000
7FFC000000
7FF4000000
7F80000000
ENDCHAR
STARTCHAR uni045F
ENCODING 1119
SWIDTH 564 0
DWIDTH 20 0
BBX 18 25 1 -6
BITMAP
03F40007F0
03F00007E0
07F0000BE0
07E0000BD0
0BE0000FD0
0FD0001FC0
0FD0001FC0
1FC0002F80
1FC0002F40
2F80003F40
2F40003F00
3F40007F00
3F00007E00
7F0000BE00
7E0000BD00
BE0000FD00
BFAAAAFC00
FFFFFFFC00
FFFFFFF800
001F800000
002F800000
002F400000
003F400000
003F000000
007F000000
ENDCHAR
STARTCHAR uni0460
ENCODING 1120
SWIDTH 857 0
DWIDTH 31 0
BBX 29 26 2 0
BITMAP
02F8000BF0001FC0
02F4000BE0002F80
03F4000FD0002F80
03F0000FD0003F40
07F0001FC0003F40
07E0001FC0007F00
0BE0002F80007F00
0BD0002F8000BE00
0FD0003F4000BE00
0FC0003F4000FD00
1FC0007F0000FD00
2F80007F0001FC00
2F8000BE0001FC00
3F4000BE0002F800
3F4000FD0002F800
7F0000FD0003F400
7F0001FC0003F400
BE0001FC0007F000
BE0002F80007F000
BE0003F8000BE000
BE0007FC000FD000
BF000BFC002FC000
7F806FFE00BF4000
2FFBFE7FEBFE0000
0BFFF81FFFF80000
01BF9006FE800000
ENDCHAR
STARTCHAR uni0461
ENCODING 1121
SWIDTH 752 0
DWIDTH 27 0
BBX 26 19 1 0
BITMAP
07F000BE000FD0
07E000BD000FC0
0BE000FD001FC0
0BD000FC001F80
0FD001FC002F80
0FC001F8002F40
1FC002F8003F40
1F8002F4003F00
2F8003F4007F00
2F4003F0007E00
3F4007F000BE00
3F0007E000BD00
7F000BE000FD00
7F000FE001FC00
7F001FE002F800
3F407FF407F400
2FEBFEFEBFE000
0BFFF4BFFF8000
01BF801BF90000
ENDCHAR
STARTCHAR uni0462
ENCODING 1122
SWIDTH 613 0
DWIDTH 22 0
BBX 19 26 1 0
BITMAP
00BE000000
00FD000000
00FD000000
00FC000000
FFFFFC0000
FFFFF80000
ABFEA40000
03F4000000
03F4000000
07F0000000
07F0000000
0BFFFFE800
0BFFFFFF80
0FFAAAFFE0
0FD0001BF4
1FC00003F8
1FC00001FC
2F800001FC
2F800001FC
3F400002F8
3F400003F4
7F00000FF0
7F00007FD0
BFAAABFF40
BFFFFFFD00
FFFFFE9000
ENDCHAR
STARTCHAR uni0463
ENCODING 1123
SWIDTH 530 0
DWIDTH 19 0
BBX 16 27 1 0
BITMAP
00BE0000
00BD0000
00FD0000
00FC0000
01FC0000
01FC0000
BFFFFF00
FFFFFF00
ABFAAA00
03F00000
07F00000
07E00000
0BE00000
0BD00000
0FFFFE40
0FFFFFE0
1FEAAFF8
1F8001FD
2F4000BE
3F4000BE
3F0000BE
7F0000BE
7E0001FD
BE0007F8
BEAABFF0
FFFFFF80
FFFFF900
ENDCHAR
STARTCHAR uni0464
ENCODING 1124
SWIDTH 874 0
DWIDTH 31 0
BBX 29 26 1 0
BITMAP
007F00001BFE4000
00BE0001FFFFE000
00BE000BFFAFFC00
00FD002FE001FE00
00FD00BF40007F40
01FC01FD00002F80
01FC03F800001FC0
02F807F000001FC0
02F80FE000000A80
03F40FD000000000
03F41FC000000000
07FFFFFFFFF00000
07FFFFFFFFE00000
0BFABFAAAA900000
0BE03F4000000000
0FD03F4000000000
0FD03F0000000000
1FC03F4000005400
1FC03F400001FC00
2F802F800002F800
2F802FC00007F400
3F400FE0001FE000
3F400BF8007FC000
7F0002FFEFFF0000
7F0000BFFFF80000
BE00001BFE800000
ENDCHAR
STARTCHAR uni0465
ENCODING 1125
SWIDTH 728 0
DWIDTH 26 0
BBX 24 19 1 0
BITMAP
03F4001AFE40
07F000BFFFE0
07F003FFAFF8
0BE00BF401FD
0BD02FC000BE
0FD03F40007F
0FC0BE000015
1FC0FD000000
1FFFFFFFF800
2FFFFFFFF400
2FAAFEAAA400
3F41FC000000
3F01FC000000
7F00FC0002F8
7E00BE0007F4
BE007F401FE0
BD002FFAFF80
FD000BFFFE00
FC0001BFA000
ENDCHAR
STARTCHAR uni0466
ENCODING 1126
SWIDTH 589 0
DWIDTH 21 0
BBX 21 26 -1 0
BITMAP
0000003F4000
000000BF4000
000000FF8000
000002FF8000
000003FFC000
00000BEFC000
00001FCBD000
00002F8BD000
00007F07E000
0000BE07E000
0001FC07F000
0002F403F000
0007F003F400
000BD002F400
001FC002F800
002FFFFFF800
007FFFFFFC00
00FFFFFFFC00
01FC1FC0FD00
03F41F80BD00
07F02F80BE00
0FD02F407E00
1FC03F407F00
3F403F003F00
7F007F003F40
FE007E003F40
ENDCHAR
STARTCHAR uni0467
ENCODING 1127
SWIDTH 522 0
DWIDTH 19 0
BBX 18 19 -2 0
BITMAP
000003F000
00000BF400
00001FF400
00002FF800
00007EFC00
0000FDFC00
0002F8BD00
0003F47E00
000BE07F00
001FC03F00
002F402F40
007FFFFF80
00FFFFFF80
02FEBFAFC0
03F47E0FD0
0BE0BE0BD0
1FC0BD07E0
2F80FD07F0
7F00FC03F0
ENDCHAR
ENDFONT
